SplineFontDB: 3.0
FontName: Auvaiyar-BoldItalic
FullName: Auvaiyar Bold Italic
FamilyName: Auvaiyar
Weight: Bold
Copyright: Copyright (c) 1995-2015, NLCI (http://www.nlci.in/fonts/) Derived from TAM Auvaiyar Bold Italic by ttfbuilder v0.33
Version: 1.0 Wed Feb 01 17:08:28 1995
ItalicAngle: 12
UnderlinePosition: -310
UnderlineWidth: 20
Ascent: 800
Descent: 200
InvalidEm: 0
sfntRevision: 0x00010000
LayerCount: 2
Layer: 0 0 "Back" 1
Layer: 1 0 "Fore" 0
XUID: [1021 837 -772988270 10949182]
StyleMap: 0x0021
FSType: 0
OS2Version: 1
OS2_WeightWidthSlopeOnly: 0
OS2_UseTypoMetrics: 0
CreationTime: 1547921071
ModificationTime: 1547921082
PfmFamily: 17
TTFWeight: 700
TTFWidth: 5
LineGap: 0
VLineGap: 0
Panose: 2 0 0 3 0 0 0 0 0 0
OS2TypoAscent: 750
OS2TypoAOffset: 0
OS2TypoDescent: -329
OS2TypoDOffset: 0
OS2TypoLinegap: 0
OS2WinAscent: 750
OS2WinAOffset: 0
OS2WinDescent: 329
OS2WinDOffset: 0
HheadAscent: 750
HheadAOffset: 0
HheadDescent: -329
HheadDOffset: 0
OS2SubXSize: 700
OS2SubYSize: 650
OS2SubXOff: 0
OS2SubYOff: 143
OS2SupXSize: 700
OS2SupYSize: 650
OS2SupXOff: 0
OS2SupYOff: 453
OS2StrikeYSize: 50
OS2StrikeYPos: 259
OS2Vendor: 'Phsc'
OS2CodePages: 20000001.00000000
OS2UnicodeRanges: a01080ff.520021cb.08000028.00000000
Lookup: 260 0 0 "_holdAnchorsbase" { "_someAnchorsbase"  } []
DEI: 91125
ShortTable: maxp 16
  1
  0
  243
  249
  12
  365
  16
  1
  0
  0
  0
  0
  134
  0
  3
  2
EndShort

StartChar: .notdef
Encoding: 0 -1 0
Width: 500
Flags: HW
LayerCount: 2
Fore
SplineSet
31 0 m 1
 31 750 l 1
 469 750 l 1
 469 0 l 1
 31 0 l 1
438 31 m 1
 438 719 l 1
 62 719 l 1
 62 31 l 1
 438 31 l 1
EndSplineSet
EndChar

StartChar: exclam.taml
Encoding: 4 -1 4
Width: 320
Flags: HW
LayerCount: 2
Fore
SplineSet
310 370 m 0
 296.666666667 334 280.666666667 288.333333333 262 233 c 0
 255.333333333 213 242 173.666666667 222 115 c 0
 216 98.3333333333 210.333333333 81.6666666667 205 65 c 1
 180 65 l 1
 185.333333333 107.666666667 189.333333333 142 192 168 c 0
 200 247.333333333 204 314.333333333 204 369 c 0
 204 391.666666667 210.833333333 410.833333333 224.5 426.5 c 128
 238.166666667 442.166666667 254.666666667 450 274 450 c 0
 300.666666667 450 314 434.333333333 314 403 c 0
 314 395 314 395 314 388 c 0
 312 380 310.666666667 374 310 370 c 0
223 -24 m 0
 219.666666667 -38.6666666667 212.5 -50.8333333333 201.5 -60.5 c 128
 190.5 -70.1666666667 177.333333333 -75 162 -75 c 0
 150 -75 140.166666667 -71.1666666667 132.5 -63.5 c 128
 124.833333333 -55.8333333333 121 -46 121 -34 c 0
 121 -29.3333333333 121.833333333 -23.1666666667 123.5 -15.5 c 128
 125.166666667 -7.83333333333 131.666666667 0.666666666667 143 10 c 128
 154.333333333 19.3333333333 167.333333333 24 182 24 c 256
 196.666666667 24 207.833333333 19.5 215.5 10.5 c 128
 223.166666667 1.5 225.666666667 -10 223 -24 c 0
EndSplineSet
EndChar

StartChar: quoteleft.taml
Encoding: 5 -1 5
Width: 250
Flags: HW
LayerCount: 2
Fore
SplineSet
321 632 m 1
 281.666666667 620 249 601.666666667 223 577 c 1
 215 563 207 549.333333333 199 536 c 1
 202.333333333 533.333333333 206 532 210 532 c 256
 214 532 221.333333333 535 232 541 c 128
 242.666666667 547 251.333333333 550 258 550 c 0
 264 550 270.166666667 547.833333333 276.5 543.5 c 128
 282.833333333 539.166666667 288 532.666666667 292 524 c 128
 296 515.333333333 298 506.666666667 298 498 c 0
 298 479.333333333 291.333333333 463 278 449 c 0
 261.333333333 430.333333333 239.333333333 421 212 421 c 0
 204 421 194.333333333 421.666666667 183 423 c 128
 171.666666667 424.333333333 161.5 432 152.5 446 c 128
 143.5 460 139 476.666666667 139 496 c 0
 139 511.333333333 142 525.666666667 148 539 c 0
 167.333333333 584.333333333 203.666666667 621 257 649 c 0
 274.333333333 657.666666667 299 667 331 677 c 1
 321 632 l 1
EndSplineSet
EndChar

StartChar: u20A8
Encoding: 6 8360 6
Width: 800
Flags: HW
LayerCount: 2
Fore
SplineSet
726 92 m 0
 719.333333333 63.3333333333 703.5 39.8333333333 678.5 21.5 c 128
 653.5 3.16666666667 626.333333333 -6 597 -6 c 0
 584.333333333 -6 569.333333333 -3.33333333333 552 2 c 128
 534.666666667 7.33333333333 524.333333333 10 521 10 c 0
 515.666666667 10 512 8.33333333333 510 5 c 1
 492 8 l 1
 514 115 l 1
 533 115 l 1
 533 81.6666666667 540 57.6666666667 554 43 c 0
 566 31 583 25 605 25 c 0
 617 25 628.833333333 29.3333333333 640.5 38 c 128
 652.166666667 46.6666666667 659 55.6666666667 661 65 c 0
 664.333333333 82.3333333333 656 97.6666666667 636 111 c 0
 629.333333333 115 616.666666667 122 598 132 c 0
 574.666666667 145.333333333 559.333333333 155.333333333 552 162 c 0
 540.666666667 173.333333333 535 187.333333333 535 204 c 0
 535 212.666666667 535.666666667 219.333333333 537 224 c 0
 542.333333333 250 555.666666667 271.333333333 577 288 c 128
 598.333333333 304.666666667 623 313 651 313 c 0
 661 313 672.5 311.166666667 685.5 307.5 c 128
 698.5 303.833333333 706 302 708 302 c 0
 715.333333333 302 721.333333333 305.666666667 726 313 c 1
 753 313 l 1
 729 204 l 1
 702 204 l 1
 702 234 697.166666667 255 687.5 267 c 128
 677.833333333 279 663 285 643 285 c 0
 631 285 620 282.166666667 610 276.5 c 128
 600 270.833333333 594.333333333 264.666666667 593 258 c 128
 591.666666667 251.333333333 591 245.666666667 591 241 c 0
 591 228.333333333 598 217.333333333 612 208 c 0
 636 196 636 196 660 184 c 0
 682.666666667 170.666666667 698 160.333333333 706 153 c 0
 720.666666667 139 728 123.333333333 728 106 c 0
 728 103.333333333 727.333333333 98.6666666667 726 92 c 0
458 4 m 1
 328 4 l 1
 219 207 l 1
 183 205 l 1
 155 86 l 2
 152.333333333 74.6666666667 151 64.6666666667 151 56 c 0
 151 46 153.5 39.6666666667 158.5 37 c 128
 163.5 34.3333333333 172 33 184 33 c 2
 209 33 l 1
 203 4 l 1
 0 4 l 1
 6 33 l 1
 26 33 l 2
 45.3333333333 33 58.3333333333 37.3333333333 65 46 c 128
 71.6666666667 54.6666666667 77 68 81 86 c 2
 141 367 l 2
 143 376.333333333 144 384 144 390 c 0
 144 398.666666667 142 405 138 409 c 128
 134 413 124 415 108 415 c 2
 85 413 l 1
 92 446 l 1
 260 446 l 2
 320 446 364 439.5 392 426.5 c 128
 420 413.5 434 391 434 359 c 0
 434 351 433 342 431 332 c 0
 425.666666667 306.666666667 413 284.333333333 393 265 c 0
 370.333333333 243 339.333333333 226.666666667 300 216 c 1
 323.333333333 172.666666667 341.333333333 140 354 118 c 0
 380.666666667 71.3333333333 396.666666667 46.6666666667 402 44 c 0
 408.666666667 39.3333333333 418.333333333 36 431 34 c 128
 443.666666667 32 454.333333333 30.3333333333 463 29 c 1
 458 4 l 1
343 322 m 0
 344.333333333 331.333333333 345 338.333333333 345 343 c 0
 345 361.666666667 339 376.666666667 327 388 c 0
 312.333333333 401.333333333 290 408 260 408 c 0
 250 408 238.333333333 407 225 405 c 1
 190 240 l 1
 230.666666667 240 265 247.666666667 293 263 c 128
 321 278.333333333 337.666666667 298 343 322 c 0
EndSplineSet
EndChar

StartChar: percent.taml
Encoding: 7 -1 7
Width: 581
Flags: HW
LayerCount: 2
Fore
SplineSet
543 161 m 0
 532.333333333 110.333333333 511.666666667 72 481 46 c 0
 456.333333333 24.6666666667 429.666666667 14 401 14 c 0
 383 14 369 17.3333333333 359 24 c 0
 339.666666667 36.6666666667 330 59.3333333333 330 92 c 0
 330 104.666666667 332 120.666666667 336 140 c 0
 347.333333333 194 369.333333333 234.666666667 402 262 c 0
 426 282 450.666666667 292 476 292 c 0
 494.666666667 292 510.333333333 287 523 277 c 0
 540.333333333 263 549 240.666666667 549 210 c 0
 549 196.666666667 547 180.333333333 543 161 c 0
551 504 m 1
 147 12 l 1
 83 12 l 1
 486 504 l 1
 551 504 l 1
302 378 m 0
 290.666666667 324 268.666666667 283.333333333 236 256 c 0
 212 236 187.333333333 226 162 226 c 0
 143.333333333 226 127.666666667 231 115 241 c 0
 97.6666666667 255 89 277.333333333 89 308 c 0
 89 321.333333333 91 337.666666667 95 357 c 0
 105.666666667 407.666666667 126 446 156 472 c 0
 180.666666667 493.333333333 207.666666667 504 237 504 c 0
 255 504 269 500.666666667 279 494 c 0
 298.333333333 481.333333333 308 458.666666667 308 426 c 0
 308 413.333333333 306 397.333333333 302 378 c 0
475 124 m 0
 477 131.333333333 478.333333333 138.666666667 479 146 c 128
 479.666666667 153.333333333 480 160.666666667 480 168 c 0
 480 187.333333333 476.166666667 201.5 468.5 210.5 c 128
 460.833333333 219.5 450.666666667 224 438 224 c 0
 421.333333333 224 410.833333333 212.833333333 406.5 190.5 c 128
 402.166666667 168.166666667 400 150.666666667 400 138 c 0
 400 100 414.666666667 81 444 81 c 0
 458.666666667 81 469 95.3333333333 475 124 c 0
233 332 m 0
 237 350 239 365.333333333 239 378 c 0
 239 417.333333333 224 437 194 437 c 0
 179.333333333 437 169 422.333333333 163 393 c 0
 161 385.666666667 159.666666667 378.333333333 159 371 c 128
 158.333333333 363.666666667 158 356.333333333 158 349 c 0
 158 330.333333333 161.833333333 316.5 169.5 307.5 c 128
 177.166666667 298.5 187.333333333 294 200 294 c 0
 216.666666667 294 227.666666667 306.666666667 233 332 c 0
EndSplineSet
EndChar

StartChar: ampersand.taml
Encoding: 8 -1 8
Width: 505
Flags: HW
LayerCount: 2
Fore
SplineSet
517 95 m 1
 500.333333333 63 481 38.8333333333 459 22.5 c 128
 437 6.16666666667 413.333333333 -2 388 -2 c 0
 368.666666667 -2 350 2.66666666667 332 12 c 0
 323.333333333 18 316 23.6666666667 310 29 c 0
 302 36.3333333333 294.333333333 45 287 55 c 1
 231.666666667 17 181 -2 135 -2 c 0
 101 -2 73.6666666667 8.33333333333 53 29 c 0
 39.6666666667 44.3333333333 33 61.6666666667 33 81 c 0
 33 96.3333333333 36.8333333333 112 44.5 128 c 128
 52.1666666667 144 64.3333333333 160.333333333 81 177 c 0
 104.333333333 201 142.666666667 226 196 252 c 1
 193.333333333 265.333333333 191.333333333 275.666666667 190 283 c 128
 188.666666667 290.333333333 188 298.666666667 188 308 c 0
 188 318.666666667 189 329 191 339 c 0
 197.666666667 371 214.833333333 397.166666667 242.5 417.5 c 128
 270.166666667 437.833333333 301 448 335 448 c 0
 359 448 378.333333333 441.666666667 393 429 c 128
 407.666666667 416.333333333 415 400.333333333 415 381 c 0
 415 378.333333333 414.333333333 373 413 365 c 0
 407.666666667 343 395.833333333 323.333333333 377.5 306 c 128
 359.166666667 288.666666667 329 270.333333333 287 251 c 1
 302.333333333 209.666666667 318.666666667 174.333333333 336 145 c 1
 372.666666667 181.666666667 394 212.333333333 400 237 c 0
 402 244.333333333 400.666666667 250.166666667 396 254.5 c 128
 391.333333333 258.833333333 385 261.666666667 377 263 c 1
 383 293 l 1
 535 293 l 1
 529 263 l 1
 516.333333333 263 506.833333333 262.166666667 500.5 260.5 c 128
 494.166666667 258.833333333 487.333333333 255.833333333 480 251.5 c 128
 472.666666667 247.166666667 457.166666667 229.666666667 433.5 199 c 128
 409.833333333 168.333333333 384 139.333333333 356 112 c 1
 361.333333333 104 366.833333333 97.1666666667 372.5 91.5 c 128
 378.166666667 85.8333333333 385.333333333 80.1666666667 394 74.5 c 128
 402.666666667 68.8333333333 413.333333333 66 426 66 c 0
 453.333333333 66 475 82.6666666667 491 116 c 1
 517 95 l 1
356 366 m 0
 358.666666667 377.333333333 357 386.833333333 351 394.5 c 128
 345 402.166666667 336.333333333 406.666666667 325 408 c 0
 311.666666667 408 299.833333333 403.166666667 289.5 393.5 c 128
 279.166666667 383.833333333 273 374.333333333 271 365 c 128
 269 355.666666667 268 346.666666667 268 338 c 0
 268 328.666666667 270.666666667 312.333333333 276 289 c 1
 322.666666667 309.666666667 349.333333333 335.333333333 356 366 c 0
262 86 m 1
 250 109.333333333 240.166666667 129.5 232.5 146.5 c 128
 224.833333333 163.5 216 186 206 214 c 1
 188 203.333333333 178 197.333333333 176 196 c 0
 168 190.666666667 160.333333333 184 153 176 c 0
 134.333333333 155.333333333 125 133.333333333 125 110 c 0
 125 97.3333333333 128 86 134 76 c 0
 146 60 161 52 179 52 c 0
 190.333333333 52 202.166666667 54.5 214.5 59.5 c 128
 226.833333333 64.5 242.666666667 73.3333333333 262 86 c 1
EndSplineSet
EndChar

StartChar: quoteright.taml
Encoding: 9 -1 9
Width: 250
Flags: HW
LayerCount: 2
Fore
SplineSet
277 549 m 0
 257 503.666666667 220.333333333 467 167 439 c 0
 149.666666667 430.333333333 125 421 93 411 c 1
 103 456 l 1
 143 468 176 486.333333333 202 511 c 1
 209.333333333 524.333333333 217 538 225 552 c 1
 221.666666667 554.666666667 218 556 214 556 c 0
 209.333333333 556 201.666666667 553 191 547 c 128
 180.333333333 541 171.666666667 538 165 538 c 0
 159.666666667 538 154 540 148 544 c 0
 132.666666667 555.333333333 125 571 125 591 c 0
 125 609 131.666666667 625 145 639 c 0
 154.333333333 649 164.333333333 656.166666667 175 660.5 c 128
 185.666666667 664.833333333 198 667 212 667 c 0
 220.666666667 667 230.5 666.333333333 241.5 665 c 128
 252.5 663.666666667 262.666666667 656 272 642 c 128
 281.333333333 628 286 611.333333333 286 592 c 0
 286 576.666666667 283 562.333333333 277 549 c 0
EndSplineSet
EndChar

StartChar: parenleft.taml
Encoding: 10 -1 10
Width: 280
Flags: HW
LayerCount: 2
Fore
SplineSet
267 -232 m 1
 244 -253 l 1
 184.666666667 -216.333333333 140.5 -169.833333333 111.5 -113.5 c 128
 82.5 -57.1666666667 68 5.33333333333 68 74 c 0
 68 111.333333333 72 149.666666667 80 189 c 0
 100 282.333333333 138.333333333 366.333333333 195 441 c 0
 256.333333333 521 335 584.666666667 431 632 c 1
 447 614 l 1
 361.666666667 557.333333333 293.166666667 476.333333333 241.5 371 c 128
 189.833333333 265.666666667 164 159.666666667 164 53 c 0
 164 -7 172.333333333 -60.8333333333 189 -108.5 c 128
 205.666666667 -156.166666667 231.666666667 -197.333333333 267 -232 c 1
EndSplineSet
EndChar

StartChar: parenright.taml
Encoding: 11 -1 11
Width: 280
Flags: HW
LayerCount: 2
Fore
SplineSet
240 189 m 0
 220.666666667 96.3333333333 182.333333333 12.6666666667 125 -62 c 0
 63.6666666667 -141.333333333 -15.3333333333 -205 -112 -253 c 1
 -126 -233 l 1
 -38.6666666667 -172.333333333 31 -87.6666666667 83 21 c 0
 131.666666667 122.333333333 156 226 156 332 c 0
 156 390.666666667 147.5 444.333333333 130.5 493 c 128
 113.5 541.666666667 88 581.666666667 54 613 c 1
 77 632 l 1
 137 594.666666667 181.333333333 548.333333333 210 493 c 128
 238.666666667 437.666666667 253 375.333333333 253 306 c 0
 253 286 252.166666667 267.833333333 250.5 251.5 c 128
 248.833333333 235.166666667 245.333333333 214.333333333 240 189 c 0
EndSplineSet
EndChar

StartChar: asterisk.taml
Encoding: 12 -1 12
Width: 600
Flags: HW
LayerCount: 2
Fore
SplineSet
517 331 m 0
 505.666666667 317.666666667 491.666666667 311 475 311 c 0
 465.666666667 311 458.333333333 314 453 320 c 0
 441.666666667 331.333333333 431 342.666666667 421 354 c 0
 408.333333333 368.666666667 400 377.666666667 396 381 c 1
 396 373 396.666666667 359 398 339 c 128
 399.333333333 319 400 303.333333333 400 292 c 0
 397.333333333 279.333333333 391.333333333 268.666666667 382 260 c 128
 372.666666667 251.333333333 362.333333333 247 351 247 c 0
 342.333333333 247 334.833333333 250.166666667 328.5 256.5 c 128
 322.166666667 262.833333333 319 271 319 281 c 0
 319 285.666666667 319.333333333 289.333333333 320 292 c 0
 328.666666667 311.333333333 336.833333333 329 344.5 345 c 128
 352.166666667 361 357.666666667 373.333333333 361 382 c 1
 350.333333333 375.333333333 339 367 327 357 c 0
 299.666666667 335 284.333333333 322.666666667 281 320 c 0
 269.666666667 313.333333333 259.333333333 310 250 310 c 0
 234.666666667 310 224.333333333 316 219 328 c 0
 217.666666667 332 217 335.666666667 217 339 c 0
 217 348.333333333 220.5 357.5 227.5 366.5 c 128
 234.5 375.5 242.833333333 381.5 252.5 384.5 c 128
 262.166666667 387.5 278 391.5 300 396.5 c 128
 322 401.5 338.666666667 406 350 410 c 1
 344.666666667 412 333 415.166666667 315 419.5 c 128
 297 423.833333333 279.666666667 428.666666667 263 434 c 0
 250.333333333 440 244 450 244 464 c 0
 244 472.666666667 247 481.666666667 253 491 c 0
 265 503 279 509 295 509 c 0
 304.333333333 509 312.333333333 506.333333333 319 501 c 0
 332.333333333 486.333333333 342.666666667 474 350 464 c 0
 360.666666667 450 368.333333333 441 373 437 c 1
 373 449 372.5 465.5 371.5 486.5 c 128
 370.5 507.5 370 521 370 527 c 0
 372.666666667 540.333333333 378.833333333 551 388.5 559 c 128
 398.166666667 567 408.666666667 571 420 571 c 0
 429.333333333 571 436.833333333 567.833333333 442.5 561.5 c 128
 448.166666667 555.166666667 451 546.666666667 451 536 c 0
 451 531.333333333 450.666666667 528 450 526 c 0
 441.333333333 508.666666667 433 491.833333333 425 475.5 c 128
 417 459.166666667 411.333333333 446.333333333 408 437 c 1
 418 443.666666667 430 452.666666667 444 464 c 0
 466 482 481.666666667 494.333333333 491 501 c 0
 498.333333333 505 506.333333333 507 515 507 c 0
 532.333333333 507 544 501.333333333 550 490 c 0
 550.666666667 487.333333333 551 483.666666667 551 479 c 0
 551 468.333333333 547.666666667 458.666666667 541 450 c 128
 534.333333333 441.333333333 525.666666667 435.666666667 515 433 c 0
 487 427 467 422.666666667 455 420 c 128
 443 417.333333333 431 414 419 410 c 1
 430.333333333 404.666666667 444 400 460 396 c 128
 476 392 491 388.166666667 505 384.5 c 128
 519 380.833333333 526 371.333333333 526 356 c 0
 526 347.333333333 523 339 517 331 c 0
EndSplineSet
EndChar

StartChar: plus.taml
Encoding: 13 -1 13
Width: 420
Flags: HW
LayerCount: 2
Fore
SplineSet
358 183 m 2
 293 183 l 1
 280 121 l 2
 278.666666667 113 273.333333333 106.833333333 264 102.5 c 128
 254.666666667 98.1666666667 243.666666667 96 231 96 c 0
 202.333333333 96 189.333333333 104.333333333 192 121 c 2
 205 183 l 1
 140 183 l 2
 134 183 129.5 185.5 126.5 190.5 c 128
 123.5 195.5 122 202 122 210 c 0
 122 222.666666667 125.5 235.333333333 132.5 248 c 128
 139.5 260.666666667 148 267 158 267 c 2
 223 267 l 1
 236 329 l 2
 238 336.333333333 243.833333333 342.333333333 253.5 347 c 128
 263.166666667 351.666666667 273.666666667 354 285 354 c 0
 297 354 307 351.833333333 315 347.5 c 128
 323 343.166666667 326 337 324 329 c 2
 311 267 l 1
 376 267 l 2
 382 267 386.5 264.5 389.5 259.5 c 128
 392.5 254.5 394 248 394 240 c 0
 394 227.333333333 390.5 214.666666667 383.5 202 c 128
 376.5 189.333333333 368 183 358 183 c 2
EndSplineSet
EndChar

StartChar: comma.taml
Encoding: 14 -1 14
Width: 220
Flags: HW
LayerCount: 2
Fore
SplineSet
171 32 m 0
 163 -6 141.666666667 -38.6666666667 107 -66 c 0
 61 -102 21 -120 -13 -120 c 1
 -3 -77 l 1
 12.3333333333 -77 33 -68.3333333333 59 -51 c 0
 89.6666666667 -31 107.333333333 -9.66666666667 112 13 c 1
 110 15 l 1
 106 15 98.6666666667 12 88 6 c 128
 77.3333333333 0 68.6666666667 -3 62 -3 c 0
 50.6666666667 -3 40.3333333333 2.66666666667 31 14 c 128
 21.6666666667 25.3333333333 17 38.3333333333 17 53 c 0
 17 57 17.3333333333 60 18 62 c 0
 21.3333333333 78 31.3333333333 92.6666666667 48 106 c 128
 64.6666666667 119.333333333 82 126 100 126 c 0
 123.333333333 126 141.333333333 118.5 154 103.5 c 128
 166.666666667 88.5 173 70.3333333333 173 49 c 0
 173 45.6666666667 172.333333333 40 171 32 c 0
EndSplineSet
EndChar

StartChar: hyphen.taml
Encoding: 15 -1 15
Width: 443
Flags: HW
LayerCount: 2
Fore
SplineSet
402 191 m 2
 122 191 l 2
 106 191 93.8333333333 193.833333333 85.5 199.5 c 128
 77.1666666667 205.166666667 73 212.666666667 73 222 c 0
 73 232.666666667 78.5 241.833333333 89.5 249.5 c 128
 100.5 257.166666667 116 261 136 261 c 2
 416 261 l 2
 450 261 467 250.333333333 467 229 c 0
 467 219 461.333333333 210.166666667 450 202.5 c 128
 438.666666667 194.833333333 422.666666667 191 402 191 c 2
EndSplineSet
EndChar

StartChar: period.taml
Encoding: 16 -1 16
Width: 220
Flags: HW
LayerCount: 2
Fore
SplineSet
176 62 m 0
 172.666666667 44.6666666667 162.333333333 30 145 18 c 128
 127.666666667 6 109 0 89 0 c 0
 71.6666666667 0 57.3333333333 4.66666666667 46 14 c 128
 34.6666666667 23.3333333333 29 36 29 52 c 0
 29 56 29.3333333333 59.3333333333 30 62 c 0
 33.3333333333 78.6666666667 43.5 93.1666666667 60.5 105.5 c 128
 77.5 117.833333333 95.6666666667 124 115 124 c 0
 132.333333333 124 147 119 159 109 c 128
 171 99 177 86.6666666667 177 72 c 0
 177 67.3333333333 176.666666667 64 176 62 c 0
EndSplineSet
EndChar

StartChar: slash.taml
Encoding: 18 -1 18
Width: 260
Flags: HW
LayerCount: 2
Fore
SplineSet
404 614 m 1
 8 -94 l 1
 -52 -94 l 1
 345 614 l 1
 404 614 l 1
EndSplineSet
EndChar

StartChar: zero.taml
Encoding: 19 -1 19
Width: 534
Flags: HW
LayerCount: 2
Fore
SplineSet
472 225 m 0
 456 151 422.333333333 94 371 54 c 0
 324.333333333 18 268.666666667 0 204 0 c 0
 190 0 176 1 162 3 c 0
 114.666666667 9 80.5 24 59.5 48 c 128
 38.5 72 28 104.333333333 28 145 c 0
 28 166.333333333 31.3333333333 193 38 225 c 0
 52 291.666666667 75 342.333333333 107 377 c 0
 142.333333333 415.666666667 192 438.666666667 256 446 c 0
 263.333333333 446.666666667 271.166666667 447.166666667 279.5 447.5 c 128
 287.833333333 447.833333333 294 448 298 448 c 0
 357.333333333 448 402.333333333 433 433 403 c 128
 463.666666667 373 479 333.333333333 479 284 c 0
 479 276 478.5 267.166666667 477.5 257.5 c 128
 476.5 247.833333333 474.666666667 237 472 225 c 0
332 224 m 0
 336.666666667 244.666666667 339 265 339 285 c 0
 339 317 331.666666667 341.833333333 317 359.5 c 128
 302.333333333 377.166666667 278 386 244 386 c 0
 206 386 173.666666667 369.666666667 147 337 c 0
 123.666666667 308.333333333 107.333333333 270.666666667 98 224 c 0
 94 204.666666667 92 186.666666667 92 170 c 0
 92 138 98.6666666667 112.5 112 93.5 c 128
 125.333333333 74.5 146.666666667 65 176 65 c 0
 218.666666667 65 254 81.6666666667 282 115 c 0
 305.333333333 143 322 179.333333333 332 224 c 0
EndSplineSet
EndChar

StartChar: one.taml
Encoding: 20 -1 20
Width: 347
Flags: HW
LayerCount: 2
Fore
SplineSet
322 411 m 0
 310.666666667 397 301.166666667 381.333333333 293.5 364 c 128
 285.833333333 346.666666667 279.666666667 327.666666667 275 307 c 128
 270.333333333 286.333333333 266 267.666666667 262 251 c 0
 246 188.333333333 236.666666667 150 234 136 c 0
 224 88.6666666667 202.333333333 52.6666666667 169 28 c 0
 140.333333333 6.66666666667 108.666666667 -4 74 -4 c 0
 54.6666666667 -4 45 1.33333333333 45 12 c 0
 45 18 49 25.6666666667 57 35 c 0
 67.6666666667 48.3333333333 77.3333333333 63.8333333333 86 81.5 c 128
 94.6666666667 99.1666666667 101.333333333 118.333333333 106 139 c 0
 108.666666667 153 121.333333333 189.333333333 144 248 c 0
 152.666666667 272 161.666666667 296 171 320 c 1
 163 306 152.666666667 291.333333333 140 276 c 0
 124.666666667 258 109.666666667 243.666666667 95 233 c 0
 83.6666666667 224.333333333 73 220 63 220 c 0
 51 220 44 225.333333333 42 236 c 0
 42 251.333333333 49 263.666666667 63 273 c 0
 71 277.666666667 79 282.666666667 87 288 c 0
 91.6666666667 290.666666667 96.5 294.5 101.5 299.5 c 128
 106.5 304.5 112.666666667 312 120 322 c 0
 140 350 154 369.666666667 162 381 c 0
 176 400.333333333 190 414.333333333 204 423 c 128
 218 431.666666667 233.166666667 438.333333333 249.5 443 c 128
 265.833333333 447.666666667 285 450 307 450 c 0
 325 450 334 445 334 435 c 0
 334 428.333333333 330 420.333333333 322 411 c 0
EndSplineSet
EndChar

StartChar: two.taml
Encoding: 21 -1 21
Width: 475
Flags: HW
LayerCount: 2
Fore
SplineSet
364 24 m 0
 345 15 345 15 326 6 c 0
 314.666666667 2 296 0 270 0 c 0
 248.666666667 0 233.333333333 1.33333333333 224 4 c 128
 214.666666667 6.66666666667 199.666666667 8 179 8 c 0
 155 8 131.666666667 6.16666666667 109 2.5 c 128
 86.3333333333 -1.16666666667 68.6666666667 -3 56 -3 c 0
 40.6666666667 -3 28.6666666667 -0.333333333333 20 5 c 0
 7.33333333333 12.3333333333 1 25 1 43 c 0
 1 51 1.66666666667 57.3333333333 3 62 c 0
 9 90 33.3333333333 114.333333333 76 135 c 128
 118.666666667 155.666666667 161 176 203 196 c 1
 249.666666667 225.333333333 277.666666667 262.666666667 287 308 c 0
 289.666666667 320 291.166666667 327.166666667 291.5 329.5 c 128
 291.833333333 331.833333333 292 337 292 345 c 0
 292 377 273.333333333 393 236 393 c 2
 220 393 l 2
 202.666666667 393 188 390.333333333 176 385 c 0
 156.666666667 376.333333333 138.333333333 360 121 336 c 0
 116.333333333 329.333333333 110.666666667 324 104 320 c 128
 97.3333333333 316 91.3333333333 314 86 314 c 0
 72 314 65 320.666666667 65 334 c 0
 65 342 68.6666666667 350.666666667 76 360 c 0
 102.666666667 396 129 420 155 432 c 128
 181 444 211 450 245 450 c 0
 306.333333333 450 351 441.166666667 379 423.5 c 128
 407 405.833333333 421 379 421 343 c 0
 421 334 421 334 421 325 c 0
 419 315.666666667 417.666666667 308.666666667 417 304 c 0
 404.333333333 244 368 200.333333333 308 173 c 1
 240.666666667 147.666666667 173.666666667 122.333333333 107 97 c 0
 87.6666666667 87.6666666667 78 78 78 68 c 0
 78 58.6666666667 85 54 99 54 c 0
 105 54 111.166666667 55 117.5 57 c 128
 123.833333333 59 130.5 61.1666666667 137.5 63.5 c 128
 144.5 65.8333333333 149.666666667 67 153 67 c 0
 161.666666667 65.6666666667 173.666666667 65 189 65 c 0
 205.666666667 65 218 63.6666666667 226 61 c 128
 234 58.3333333333 245.666666667 57 261 57 c 0
 279.666666667 57 294.333333333 59 305 63 c 0
 317 69 327 73.6666666667 335 77 c 0
 349 83.6666666667 362 87 374 87 c 0
 392.666666667 87 402 79.6666666667 402 65 c 0
 402 57 398.833333333 49.3333333333 392.5 42 c 128
 386.166666667 34.6666666667 376.666666667 28.6666666667 364 24 c 0
EndSplineSet
EndChar

StartChar: three.taml
Encoding: 22 -1 22
Width: 424
Flags: HW
LayerCount: 2
Fore
SplineSet
301 226 m 1
 329.666666667 199.333333333 344 170.666666667 344 140 c 0
 344 101.333333333 323.666666667 67.6666666667 283 39 c 128
 242.333333333 10.3333333333 194 -4 138 -4 c 0
 123 -4 123 -4 108 -4 c 0
 98.6666666667 -2 92 -0.666666666667 88 0 c 0
 38.6666666667 8.66666666667 11.3333333333 32.6666666667 6 72 c 0
 4.66666666667 82 7.83333333333 91.8333333333 15.5 101.5 c 128
 23.1666666667 111.166666667 32 116 42 116 c 0
 53.3333333333 116 62 107 68 89 c 0
 72 78.3333333333 77.3333333333 70.5 84 65.5 c 128
 90.6666666667 60.5 101.666666667 58 117 58 c 0
 137.666666667 58 159 67.3333333333 181 86 c 128
 203 104.666666667 214 126 214 150 c 0
 214 163.333333333 210.333333333 176.333333333 203 189 c 128
 195.666666667 201.666666667 183.666666667 214 167 226 c 1
 196.333333333 243.333333333 218 261.333333333 232 280 c 128
 246 298.666666667 253 316 253 332 c 0
 253 349.333333333 246.833333333 363.166666667 234.5 373.5 c 128
 222.166666667 383.833333333 206.666666667 389 188 389 c 0
 178 389 178 389 168 389 c 0
 160 387 151.666666667 381.666666667 143 373 c 0
 131 360.333333333 119.333333333 354 108 354 c 0
 94 354 87 361.666666667 87 377 c 0
 87 386.333333333 90.5 395.5 97.5 404.5 c 128
 104.5 413.5 117 422.333333333 135 431 c 128
 153 439.666666667 170.166666667 445.5 186.5 448.5 c 128
 202.833333333 451.5 219.666666667 453 237 453 c 0
 281.666666667 453 317.5 443.666666667 344.5 425 c 128
 371.5 406.333333333 385 382 385 352 c 0
 385 332 378.333333333 311.5 365 290.5 c 128
 351.666666667 269.5 330.333333333 248 301 226 c 1
EndSplineSet
EndChar

StartChar: four.taml
Encoding: 23 -1 23
Width: 509
Flags: HW
LayerCount: 2
Fore
SplineSet
424 140 m 0
 396 125.333333333 370 118 346 118 c 2
 339 118 l 1
 326.333333333 77.3333333333 304.333333333 46 273 24 c 0
 246.333333333 5.33333333333 216.666666667 -4 184 -4 c 0
 164.666666667 -4 155 1.33333333333 155 12 c 0
 155 18 159 25.6666666667 167 35 c 0
 185.666666667 57.6666666667 200 85.3333333333 210 118 c 1
 45 114 l 2
 28.3333333333 114 20 121.333333333 20 136 c 0
 20 143.333333333 23.6666666667 151.666666667 31 161 c 0
 84.3333333333 205 138.166666667 253.333333333 192.5 306 c 128
 246.833333333 358.666666667 286 396.666666667 310 420 c 0
 322 431.333333333 336.666666667 439.166666667 354 443.5 c 128
 371.333333333 447.833333333 392.333333333 450 417 450 c 0
 435 450 444 445 444 435 c 0
 444 428.333333333 440 420.333333333 432 411 c 0
 420.666666667 397 411.166666667 381.333333333 403.5 364 c 128
 395.833333333 346.666666667 389.666666667 327.666666667 385 307 c 2
 351 169 l 1
 346 169 l 2
 356 169 365.833333333 171.166666667 375.5 175.5 c 128
 385.166666667 179.833333333 393 183.333333333 399 186 c 0
 410.333333333 191.333333333 421 194 431 194 c 0
 446.333333333 194 454 188 454 176 c 0
 454 162 444 150 424 140 c 0
297 352 m 1
 273.666666667 324.666666667 243.666666667 292.833333333 207 256.5 c 128
 170.333333333 220.166666667 136.666666667 190 106 166 c 1
 225 174 l 1
 233 198 252.333333333 245.666666667 283 317 c 0
 287.666666667 328.333333333 292.333333333 340 297 352 c 1
EndSplineSet
EndChar

StartChar: five.taml
Encoding: 24 -1 24
Width: 483
Flags: HW
LayerCount: 2
Fore
SplineSet
405 152 m 0
 395 104.666666667 372.666666667 68.6666666667 338 44 c 0
 295.333333333 13.3333333333 230.666666667 -2 144 -2 c 0
 111.333333333 -2 86.5 0.333333333333 69.5 5 c 128
 52.5 9.66666666667 36.3333333333 19.3333333333 21 34 c 0
 16.3333333333 38.6666666667 14 44 14 50 c 0
 14 58 18.3333333333 65.6666666667 27 73 c 128
 35.6666666667 80.3333333333 44.6666666667 84 54 84 c 0
 60 84 65 82 69 78 c 0
 80.3333333333 67.3333333333 91 60.8333333333 101 58.5 c 128
 111 56.1666666667 129.333333333 55 156 55 c 0
 181.333333333 55 205 63.8333333333 227 81.5 c 128
 249 99.1666666667 263 122.666666667 269 152 c 0
 271 161.333333333 272 170 272 178 c 0
 272 209.333333333 256 232 224 246 c 0
 200.666666667 256 170.333333333 261 133 261 c 0
 107 261 94 267 94 279 c 0
 94 286.333333333 100.333333333 297 113 311 c 1
 177 410 l 1
 201 424 l 2
 209 428 218.666666667 430 230 430 c 0
 236 430 244.5 429.5 255.5 428.5 c 128
 266.5 427.5 273 427 275 427 c 0
 288.333333333 427 299.333333333 426.666666667 308 426 c 128
 316.666666667 425.333333333 325.666666667 424.666666667 335 424 c 0
 347.666666667 424 358.833333333 425.166666667 368.5 427.5 c 128
 378.166666667 429.833333333 390 434.333333333 404 441 c 128
 418 447.666666667 430.666666667 451 442 451 c 0
 461.333333333 451 471 443.666666667 471 429 c 0
 471 421 467.833333333 413.333333333 461.5 406 c 128
 455.166666667 398.666666667 445.333333333 392.333333333 432 387 c 0
 398.666666667 373.666666667 369.333333333 367 344 367 c 0
 329.333333333 367 314.5 367.5 299.5 368.5 c 128
 284.5 369.5 273 370 265 370 c 2
 216 368 l 1
 173 318 l 1
 189 320 204.666666667 321 220 321 c 0
 276 321 321.5 309.666666667 356.5 287 c 128
 391.5 264.333333333 409 231 409 187 c 0
 409 178 409 178 409 170 c 0
 407 162 405.666666667 156 405 152 c 0
EndSplineSet
EndChar

StartChar: six.taml
Encoding: 25 -1 25
Width: 374
Flags: HW
LayerCount: 2
Fore
SplineSet
350 169 m 0
 339.333333333 117 321.666666667 77.6666666667 297 51 c 0
 266.333333333 17 222.666666667 0 166 0 c 0
 117.333333333 0 83.3333333333 8.83333333333 64 26.5 c 128
 44.6666666667 44.1666666667 35 70.6666666667 35 106 c 0
 35 114.666666667 35.5 125 36.5 137 c 128
 37.5 149 39.3333333333 163 42 179 c 0
 54.6666666667 262.333333333 84.6666666667 327.333333333 132 374 c 0
 183.333333333 424.666666667 252.333333333 450 339 450 c 0
 363 450 375 441.666666667 375 425 c 0
 375 416.333333333 370.666666667 408.833333333 362 402.5 c 128
 353.333333333 396.166666667 341 393 325 393 c 0
 276.333333333 393 235.333333333 381.666666667 202 359 c 0
 172 339 150.333333333 312.666666667 137 280 c 1
 156.333333333 287.333333333 179.666666667 291 207 291 c 0
 247 291 280.333333333 283 307 267 c 0
 337.666666667 248.333333333 353 223.333333333 353 192 c 0
 353 184.666666667 352 177 350 169 c 0
216 149 m 0
 218 158.333333333 219 166.666666667 219 174 c 0
 219 204.666666667 202.666666667 220 170 220 c 0
 134.666666667 220 113.666666667 198.333333333 107 155 c 0
 105.666666667 147 104.666666667 139.666666667 104 133 c 128
 103.333333333 126.333333333 103 119 103 111 c 0
 103 93.6666666667 105.5 80.3333333333 110.5 71 c 128
 115.5 61.6666666667 123.333333333 57 134 57 c 0
 160 57 178.333333333 63.5 189 76.5 c 128
 199.666666667 89.5 208.666666667 113.666666667 216 149 c 0
EndSplineSet
EndChar

StartChar: seven.taml
Encoding: 26 -1 26
Width: 455
Flags: HW
LayerCount: 2
Fore
SplineSet
429 406 m 0
 419 396 409.833333333 384.333333333 401.5 371 c 128
 393.166666667 357.666666667 386.333333333 343 381 327 c 2
 300 103 l 2
 288 69 269.333333333 43.3333333333 244 26 c 0
 222 10.6666666667 198 3 172 3 c 0
 166 3 158.333333333 3.66666666667 149 5 c 128
 139.666666667 6.33333333333 135 11.6666666667 135 21 c 0
 135 26.3333333333 139.666666667 33 149 41 c 0
 170.333333333 63 186.333333333 89 197 119 c 2
 278 343 l 2
 279.333333333 347.666666667 281.666666667 354 285 362 c 128
 288.333333333 370 291.666666667 377.333333333 295 384 c 1
 264.333333333 378 243 374.5 231 373.5 c 128
 219 372.5 205.666666667 372 191 372 c 0
 179.666666667 372 164.666666667 374 146 378 c 128
 127.333333333 382 114.333333333 385.666666667 107 389 c 0
 90.3333333333 394.333333333 82 402 82 412 c 0
 82 416.666666667 84 422 88 428 c 0
 96 440 105.666666667 446 117 446 c 0
 121.666666667 446 128.333333333 444.666666667 137 442 c 128
 145.666666667 439.333333333 152 437.333333333 156 436 c 0
 164 434.666666667 174 433.333333333 186 432 c 128
 198 430.666666667 211 430 225 430 c 0
 245 430 263 431.666666667 279 435 c 0
 303.666666667 440.333333333 317.333333333 443 320 443 c 0
 353 446 353 446 386 449 c 0
 402.666666667 449 416 446.166666667 426 440.5 c 128
 436 434.833333333 441 429.666666667 441 425 c 256
 441 420.333333333 437 414 429 406 c 0
EndSplineSet
EndChar

StartChar: eight.taml
Encoding: 27 -1 27
Width: 399
Flags: HW
LayerCount: 2
Fore
SplineSet
323 127 m 0
 313.666666667 83 291 49.6666666667 255 27 c 0
 224.333333333 7.66666666667 187.666666667 -2 145 -2 c 0
 131 -2 118 -1 106 1 c 0
 75.3333333333 5 52.1666666667 15.1666666667 36.5 31.5 c 128
 20.8333333333 47.8333333333 13 69.3333333333 13 96 c 0
 13 102 14.3333333333 112.333333333 17 127 c 0
 22.3333333333 151.666666667 31.8333333333 172.166666667 45.5 188.5 c 128
 59.1666666667 204.833333333 76.6666666667 218.666666667 98 230 c 1
 87.3333333333 239.333333333 78.6666666667 250.5 72 263.5 c 128
 65.3333333333 276.5 62 290.666666667 62 306 c 0
 62 310.666666667 62.6666666667 317 64 325 c 0
 70.6666666667 357.666666667 85.1666666667 385.166666667 107.5 407.5 c 128
 129.833333333 429.833333333 159.666666667 443.666666667 197 449 c 0
 212.333333333 451 226.333333333 452 239 452 c 0
 279.666666667 452 309.833333333 443 329.5 425 c 128
 349.166666667 407 359 383.666666667 359 355 c 0
 359 345 358 335 356 325 c 0
 351.333333333 305 340.666666667 286.666666667 324 270 c 128
 307.333333333 253.333333333 287.666666667 240.666666667 265 232 c 1
 284.333333333 223.333333333 298.666666667 213.333333333 308 202 c 0
 320 188 326 170.666666667 326 150 c 0
 326 142.666666667 325 135 323 127 c 0
229 323 m 0
 231.666666667 337.666666667 233 347.666666667 233 353 c 0
 233 365.666666667 229.666666667 375.333333333 223 382 c 128
 216.333333333 388.666666667 204.333333333 392 187 392 c 256
 169.666666667 392 155.833333333 385.666666667 145.5 373 c 128
 135.166666667 360.333333333 128.5 346.833333333 125.5 332.5 c 128
 122.5 318.166666667 121 307.333333333 121 300 c 0
 121 286.666666667 124.166666667 275.5 130.5 266.5 c 128
 136.833333333 257.5 146.333333333 253 159 253 c 0
 176.333333333 255.666666667 191.333333333 263.666666667 204 277 c 128
 216.666666667 290.333333333 225 305.666666667 229 323 c 0
196 125 m 0
 197.333333333 129.666666667 198.333333333 135.333333333 199 142 c 128
 199.666666667 148.666666667 200 154.333333333 200 159 c 0
 200 175.666666667 196.333333333 188.333333333 189 197 c 128
 181.666666667 205.666666667 169.333333333 210 152 210 c 0
 132 210 115.833333333 202 103.5 186 c 128
 91.1666666667 170 82.3333333333 149.666666667 77 125 c 0
 75 117 74 109.666666667 74 103 c 0
 74 72.3333333333 89.6666666667 57 121 57 c 0
 143 57 159.666666667 63 171 75 c 128
 182.333333333 87 190.666666667 103.666666667 196 125 c 0
EndSplineSet
EndChar

StartChar: nine.taml
Encoding: 28 -1 28
Width: 435
Flags: HW
LayerCount: 2
Fore
SplineSet
385 280 m 0
 371.666666667 194.666666667 341 128 293 80 c 0
 237.666666667 25.3333333333 160.666666667 -2 62 -2 c 0
 38 -2 26 6.33333333333 26 23 c 0
 26 31.6666666667 30.3333333333 39.1666666667 39 45.5 c 128
 47.6666666667 51.8333333333 60 55 76 55 c 0
 129.333333333 55 175 67 213 91 c 0
 245 111 268.666666667 137.666666667 284 171 c 1
 253.333333333 151.666666667 220.333333333 142 185 142 c 0
 147 142 114.5 152.833333333 87.5 174.5 c 128
 60.5 196.166666667 47 223 47 255 c 0
 47 262.333333333 48 270 50 278 c 0
 60.6666666667 330.666666667 78.3333333333 370.333333333 103 397 c 0
 133 430.333333333 176.666666667 447 234 447 c 0
 290 447 329.833333333 437.333333333 353.5 418 c 128
 377.166666667 398.666666667 389 368.333333333 389 327 c 0
 389 320.333333333 388.5 312.166666667 387.5 302.5 c 128
 386.5 292.833333333 385.666666667 285.333333333 385 280 c 0
320 305 m 0
 321.333333333 314.333333333 322 320.666666667 322 324 c 0
 322 344 316.333333333 360 305 372 c 128
 293.666666667 384 280.666666667 390 266 390 c 0
 240 390 220.833333333 382.333333333 208.5 367 c 128
 196.166666667 351.666666667 186.333333333 327.333333333 179 294 c 0
 177.666666667 288.666666667 177 281.333333333 177 272 c 0
 177 254 182.166666667 239.833333333 192.5 229.5 c 128
 202.833333333 219.166666667 216 213.333333333 232 212 c 0
 256 212 276 221.666666667 292 241 c 0
 305.333333333 257.666666667 314.666666667 279 320 305 c 0
EndSplineSet
EndChar

StartChar: colon.taml
Encoding: 29 -1 29
Width: 235
Flags: HW
LayerCount: 2
Fore
SplineSet
239 325 m 0
 235 305.666666667 224.5 289.5 207.5 276.5 c 128
 190.5 263.5 171.666666667 257 151 257 c 0
 133.666666667 257 119.5 262.166666667 108.5 272.5 c 128
 97.5 282.833333333 92 296 92 312 c 0
 92 317.333333333 92.3333333333 321.666666667 93 325 c 0
 97 344.333333333 107.666666667 360.666666667 125 374 c 128
 142.333333333 387.333333333 160.666666667 394 180 394 c 0
 197.333333333 394 211.666666667 388.666666667 223 378 c 128
 234.333333333 367.333333333 240 353.666666667 240 337 c 0
 240 331.666666667 239.666666667 327.666666667 239 325 c 0
183 59 m 0
 178.333333333 39.6666666667 167.333333333 23.3333333333 150 10 c 128
 132.666666667 -3.33333333333 114 -10 94 -10 c 0
 77.3333333333 -10 63.3333333333 -5 52 5 c 128
 40.6666666667 15 35 28.3333333333 35 45 c 0
 35 47.6666666667 36.1666666667 55.3333333333 38.5 68 c 128
 40.8333333333 80.6666666667 50.5 93.6666666667 67.5 107 c 128
 84.5 120.333333333 103 127 123 127 c 0
 141 127 155.666666667 121.666666667 167 111 c 128
 178.333333333 100.333333333 184 86.6666666667 184 70 c 0
 184 65.3333333333 183.666666667 61.6666666667 183 59 c 0
EndSplineSet
EndChar

StartChar: semicolon.taml
Encoding: 30 -1 30
Width: 235
Flags: HW
LayerCount: 2
Fore
SplineSet
233 325 m 0
 229 305.666666667 218.166666667 289.166666667 200.5 275.5 c 128
 182.833333333 261.833333333 164 255 144 255 c 0
 126.666666667 255 112.666666667 260 102 270 c 128
 91.3333333333 280 86 294 86 312 c 0
 86 317.333333333 86.3333333333 321.666666667 87 325 c 0
 91 343 101.833333333 359 119.5 373 c 128
 137.166666667 387 155.333333333 394 174 394 c 0
 191.333333333 394 205.666666667 388.666666667 217 378 c 128
 228.333333333 367.333333333 234 353.666666667 234 337 c 0
 234 331.666666667 233.666666667 327.666666667 233 325 c 0
172 38 m 0
 164 -1.33333333333 142.333333333 -35.3333333333 107 -64 c 0
 61 -101.333333333 21 -120 -13 -120 c 1
 -5 -85 l 1
 9.66666666667 -83.6666666667 30.6666666667 -72.6666666667 58 -52 c 0
 90 -28 108.333333333 -4.33333333333 113 19 c 1
 111 21 l 1
 106.333333333 21 98.6666666667 17.8333333333 88 11.5 c 128
 77.3333333333 5.16666666667 69 2 63 2 c 0
 52.3333333333 2 42.3333333333 7.83333333333 33 19.5 c 128
 23.6666666667 31.1666666667 19 44.3333333333 19 59 c 0
 19 63.6666666667 19.3333333333 67.3333333333 20 70 c 0
 23.3333333333 87.3333333333 33.3333333333 102.666666667 50 116 c 128
 66.6666666667 129.333333333 84 136 102 136 c 0
 124.666666667 136 142.333333333 128.333333333 155 113 c 128
 167.666666667 97.6666666667 174 79.3333333333 174 58 c 0
 174 54 173.333333333 47.3333333333 172 38 c 0
EndSplineSet
EndChar

StartChar: less.taml
Encoding: 31 -1 31
Width: 527
Flags: HW
LayerCount: 2
Fore
SplineSet
436 -6 m 1
 50 174 l 1
 62 231 l 1
 524 410 l 1
 509 340 l 1
 156 202 l 1
 451 64 l 1
 436 -6 l 1
EndSplineSet
EndChar

StartChar: equal.taml
Encoding: 32 -1 32
Width: 564
Flags: HW
LayerCount: 2
Fore
SplineSet
556 293 m 1
 132 293 l 1
 146 359 l 1
 570 359 l 1
 556 293 l 1
525 147 m 1
 101 147 l 1
 115 213 l 1
 539 213 l 1
 525 147 l 1
EndSplineSet
EndChar

StartChar: greater.taml
Encoding: 33 -1 33
Width: 527
Flags: HW
LayerCount: 2
Fore
SplineSet
474 174 m 1
 12 -6 l 1
 27 64 l 1
 380 202 l 1
 85 340 l 1
 100 410 l 1
 486 231 l 1
 474 174 l 1
EndSplineSet
EndChar

StartChar: question.taml
Encoding: 34 -1 34
Width: 398
Flags: HW
LayerCount: 2
Fore
SplineSet
385 313 m 0
 381 295 369 272.666666667 349 246 c 0
 333 224.666666667 315.333333333 205 296 187 c 0
 268 161.666666667 247.333333333 140 234 122 c 0
 217.333333333 99.3333333333 202.666666667 71 190 37 c 1
 157 37 l 1
 161 56.3333333333 167.666666667 77.1666666667 177 99.5 c 128
 186.333333333 121.833333333 196.666666667 142 208 160 c 2
 242 210 l 2
 254 230 264 248.333333333 272 265 c 0
 283.333333333 288.333333333 290.166666667 305.333333333 292.5 316 c 128
 294.833333333 326.666666667 296 336.333333333 296 345 c 0
 296 363 291 378.166666667 281 390.5 c 128
 271 402.833333333 255.333333333 409 234 409 c 0
 218.666666667 409 203.5 405.333333333 188.5 398 c 128
 173.5 390.666666667 164.666666667 381.666666667 162 371 c 0
 160.666666667 365.666666667 162.333333333 359.333333333 167 352 c 0
 177.666666667 335.333333333 182 322.333333333 180 313 c 0
 177.333333333 303 171.833333333 293.833333333 163.5 285.5 c 128
 155.166666667 277.166666667 144 273 130 273 c 0
 103.333333333 273 90 285.666666667 90 311 c 0
 90 315.666666667 90.6666666667 322 92 330 c 0
 100 368.666666667 122.666666667 399.333333333 160 422 c 0
 191.333333333 441.333333333 224.333333333 451 259 451 c 0
 282.333333333 451 305 446.166666667 327 436.5 c 128
 349 426.833333333 364.333333333 416 373 404 c 0
 384.333333333 384.666666667 390 366.666666667 390 350 c 0
 390 343.333333333 389.333333333 336.666666667 388 330 c 128
 386.666666667 323.333333333 385.666666667 317.666666667 385 313 c 0
211 -46 m 0
 207.666666667 -62 199.666666667 -74.1666666667 187 -82.5 c 128
 174.333333333 -90.8333333333 161.333333333 -95 148 -95 c 0
 137.333333333 -95 127.333333333 -91.6666666667 118 -85 c 128
 108.666666667 -78.3333333333 104 -68.6666666667 104 -56 c 0
 104 -52 104.833333333 -45.8333333333 106.5 -37.5 c 128
 108.166666667 -29.1666666667 115.333333333 -20 128 -10 c 128
 140.666666667 0 154.333333333 5 169 5 c 0
 181.666666667 5 192 1 200 -7 c 128
 208 -15 212 -24.6666666667 212 -36 c 0
 212 -40.6666666667 211.666666667 -44 211 -46 c 0
EndSplineSet
EndChar

StartChar: u0952
Encoding: 38 2386 38
Width: 10
Flags: HW
LayerCount: 2
Fore
SplineSet
-183 -367 m 1
 -632 -365 l 1
 -662 -292 l 1
 -214 -293 l 1
 -183 -367 l 1
2 0 m 1
 0 2 l 1
 2 0 l 1
2 0 m 1
 0 2 l 1
 2 0 l 1
EndSplineSet
EndChar

StartChar: u0B83
Encoding: 40 2947 40
Width: 611
Flags: HW
LayerCount: 2
Fore
SplineSet
452 364 m 0
 447.333333333 340.666666667 434.333333333 320.666666667 413 304 c 128
 391.666666667 287.333333333 368.666666667 279 344 279 c 0
 322 279 304.166666667 285.5 290.5 298.5 c 128
 276.833333333 311.5 270 327.666666667 270 347 c 0
 270 350.333333333 270.666666667 356 272 364 c 0
 277.333333333 387.333333333 290.666666667 407.5 312 424.5 c 128
 333.333333333 441.5 356.333333333 450 381 450 c 0
 402.333333333 450 419.833333333 443.5 433.5 430.5 c 128
 447.166666667 417.5 454 401 454 381 c 0
 454 377.666666667 453.333333333 372 452 364 c 0
519 85 m 0
 514.333333333 61.6666666667 501.333333333 41.6666666667 480 25 c 128
 458.666666667 8.33333333333 435.666666667 0 411 0 c 0
 389 0 371.166666667 6.5 357.5 19.5 c 128
 343.833333333 32.5 337 48.6666666667 337 68 c 0
 337 71.3333333333 337.666666667 77 339 85 c 0
 344.333333333 109 357.333333333 129.333333333 378 146 c 128
 398.666666667 162.666666667 421.666666667 171 447 171 c 0
 468.333333333 171 486 164.333333333 500 151 c 128
 514 137.666666667 521 121 521 101 c 0
 521 98.3333333333 520.333333333 93 519 85 c 0
249 85 m 0
 244.333333333 61.6666666667 231.333333333 41.6666666667 210 25 c 128
 188.666666667 8.33333333333 165.666666667 0 141 0 c 0
 119 0 101.166666667 6.5 87.5 19.5 c 128
 73.8333333333 32.5 67 48.6666666667 67 68 c 0
 67 71.3333333333 67.6666666667 77 69 85 c 0
 74.3333333333 109 87.3333333333 129.333333333 108 146 c 128
 128.666666667 162.666666667 151.666666667 171 177 171 c 0
 198.333333333 171 216 164.333333333 230 151 c 128
 244 137.666666667 251 121 251 101 c 0
 251 98.3333333333 250.333333333 93 249 85 c 0
EndSplineSet
EndChar

StartChar: u0B85
Encoding: 41 2949 41
Width: 908
Flags: HW
AnchorPoint: "V" 455.5 455 basechar 0
AnchorPoint: "N" 455.5 -32.6259 basechar 0
LayerCount: 2
Fore
SplineSet
886 425 m 0
 863.333333333 395.666666667 847.666666667 360.333333333 839 319 c 2
 781 48 l 2
 771.666666667 2 750 -34 716 -60 c 0
 687.333333333 -82 655.666666667 -93 621 -93 c 0
 601.666666667 -93 592 -87.6666666667 592 -77 c 0
 592 -71.6666666667 596.666666667 -63 606 -51 c 128
 615.333333333 -39 624.5 -24 633.5 -6 c 128
 642.5 12 649 31 653 51 c 2
 669 125 l 1
 656.333333333 119 642.333333333 114.166666667 627 110.5 c 128
 611.666666667 106.833333333 595 105 577 105 c 1
 545.666666667 60.3333333333 498.333333333 22.5 435 -8.5 c 128
 371.666666667 -39.5 302.666666667 -55 228 -55 c 0
 147.333333333 -55 88 -35 50 5 c 0
 24.6666666667 31.6666666667 12 62 12 96 c 0
 12 101.333333333 12.3333333333 104.666666667 13 106 c 0
 17 124.666666667 26.1666666667 138.833333333 40.5 148.5 c 128
 54.8333333333 158.166666667 72.3333333333 163 93 163 c 2
 473 163 l 1
 479 175 485.666666667 192.666666667 493 216 c 0
 498.333333333 232.666666667 502.666666667 249.166666667 506 265.5 c 128
 509.333333333 281.833333333 511 297.333333333 511 312 c 0
 511 340 504.833333333 360.5 492.5 373.5 c 128
 480.166666667 386.5 463.666666667 393 443 393 c 2
 427 392 l 1
 437.666666667 385.333333333 446.333333333 377 453 367 c 128
 459.666666667 357 463 344 463 328 c 0
 463 320 461.833333333 309.833333333 459.5 297.5 c 128
 457.166666667 285.166666667 451.333333333 271.666666667 442 257 c 0
 430.666666667 238.333333333 416.666666667 224.333333333 400 215 c 0
 380.666666667 202.333333333 354 196 320 196 c 0
 297.333333333 196 279.5 202.833333333 266.5 216.5 c 128
 253.5 230.166666667 247 247.666666667 247 269 c 0
 247 275.666666667 248 283 250 291 c 0
 260.666666667 343.666666667 286.5 383.5 327.5 410.5 c 128
 368.5 437.5 417 451 473 451 c 0
 583 451 638 401.333333333 638 302 c 0
 638 283.333333333 635.333333333 261.333333333 630 236 c 0
 628 227.333333333 625 215.5 621 200.5 c 128
 617 185.5 613.333333333 173 610 163 c 1
 637.333333333 163 661.333333333 170.666666667 682 186 c 1
 710 322 l 2
 720 368.666666667 742 405 776 431 c 0
 805.333333333 453.666666667 837 465 871 465 c 0
 889.666666667 465 899 460 899 450 c 0
 899 442.666666667 894.666666667 434.333333333 886 425 c 0
368 302 m 0
 369.333333333 310 370 316.666666667 370 322 c 0
 370 331.333333333 368.666666667 338.833333333 366 344.5 c 128
 363.333333333 350.166666667 358.666666667 353.333333333 352 354 c 0
 342 351.333333333 333 344 325 332 c 128
 317 320 311.333333333 307 308 293 c 0
 307.333333333 290.333333333 307 286.333333333 307 281 c 0
 307 263 314.333333333 254 329 254 c 0
 338.333333333 254 346.333333333 258.333333333 353 267 c 128
 359.666666667 275.666666667 364.666666667 287.333333333 368 302 c 0
436 105 m 1
 121 105 l 2
 115 105 110 103 106 99 c 128
 102 95 99.3333333333 90 98 84 c 0
 94 64 101.666666667 46.3333333333 121 31 c 0
 145 12.3333333333 182.666666667 3 234 3 c 0
 276 3 315.666666667 13.6666666667 353 35 c 0
 383 52.3333333333 410.666666667 75.6666666667 436 105 c 1
EndSplineSet
EndChar

StartChar: u0B86
Encoding: 42 2950 42
Width: 1051
Flags: HW
AnchorPoint: "V" 481.5 455 basechar 0
AnchorPoint: "N" 481.5 -189.36 basechar 0
LayerCount: 2
Fore
SplineSet
955 65 m 0
 937.666666667 -16.3333333333 892.333333333 -80.3333333333 819 -127 c 0
 753 -169 678 -190 594 -190 c 0
 530 -190 477.333333333 -183 436 -169 c 0
 389.333333333 -153 366 -130 366 -100 c 0
 366 -94.6666666667 366.333333333 -90.3333333333 367 -87 c 0
 371 -66.3333333333 382.666666667 -50.5 402 -39.5 c 128
 421.333333333 -28.5 444 -23 470 -23 c 0
 486 -23 500.833333333 -24.1666666667 514.5 -26.5 c 128
 528.166666667 -28.8333333333 540.666666667 -32.6666666667 552 -38 c 0
 556 -41.3333333333 558 -45 558 -49 c 0
 558 -55.6666666667 554.833333333 -61.8333333333 548.5 -67.5 c 128
 542.166666667 -73.1666666667 535 -76 527 -76 c 0
 524.333333333 -76 520.666666667 -75.1666666667 516 -73.5 c 128
 511.333333333 -71.8333333333 502.833333333 -70.1666666667 490.5 -68.5 c 128
 478.166666667 -66.8333333333 468 -66 460 -66 c 0
 446 -66 434.666666667 -67.1666666667 426 -69.5 c 128
 417.333333333 -71.8333333333 412.333333333 -76.3333333333 411 -83 c 0
 407 -102.333333333 421.333333333 -116 454 -124 c 0
 478 -130 510.666666667 -133 552 -133 c 0
 636 -133 704.666666667 -114.333333333 758 -77 c 0
 806 -43.6666666667 835.666666667 -0.666666666667 847 52 c 0
 848.333333333 61.3333333333 849 67.6666666667 849 71 c 0
 849 100.333333333 838.333333333 115 817 115 c 0
 809 115 801.333333333 112.333333333 794 107 c 1
 781 46 l 2
 770.333333333 -1.33333333333 748.666666667 -37.6666666667 716 -63 c 0
 687.333333333 -85 655.666666667 -96 621 -96 c 0
 601.666666667 -96 592 -90.3333333333 592 -79 c 0
 592 -73 596 -65.3333333333 604 -56 c 0
 627.333333333 -28 643.333333333 7 652 49 c 2
 668 123 l 1
 656.666666667 117 643 112.166666667 627 108.5 c 128
 611 104.833333333 594.333333333 103 577 103 c 1
 545.666666667 58.3333333333 499.333333333 21 438 -9 c 0
 371.333333333 -41.6666666667 301.333333333 -58 228 -58 c 0
 160 -58 107 -43.3333333333 69 -14 c 0
 23 22 4 61.3333333333 12 104 c 0
 16 122.666666667 25.1666666667 136.833333333 39.5 146.5 c 128
 53.8333333333 156.166666667 71.3333333333 161 92 161 c 2
 472 161 l 1
 478.666666667 174.333333333 485.666666667 192 493 214 c 0
 497.666666667 228 501.833333333 244 505.5 262 c 128
 509.166666667 280 511 296.333333333 511 311 c 0
 511 338.333333333 504.666666667 358.666666667 492 372 c 128
 479.333333333 385.333333333 462.666666667 392 442 392 c 2
 427 391 l 1
 437.666666667 385 446.333333333 376.833333333 453 366.5 c 128
 459.666666667 356.166666667 463 343 463 327 c 0
 463 319 462 310 460 300 c 0
 456 283.333333333 450 268.666666667 442 256 c 0
 430.666666667 238 416.333333333 224 399 214 c 0
 379.666666667 200.666666667 353 194 319 194 c 0
 295.666666667 194 277.833333333 200.833333333 265.5 214.5 c 128
 253.166666667 228.166666667 247 245.666666667 247 267 c 0
 247 274.333333333 248 282 250 290 c 0
 260.666666667 342.666666667 286.5 382.5 327.5 409.5 c 128
 368.5 436.5 417 450 473 450 c 0
 527.666666667 450 568.833333333 437.333333333 596.5 412 c 128
 624.166666667 386.666666667 638 350 638 302 c 0
 638 282.666666667 635.333333333 260.333333333 630 235 c 0
 628 223 626.166666667 214 624.5 208 c 128
 622.833333333 202 617.666666667 186.333333333 609 161 c 1
 635 161 659 169 681 185 c 1
 710 321 l 2
 720 367.666666667 742 404.333333333 776 431 c 0
 804.666666667 453.666666667 836.333333333 465 871 465 c 0
 889 465 898 459.666666667 898 449 c 0
 898 442.333333333 894 434.333333333 886 425 c 0
 863.333333333 396.333333333 847.666666667 360.666666667 839 318 c 2
 807 169 l 1
 826.333333333 179.666666667 847.333333333 185 870 185 c 0
 895.333333333 185 916.5 177.666666667 933.5 163 c 128
 950.5 148.333333333 959 126.333333333 959 97 c 0
 959 91.6666666667 957.666666667 81 955 65 c 0
368 301 m 0
 369.333333333 309 370 315.666666667 370 321 c 0
 370 330.333333333 368.666666667 337.833333333 366 343.5 c 128
 363.333333333 349.166666667 358.666666667 352.333333333 352 353 c 0
 342.666666667 351 333.666666667 343.833333333 325 331.5 c 128
 316.333333333 319.166666667 311.166666667 308.833333333 309.5 300.5 c 128
 307.833333333 292.166666667 307 285.333333333 307 280 c 0
 307 271.333333333 308.666666667 264.5 312 259.5 c 128
 315.333333333 254.5 321 252 329 252 c 0
 339 252 347.166666667 256.333333333 353.5 265 c 128
 359.833333333 273.666666667 364.666666667 285.666666667 368 301 c 0
436 103 m 1
 121 103 l 2
 115.666666667 103 110.833333333 101 106.5 97 c 128
 102.166666667 93 99 88 97 82 c 0
 93 62 100.666666667 44.3333333333 120 29 c 0
 144.666666667 9.66666666667 182.333333333 0 233 0 c 0
 274.333333333 0 314 11 352 33 c 0
 382.666666667 50.3333333333 410.666666667 73.6666666667 436 103 c 1
EndSplineSet
EndChar

StartChar: u0B87
Encoding: 43 2951 43
Width: 756
Flags: HW
AnchorPoint: "V" 356 614.452 basechar 0
AnchorPoint: "N" 356 -160 basechar 0
LayerCount: 2
Fore
SplineSet
730 373 m 0
 725.333333333 350.333333333 718.666666667 326.666666667 710 302 c 128
 701.333333333 277.333333333 691.333333333 253 680 229 c 0
 678.666666667 220.333333333 679.166666667 212.333333333 681.5 205 c 128
 683.833333333 197.666666667 685 192.666666667 685 190 c 0
 685 186 684.5 181.166666667 683.5 175.5 c 128
 682.5 169.833333333 677.833333333 163.5 669.5 156.5 c 128
 661.166666667 149.5 652 146 642 146 c 0
 632.666666667 146 625.5 149.333333333 620.5 156 c 128
 615.5 162.666666667 613 171.333333333 613 182 c 0
 613 186.666666667 614.666666667 193.5 618 202.5 c 128
 621.333333333 211.5 625.333333333 223.166666667 630 237.5 c 128
 634.666666667 251.833333333 638.5 266.333333333 641.5 281 c 128
 644.5 295.666666667 646 312 646 330 c 0
 646 382.666666667 630.333333333 425 599 457 c 0
 565.666666667 491 518.666666667 508 458 508 c 0
 369.333333333 508 293.666666667 478.666666667 231 420 c 0
 175.666666667 368 139.666666667 303 123 225 c 0
 119 205 117 186 117 168 c 0
 117 144 120 121.333333333 126 100 c 1
 162 116 203.5 127.5 250.5 134.5 c 128
 297.5 141.5 347 145 399 145 c 1
 407.666666667 163 414.833333333 180.833333333 420.5 198.5 c 128
 426.166666667 216.166666667 431 233.666666667 435 251 c 0
 437 257.666666667 438.333333333 265 439 273 c 128
 439.666666667 281 440 289.333333333 440 298 c 0
 440 322 435.666666667 340.333333333 427 353 c 0
 416.333333333 368.333333333 400.666666667 376 380 376 c 2
 365 376 l 1
 374.333333333 370 381.833333333 362 387.5 352 c 128
 393.166666667 342 396 329 396 313 c 0
 396 305 394.833333333 294.666666667 392.5 282 c 128
 390.166666667 269.333333333 383.666666667 255 373 239 c 0
 360.333333333 220.333333333 346 206.333333333 330 197 c 0
 310.666666667 184.333333333 284 178 250 178 c 0
 227.333333333 178 210 184.666666667 198 198 c 128
 186 211.333333333 180 228.333333333 180 249 c 0
 180 256.333333333 181 264.666666667 183 274 c 0
 194.333333333 324.666666667 220.666666667 365 262 395 c 0
 300 422.333333333 343.333333333 436 392 436 c 0
 449.333333333 436 492 426 520 406 c 0
 552 383.333333333 568 347 568 297 c 0
 568 279.666666667 565.333333333 257.666666667 560 231 c 0
 552 193.666666667 537.333333333 155.666666667 516 117 c 1
 537.333333333 106.333333333 554 92.8333333333 566 76.5 c 128
 578 60.1666666667 584 40.6666666667 584 18 c 0
 584 12 582.666666667 1.66666666667 580 -13 c 0
 570.666666667 -57.6666666667 547.333333333 -92.6666666667 510 -118 c 0
 469.333333333 -146 414.666666667 -160 346 -160 c 0
 305.333333333 -160 267 -150.666666667 231 -132 c 1
 181 -150.666666667 131 -160 81 -160 c 0
 46.3333333333 -160 20.1666666667 -152.833333333 2.5 -138.5 c 128
 -15.1666666667 -124.166666667 -24 -104.666666667 -24 -80 c 0
 -24 -72 -23 -63.3333333333 -21 -54 c 0
 -11 -6 17.6666666667 34.3333333333 65 67 c 1
 60.3333333333 83 57 100.333333333 55 119 c 128
 53 137.666666667 52 155.666666667 52 173 c 0
 52 205 54.3333333333 232.666666667 59 256 c 0
 69.6666666667 306.666666667 86.3333333333 354 109 398 c 0
 143 464.666666667 187.666666667 518 243 558 c 0
 313.666666667 609.333333333 398 635 496 635 c 0
 566.666666667 635 624.333333333 616.833333333 669 580.5 c 128
 713.666666667 544.166666667 736 494 736 430 c 0
 736 412 734 393 730 373 c 0
302 285 m 0
 302 287.666666667 302.5 292 303.5 298 c 128
 304.5 304 305 308.666666667 305 312 c 0
 305 328.666666667 300 337 290 337 c 0
 280 335 270.166666667 327.666666667 260.5 315 c 128
 250.833333333 302.333333333 245 291 243 281 c 128
 241 271 240 264.333333333 240 261 c 0
 240 244.333333333 246.333333333 236 259 236 c 0
 269 236 277.833333333 240.5 285.5 249.5 c 128
 293.166666667 258.5 298.666666667 270.333333333 302 285 c 0
487 -26 m 0
 488.333333333 -19.3333333333 489 -14.3333333333 489 -11 c 0
 489 7 481.666666667 25 467 43 c 1
 445 15.6666666667 421 -9.66666666667 395 -33 c 128
 369 -56.3333333333 341 -76.6666666667 311 -94 c 1
 327.666666667 -97.3333333333 345 -99 363 -99 c 0
 398.333333333 -99 426.833333333 -92 448.5 -78 c 128
 470.166666667 -64 483 -46.6666666667 487 -26 c 0
370 89 m 1
 360 91 348.333333333 92 335 92 c 0
 305 92 273.833333333 87.8333333333 241.5 79.5 c 128
 209.166666667 71.1666666667 178 58.6666666667 148 42 c 1
 159.333333333 22 173.333333333 2.66666666667 190 -16 c 0
 204.666666667 -32 220.666666667 -46.6666666667 238 -60 c 1
 264 -41.3333333333 288 -19.5 310 5.5 c 128
 332 30.5 352 58.3333333333 370 89 c 1
173 -95 m 1
 157 -81.6666666667 141.833333333 -66.1666666667 127.5 -48.5 c 128
 113.166666667 -30.8333333333 102 -14.3333333333 94 1 c 1
 77.3333333333 -16.3333333333 67.8333333333 -31.5 65.5 -44.5 c 128
 63.1666666667 -57.5 62 -65.6666666667 62 -69 c 0
 62 -80.3333333333 65.1666666667 -89.5 71.5 -96.5 c 128
 77.8333333333 -103.5 87.6666666667 -107 101 -107 c 0
 115.666666667 -107 128.666666667 -105.833333333 140 -103.5 c 128
 151.333333333 -101.166666667 162.333333333 -98.3333333333 173 -95 c 1
EndSplineSet
EndChar

StartChar: u0B88
Encoding: 44 2952 44
Width: 627
Flags: HW
AnchorPoint: "V" 277.5 455 basechar 0
AnchorPoint: "N" 277.5 -2 basechar 0
LayerCount: 2
Fore
SplineSet
563 217 m 0
 560.333333333 202.333333333 551.666666667 189.333333333 537 178 c 128
 522.333333333 166.666666667 507.333333333 161 492 161 c 0
 478 161 466.5 165.5 457.5 174.5 c 128
 448.5 183.5 444 194.666666667 444 208 c 0
 444 212 444.333333333 215 445 217 c 0
 448.333333333 231.666666667 457 244.666666667 471 256 c 128
 485 267.333333333 500 273 516 273 c 0
 529.333333333 273 540.666666667 268.333333333 550 259 c 128
 559.333333333 249.666666667 564 238.666666667 564 226 c 0
 564 222 563.666666667 219 563 217 c 0
499 393 m 0
 479 385 462.333333333 370.333333333 449 349 c 0
 438.333333333 331.666666667 428.333333333 308 419 278 c 0
 415 264 409.5 243.5 402.5 216.5 c 128
 395.5 189.5 389.333333333 163 384 137 c 0
 374 90.3333333333 352.666666667 54.6666666667 320 30 c 0
 291.333333333 8.66666666667 259.666666667 -2 225 -2 c 0
 205.666666667 -2 196 3.33333333333 196 14 c 0
 196 20 200 27.6666666667 208 37 c 0
 231.333333333 65.6666666667 247.333333333 100 256 140 c 2
 291 282 l 2
 297 302.666666667 303.833333333 321 311.5 337 c 128
 319.166666667 353 329 369 341 385 c 1
 319 389.666666667 295 392 269 392 c 0
 234.333333333 392 207.333333333 383.666666667 188 367 c 128
 168.666666667 350.333333333 154.666666667 322.333333333 146 283 c 0
 131.333333333 213 118.666666667 162.333333333 108 131 c 0
 93.3333333333 87.6666666667 74 50.6666666667 50 20 c 0
 44 12 37.3333333333 6 30 2 c 128
 22.6666666667 -2 16 -4 10 -4 c 0
 -2.66666666667 -4 -9 1.66666666667 -9 13 c 0
 -9 22.3333333333 -4.33333333333 32.6666666667 5 44 c 0
 25.6666666667 70 42.6666666667 106.333333333 56 153 c 0
 61.3333333333 171.666666667 72.6666666667 221.333333333 90 302 c 0
 98.6666666667 342.666666667 114.666666667 374.666666667 138 398 c 0
 172 432 220.333333333 449 283 449 c 0
 308.333333333 449 332.666666667 447 356 443 c 0
 410.666666667 433.666666667 438.333333333 429 439 429 c 0
 455.666666667 429 473.666666667 433.666666667 493 443 c 0
 504.333333333 449 513.666666667 452 521 452 c 0
 533 452 539 446.333333333 539 435 c 0
 539 427.666666667 535.666666667 420 529 412 c 128
 522.333333333 404 512.333333333 397.666666667 499 393 c 0
263 217 m 0
 260.333333333 202.333333333 251.666666667 189.333333333 237 178 c 128
 222.333333333 166.666666667 207.333333333 161 192 161 c 0
 178 161 166.5 165.5 157.5 174.5 c 128
 148.5 183.5 144 194.666666667 144 208 c 0
 144 212 144.333333333 215 145 217 c 0
 148.333333333 231.666666667 157 244.666666667 171 256 c 128
 185 267.333333333 200 273 216 273 c 0
 229.333333333 273 240.666666667 268.333333333 250 259 c 128
 259.333333333 249.666666667 264 238.666666667 264 226 c 0
 264 222 263.666666667 219 263 217 c 0
EndSplineSet
EndChar

StartChar: u0B89
Encoding: 45 2953 45
Width: 965
Flags: HW
AnchorPoint: "V" 446.5 455 basechar 0
AnchorPoint: "N" 446.5 5.86859 basechar 0
LayerCount: 2
Fore
SplineSet
854 24 m 0
 834.666666667 15.3333333333 814.833333333 9.16666666667 794.5 5.5 c 128
 774.166666667 1.83333333333 749.333333333 0 720 0 c 0
 697.333333333 0 646 1.5 566 4.5 c 128
 486 7.5 430.666666667 9 400 9 c 0
 352 9 299 7.66666666667 241 5 c 128
 183 2.33333333333 121.333333333 -0.333333333333 56 -3 c 0
 40.6666666667 -3 28.6666666667 -0.333333333333 20 5 c 0
 7.33333333333 12.3333333333 1 25 1 43 c 0
 1 51 1.66666666667 57.3333333333 3 62 c 0
 10.3333333333 96 58 116.333333333 146 123 c 0
 177.333333333 124.333333333 209 126 241 128 c 0
 287.666666667 134.666666667 323.666666667 153 349 183 c 0
 369 206.333333333 383.333333333 237.666666667 392 277 c 0
 393.333333333 281.666666667 394.333333333 287.333333333 395 294 c 128
 395.666666667 300.666666667 396 306.666666667 396 312 c 0
 396 337.333333333 388.833333333 357.166666667 374.5 371.5 c 128
 360.166666667 385.833333333 340 393 314 393 c 0
 295.333333333 393 277.166666667 391.166666667 259.5 387.5 c 128
 241.833333333 383.833333333 225 378 209 370 c 1
 220 371 l 2
 240.666666667 371 257.833333333 364.5 271.5 351.5 c 128
 285.166666667 338.5 292 321.333333333 292 300 c 0
 292 290.666666667 291.333333333 283.666666667 290 279 c 0
 281.333333333 237 267.333333333 205.666666667 248 185 c 0
 224.666666667 159.666666667 191.666666667 147 149 147 c 0
 98.3333333333 147 73 175.333333333 73 232 c 0
 73 246.666666667 75 263 79 281 c 0
 89 327 114.333333333 365.666666667 155 397 c 0
 201 432.333333333 257 450 323 450 c 0
 394.333333333 450 447.333333333 435.333333333 482 406 c 0
 510.666666667 381.333333333 525 348.666666667 525 308 c 0
 525 301.333333333 524.5 294.5 523.5 287.5 c 128
 522.5 280.5 521.666666667 275 521 271 c 0
 513 234.333333333 500.666666667 203.333333333 484 178 c 0
 465.333333333 150 440 127.666666667 408 111 c 0
 354.666666667 82.3333333333 275.666666667 68 171 68 c 0
 161 68 151.833333333 67.8333333333 143.5 67.5 c 128
 135.166666667 67.1666666667 130 64 128 58 c 1
 148 57.3333333333 177.333333333 58 216 60 c 0
 321.333333333 64.6666666667 386 67 410 67 c 0
 445.333333333 67 491 65.8333333333 547 63.5 c 128
 603 61.1666666667 661 59 721 57 c 0
 743.666666667 57 762.833333333 58.6666666667 778.5 62 c 128
 794.166666667 65.3333333333 809.333333333 70.3333333333 824 77 c 128
 838.666666667 83.6666666667 852 87 864 87 c 0
 882.666666667 87 892 79.6666666667 892 65 c 0
 892 57 888.833333333 49.3333333333 882.5 42 c 128
 876.166666667 34.6666666667 866.666666667 28.6666666667 854 24 c 0
183 264 m 0
 184.333333333 270.666666667 185 275.333333333 185 278 c 0
 185 291.333333333 178.333333333 298 165 298 c 0
 156.333333333 298 149.666666667 293 145 283 c 0
 143.666666667 280.333333333 141.333333333 272.666666667 138 260 c 0
 136 248 135 238 135 230 c 0
 135 216 139.333333333 209 148 209 c 0
 158.666666667 209 166.666666667 214.333333333 172 225 c 0
 175.333333333 231.666666667 179 244.666666667 183 264 c 0
EndSplineSet
EndChar

StartChar: u0B8A
Encoding: 46 2954 46
Width: 1270
Flags: HW
AnchorPoint: "V" 630.5 455 basechar 0
AnchorPoint: "N" 630.5 5.33516 basechar 0
LayerCount: 2
Fore
SplineSet
1239 401 m 0
 1223.66666667 395 1210.66666667 383.333333333 1200 366 c 0
 1192.66666667 353.333333333 1185 334.666666667 1177 310 c 0
 1173.66666667 300 1169.5 284.833333333 1164.5 264.5 c 128
 1159.5 244.166666667 1154.33333333 221.666666667 1149 197 c 0
 1141 159.666666667 1122 130.666666667 1092 110 c 0
 1066 92 1038.33333333 83 1009 83 c 0
 1000.33333333 83 993 85 987 89 c 128
 981 93 978 98 978 104 c 0
 978 108 980 112.666666667 984 118 c 0
 1002 139.333333333 1014.66666667 166.333333333 1022 199 c 2
 1051 314 l 2
 1055 328.666666667 1059.33333333 341.833333333 1064 353.5 c 128
 1068.66666667 365.166666667 1075 376.666666667 1083 388 c 1
 1065 391.333333333 1045.66666667 393 1025 393 c 1
 1010.33333333 387 999.5 377.666666667 992.5 365 c 128
 985.5 352.333333333 978.333333333 334 971 310 c 0
 967.666666667 300 963.5 284.833333333 958.5 264.5 c 128
 953.5 244.166666667 948.333333333 221.666666667 943 197 c 0
 935 160.333333333 915.666666667 131.333333333 885 110 c 0
 859 92 831.666666667 83 803 83 c 0
 782.333333333 83 772 89.6666666667 772 103 c 0
 772 107.666666667 774 112.666666667 778 118 c 0
 795.333333333 138 807.666666667 165 815 199 c 2
 844 314 l 2
 846.666666667 322.666666667 849.166666667 330.5 851.5 337.5 c 128
 853.833333333 344.5 857 351 861 357 c 1
 854.333333333 366.333333333 843.5 374.666666667 828.5 382 c 128
 813.5 389.333333333 797.333333333 393 780 393 c 0
 754 393 729 386.166666667 705 372.5 c 128
 681 358.833333333 661 341 645 319 c 1
 658.333333333 323.666666667 672 326 686 326 c 0
 707.333333333 326 725.166666667 320.166666667 739.5 308.5 c 128
 753.833333333 296.833333333 761 279 761 255 c 0
 761 249 759.666666667 238.666666667 757 224 c 0
 747.666666667 181.333333333 733 149 713 127 c 0
 688.333333333 99.6666666667 655 86 613 86 c 0
 563 86 538 113.333333333 538 168 c 0
 538 179.333333333 538.333333333 188.166666667 539 194.5 c 128
 539.666666667 200.833333333 541.666666667 211.333333333 545 226 c 0
 559 292.666666667 589 346.666666667 635 388 c 128
 681 429.333333333 735 450 797 450 c 0
 821 450 842.166666667 446.333333333 860.5 439 c 128
 878.833333333 431.666666667 893 422.666666667 903 412 c 1
 918.333333333 424.666666667 936.666666667 434.166666667 958 440.5 c 128
 979.333333333 446.833333333 1004.66666667 450 1034 450 c 0
 1054.66666667 450 1076.16666667 448.333333333 1098.5 445 c 128
 1120.83333333 441.666666667 1145 438.333333333 1171 435 c 0
 1184.33333333 435 1198.66666667 438.333333333 1214 445 c 0
 1222 449 1229.33333333 451 1236 451 c 0
 1243.33333333 451 1249.66666667 448.666666667 1255 444 c 128
 1260.33333333 439.333333333 1263 434 1263 428 c 0
 1263 416.666666667 1255 407.666666667 1239 401 c 0
1121 24 m 0
 1101.66666667 15.3333333333 1081.83333333 9.16666666667 1061.5 5.5 c 128
 1041.16666667 1.83333333333 1016.33333333 0 987 0 c 0
 961.666666667 0 932.833333333 0.333333333333 900.5 1 c 128
 868.166666667 1.66666666667 802.833333333 3.16666666667 704.5 5.5 c 128
 606.166666667 7.83333333333 550.333333333 9 537 9 c 0
 484.333333333 9 414.833333333 7.66666666667 328.5 5 c 128
 242.166666667 2.33333333333 150.333333333 -0.333333333333 53 -3 c 0
 37.6666666667 -3 25.6666666667 -0.333333333333 17 5 c 0
 4.33333333333 12.3333333333 -2 25 -2 43 c 0
 -2 51 -1.33333333333 57.3333333333 0 62 c 0
 7.33333333333 96 55 116.333333333 143 123 c 0
 174.333333333 124.333333333 206 126 238 128 c 0
 284 134.666666667 320 153.333333333 346 184 c 0
 366 208 380.333333333 239 389 277 c 0
 390.333333333 281.666666667 391.333333333 287.333333333 392 294 c 128
 392.666666667 300.666666667 393 306.666666667 393 312 c 0
 393 337.333333333 385.833333333 357.166666667 371.5 371.5 c 128
 357.166666667 385.833333333 337 393 311 393 c 0
 292.333333333 393 274.166666667 391.166666667 256.5 387.5 c 128
 238.833333333 383.833333333 222 378 206 370 c 1
 217 371 l 2
 237.666666667 371 254.833333333 364.5 268.5 351.5 c 128
 282.166666667 338.5 289 321.333333333 289 300 c 0
 289 290.666666667 288.333333333 283.666666667 287 279 c 0
 278.333333333 237 264.333333333 205.666666667 245 185 c 0
 221.666666667 159.666666667 188.666666667 147 146 147 c 0
 95.3333333333 147 70 175.333333333 70 232 c 0
 70 246.666666667 72 263 76 281 c 0
 86 327 111.333333333 365.666666667 152 397 c 0
 198 432.333333333 254 450 320 450 c 0
 391.333333333 450 444.333333333 435.333333333 479 406 c 0
 507.666666667 381.333333333 522 348.666666667 522 308 c 0
 522 301.333333333 521.5 294.5 520.5 287.5 c 128
 519.5 280.5 518.666666667 275 518 271 c 0
 510 234.333333333 497.666666667 203.333333333 481 178 c 0
 462.333333333 150 437 127.666666667 405 111 c 0
 351.666666667 82.3333333333 272.666666667 68 168 68 c 0
 158 68 148.833333333 67.8333333333 140.5 67.5 c 128
 132.166666667 67.1666666667 127 64 125 58 c 1
 136 58 l 2
 176.666666667 58 232.666666667 58.8333333333 304 60.5 c 128
 375.333333333 62.1666666667 456.333333333 64.3333333333 547 67 c 0
 583 67 643 65.8333333333 727 63.5 c 128
 811 61.1666666667 898 59 988 57 c 0
 1010.66666667 57 1029.83333333 58.6666666667 1045.5 62 c 128
 1061.16666667 65.3333333333 1076.33333333 70.3333333333 1091 77 c 128
 1105.66666667 83.6666666667 1119 87 1131 87 c 0
 1149.66666667 87 1159 79.6666666667 1159 65 c 0
 1159 57 1155.83333333 49.3333333333 1149.5 42 c 128
 1143.16666667 34.6666666667 1133.66666667 28.6666666667 1121 24 c 0
645 206 m 0
 646.333333333 215.333333333 647 221.666666667 647 225 c 0
 647 236.333333333 641.333333333 242 630 242 c 0
 620 242 612.333333333 237 607 227 c 0
 605 222.333333333 602.666666667 214.166666667 600 202.5 c 128
 597.333333333 190.833333333 596 179.666666667 596 169 c 0
 596 156.333333333 600.333333333 150 609 150 c 0
 619.666666667 150 628 155.666666667 634 167 c 0
 637.333333333 173 641 186 645 206 c 0
180 264 m 0
 181.333333333 270.666666667 182 275.333333333 182 278 c 0
 182 291.333333333 175.333333333 298 162 298 c 0
 153.333333333 298 146.666666667 293 142 283 c 0
 140.666666667 280.333333333 138.333333333 272.666666667 135 260 c 0
 133 248 132 238 132 230 c 0
 132 216 136.333333333 209 145 209 c 0
 155 209 163 214.666666667 169 226 c 0
 172.333333333 232.666666667 176 245.333333333 180 264 c 0
EndSplineSet
EndChar

StartChar: u0B8E
Encoding: 47 2958 47
Width: 631
Flags: HW
AnchorPoint: "V" 328.5 455 basechar 0
AnchorPoint: "N" 328.5 -4 basechar 0
LayerCount: 2
Fore
SplineSet
599 393 m 0
 579 385 562.333333333 370.333333333 549 349 c 0
 538.333333333 331.666666667 528.333333333 307.666666667 519 277 c 0
 515 263 509.5 242.5 502.5 215.5 c 128
 495.5 188.5 489.333333333 162 484 136 c 0
 474 88.6666666667 452.333333333 52.6666666667 419 28 c 0
 390.333333333 6.66666666667 358.666666667 -4 324 -4 c 0
 304.666666667 -4 295 1.33333333333 295 12 c 0
 295 18 299 25.6666666667 307 35 c 0
 330.333333333 63.6666666667 346.333333333 98 355 138 c 0
 360.333333333 164 366 188.666666667 372 212 c 128
 378 235.333333333 384.166666667 257.833333333 390.5 279.5 c 128
 396.833333333 301.166666667 403.833333333 320.166666667 411.5 336.5 c 128
 419.166666667 352.833333333 429 369 441 385 c 1
 419 389.666666667 391 392 357 392 c 0
 309.666666667 392 266.666666667 382.333333333 228 363 c 128
 189.333333333 343.666666667 157.666666667 317.333333333 133 284 c 1
 140.333333333 286.666666667 148.833333333 289 158.5 291 c 128
 168.166666667 293 176.666666667 294 184 294 c 0
 215.333333333 294 240.833333333 286.666666667 260.5 272 c 128
 280.166666667 257.333333333 290 234.333333333 290 203 c 0
 290 193 290 193 290 183 c 0
 288 176.333333333 286.666666667 171.666666667 286 169 c 0
 274.666666667 117 257 77.3333333333 233 50 c 0
 203 16.6666666667 162.333333333 0 111 0 c 0
 49 0 18 33.6666666667 18 101 c 0
 18 122.333333333 21 146 27 172 c 0
 44.3333333333 255.333333333 82.3333333333 321.666666667 141 371 c 0
 203 423 279.666666667 449 371 449 c 0
 405.666666667 449 435.666666667 446.833333333 461 442.5 c 128
 486.333333333 438.166666667 512.333333333 433.666666667 539 429 c 1
 555.666666667 429 573.666666667 433.666666667 593 443 c 0
 604.333333333 449 613.666666667 452 621 452 c 0
 633 452 639 446.333333333 639 435 c 0
 639 427.666666667 635.666666667 420 629 412 c 128
 622.333333333 404 612.333333333 397.666666667 599 393 c 0
162 149 m 0
 163.333333333 158.333333333 164.333333333 165 165 169 c 128
 165.666666667 173 166 176.666666667 166 180 c 0
 166 200 156 210 136 210 c 0
 122 210 110.333333333 204.666666667 101 194 c 128
 91.6666666667 183.333333333 85 167.5 81 146.5 c 128
 77 125.5 75 108.666666667 75 96 c 0
 75 70 83.3333333333 57 100 57 c 0
 117.333333333 57 131 66.3333333333 141 85 c 0
 148.333333333 98.3333333333 155.333333333 119.666666667 162 149 c 0
EndSplineSet
EndChar

StartChar: u0B8F
Encoding: 48 2959 48
Width: 631
Flags: HW
AnchorPoint: "V" 328 455 basechar 0
AnchorPoint: "N" 328 -57.4033 basechar 0
LayerCount: 2
Fore
SplineSet
598 392 m 0
 578 384 561.333333333 369 548 347 c 0
 538 331 528 307 518 275 c 2
 483 132 l 2
 475 93.3333333333 458.666666667 62 434 38 c 0
 424.666666667 28 408.5 18.1666666667 385.5 8.5 c 128
 362.5 -1.16666666667 339.666666667 -11 317 -21 c 0
 301.666666667 -27.6666666667 284 -36.6666666667 264 -48 c 128
 244 -59.3333333333 224.666666667 -71 206 -83 c 0
 198.666666667 -90.3333333333 190.833333333 -97.8333333333 182.5 -105.5 c 128
 174.166666667 -113.166666667 166 -117 158 -117 c 0
 155.333333333 -117 151.333333333 -116.333333333 146 -115 c 0
 135.333333333 -111 130 -103 130 -91 c 0
 130 -81 135 -72 145 -64 c 0
 163 -54 183 -42 205 -28 c 0
 214.333333333 -22 239.333333333 -5 280 23 c 0
 299.333333333 37 315.5 54 328.5 74 c 128
 341.5 94 350.333333333 114.333333333 355 135 c 2
 390 279 l 2
 401.333333333 318.333333333 418.333333333 353.333333333 441 384 c 1
 431 386 419 387.666666667 405 389 c 128
 391 390.333333333 375 391 357 391 c 0
 311 391 268 381 228 361 c 128
 188 341 156.333333333 314.666666667 133 282 c 1
 151 289.333333333 168 293 184 293 c 0
 214.666666667 293 239.833333333 285.666666667 259.5 271 c 128
 279.166666667 256.333333333 289 233.333333333 289 202 c 0
 289 191 289 191 289 181 c 0
 287 173.666666667 285.666666667 168.666666667 285 166 c 0
 273.666666667 112.666666667 256 72.3333333333 232 45 c 0
 202.666666667 11.6666666667 162 -5 110 -5 c 0
 48 -5 17 29.3333333333 17 98 c 0
 17 118 20 141.666666667 26 169 c 0
 44 253.666666667 82 320.666666667 140 370 c 0
 202 422.666666667 279 449 371 449 c 0
 405.666666667 449 435.666666667 446.833333333 461 442.5 c 128
 486.333333333 438.166666667 512.333333333 433.666666667 539 429 c 1
 555.666666667 429 573.666666667 433.666666667 593 443 c 0
 603 448.333333333 612 451 620 451 c 0
 632.666666667 451 639 445.333333333 639 434 c 0
 639 416 625.333333333 402 598 392 c 0
161 146 m 0
 163.666666667 156.666666667 165 167.333333333 165 178 c 0
 165 198 155 208 135 208 c 0
 117 208 103 199 93 181 c 0
 89 173 84.8333333333 159.5 80.5 140.5 c 128
 76.1666666667 121.5 74 105.333333333 74 92 c 0
 74 66 82.3333333333 53 99 53 c 0
 117 53 131 62.3333333333 141 81 c 0
 148.333333333 94.3333333333 155 116 161 146 c 0
EndSplineSet
EndChar

StartChar: u0B90
Encoding: 49 2960 49
Width: 725
Flags: HW
AnchorPoint: "V" 332 455 basechar 0
AnchorPoint: "N" 332 -149.944 basechar 0
LayerCount: 2
Fore
SplineSet
614 -5 m 0
 604 -51.6666666667 583.333333333 -87.5 552 -112.5 c 128
 520.666666667 -137.5 476 -150 418 -150 c 0
 382 -150 353.833333333 -143.666666667 333.5 -131 c 128
 313.166666667 -118.333333333 299.333333333 -100.333333333 292 -77 c 1
 274.666666667 -99 254.333333333 -116 231 -128 c 0
 201 -142.666666667 165 -150 123 -150 c 0
 76.3333333333 -150 41.6666666667 -139.666666667 19 -119 c 128
 -3.66666666667 -98.3333333333 -15 -71.3333333333 -15 -38 c 0
 -15 -29.3333333333 -14.6666666667 -22.6666666667 -14 -18 c 0
 -12 -12 -11 -7.66666666667 -11 -5 c 0
 -1.66666666667 37 24.6666666667 69.6666666667 68 93 c 0
 100 110.333333333 145.666666667 124.166666667 205 134.5 c 128
 264.333333333 144.833333333 321 155 375 165 c 1
 420.333333333 176.333333333 456.666666667 193 484 215 c 0
 516 241 536.333333333 274 545 314 c 0
 548.333333333 332.666666667 550 347.333333333 550 358 c 0
 550 380.666666667 541 392 523 392 c 0
 507 392 492.666666667 386 480 374 c 0
 470.666666667 364.666666667 462.666666667 353.333333333 456 340 c 0
 456.666666667 336.666666667 457 332.333333333 457 327 c 0
 457 322 457 322 457 317 c 0
 455.666666667 312.333333333 455 309.333333333 455 308 c 2
 448 274 l 2
 442.666666667 250 429.833333333 229.166666667 409.5 211.5 c 128
 389.166666667 193.833333333 364.666666667 185 336 185 c 0
 321.333333333 185 305.333333333 188 288 194 c 1
 301.333333333 208.666666667 311 222.333333333 317 235 c 0
 320.333333333 243 324.333333333 257.333333333 329 278 c 2
 337 317 l 2
 339 327 340 336 340 344 c 0
 340 376 322.666666667 392 288 392 c 0
 266 392 245 389 225 383 c 1
 265.666666667 377 286 353.333333333 286 312 c 0
 286 304 285 295 283 285 c 0
 275 250.333333333 256 224 226 206 c 0
 201.333333333 191.333333333 173.333333333 184 142 184 c 0
 114.666666667 184 94.5 189 81.5 199 c 128
 68.5 209 62 226 62 250 c 0
 62 261.333333333 63.3333333333 273.333333333 66 286 c 0
 76.6666666667 336.666666667 103.833333333 376.666666667 147.5 406 c 128
 191.166666667 435.333333333 243 450 303 450 c 0
 334.333333333 450 360.5 445.333333333 381.5 436 c 128
 402.5 426.666666667 419.333333333 414 432 398 c 1
 444.666666667 412.666666667 461.166666667 425 481.5 435 c 128
 501.833333333 445 525 450 551 450 c 0
 636.333333333 450 679 417 679 351 c 0
 679 340.333333333 677.333333333 326.666666667 674 310 c 0
 663.333333333 261.333333333 628.333333333 220 569 186 c 0
 523.666666667 160.666666667 467.5 140.333333333 400.5 125 c 128
 333.5 109.666666667 268.333333333 95 205 81 c 1
 155 64.3333333333 125.666666667 35.6666666667 117 -5 c 0
 114.333333333 -15.6666666667 113 -28 113 -42 c 0
 113 -56.6666666667 115.5 -68.6666666667 120.5 -78 c 128
 125.5 -87.3333333333 133.666666667 -92 145 -92 c 0
 167 -92 187.833333333 -86 207.5 -74 c 128
 227.166666667 -62 242 -44.6666666667 252 -22 c 1
 258 4 l 2
 264 30.6666666667 276.833333333 52.6666666667 296.5 70 c 128
 316.166666667 87.3333333333 341 96 371 96 c 0
 389 96 408 92.6666666667 428 86 c 1
 412.666666667 70 401.333333333 54.8333333333 394 40.5 c 128
 386.666666667 26.1666666667 381.5 11.8333333333 378.5 -2.5 c 128
 375.5 -16.8333333333 374 -28.6666666667 374 -38 c 0
 374 -54.6666666667 377.666666667 -67.8333333333 385 -77.5 c 128
 392.333333333 -87.1666666667 405.333333333 -92 424 -92 c 0
 445.333333333 -92 462 -82 474 -62 c 0
 482 -48 489.333333333 -25.6666666667 496 5 c 0
 500.666666667 23.6666666667 503 40 503 54 c 0
 503 66.6666666667 500.666666667 78.6666666667 496 90 c 1
 502.666666667 90.6666666667 509 91.5 515 92.5 c 128
 521 93.5 527.666666667 94 535 94 c 0
 563 94 583.666666667 87.6666666667 597 75 c 128
 610.333333333 62.3333333333 617 44.6666666667 617 22 c 0
 617 14 616 5 614 -5 c 0
170 297 m 0
 171.333333333 302.333333333 172 306.666666667 172 310 c 0
 172 323.333333333 166.666666667 330 156 330 c 0
 149.333333333 330 143.333333333 326 138 318 c 128
 132.666666667 310 129.166666667 301 127.5 291 c 128
 125.833333333 281 124.5 273.166666667 123.5 267.5 c 128
 122.5 261.833333333 122 258.666666667 122 258 c 0
 122 247.333333333 126.333333333 242 135 242 c 0
 145.666666667 242 153.666666667 247.333333333 159 258 c 0
 162.333333333 264.666666667 166 277.666666667 170 297 c 0
EndSplineSet
EndChar

StartChar: u0B92
Encoding: 50 2962 50
Width: 695
Flags: HW
AnchorPoint: "V" 331.5 455 basechar 0
AnchorPoint: "N" 331.5 -131.39 basechar 0
LayerCount: 2
Fore
SplineSet
633 226 m 0
 622.333333333 174.666666667 599 134.166666667 563 104.5 c 128
 527 74.8333333333 479.333333333 60 420 60 c 0
 390 60 368 67.5 354 82.5 c 128
 340 97.5 332 117.666666667 330 143 c 1
 326.666666667 112.333333333 338.666666667 88 366 70 c 0
 390.666666667 54 420.333333333 46 455 46 c 0
 461.666666667 46 466.666666667 44 470 40 c 128
 473.333333333 36 475 31 475 25 c 0
 475 17 472.333333333 10 467 4 c 128
 461.666666667 -2 454.333333333 -5 445 -5 c 2
 396 -5 l 2
 378 -5 352 -28.8333333333 318 -76.5 c 128
 284 -124.166666667 232.666666667 -148 164 -148 c 0
 128.666666667 -148 101.833333333 -136.5 83.5 -113.5 c 128
 65.1666666667 -90.5 56 -59.6666666667 56 -21 c 1
 98 -9 l 1
 98 -63 121.333333333 -90 168 -90 c 0
 189.333333333 -90 208 -76 224 -48 c 0
 232.666666667 -32 241.666666667 -16.3333333333 251 -1 c 0
 257 9 264.5 16.8333333333 273.5 22.5 c 128
 282.5 28.1666666667 295.333333333 32.6666666667 312 36 c 1
 301.333333333 45.3333333333 292.5 56.5 285.5 69.5 c 128
 278.5 82.5 275 97.3333333333 275 114 c 0
 275 121.333333333 276 129.666666667 278 139 c 0
 285.333333333 175 299.333333333 207.666666667 320 237 c 0
 333.333333333 256.333333333 352.666666667 278.333333333 378 303 c 0
 391.333333333 315.666666667 404.666666667 322 418 322 c 0
 433.333333333 322 441 315.666666667 441 303 c 0
 441 298.333333333 439.333333333 294.333333333 436 291 c 0
 420 274.333333333 411 264.333333333 409 261 c 0
 400.333333333 248.333333333 392.666666667 226.333333333 386 195 c 0
 384 185 383 175.666666667 383 167 c 0
 383 151.666666667 386.666666667 139.666666667 394 131 c 128
 401.333333333 122.333333333 413.333333333 118 430 118 c 0
 448.666666667 118 464.666666667 130 478 154 c 0
 489.333333333 174 498.666666667 201 506 235 c 0
 507.333333333 240.333333333 508.333333333 247.833333333 509 257.5 c 128
 509.666666667 267.166666667 510 272.333333333 510 273 c 0
 510 308.333333333 499.333333333 336 478 356 c 0
 452.666666667 380 413.333333333 392 360 392 c 0
 316 392 275.833333333 383.666666667 239.5 367 c 128
 203.166666667 350.333333333 175.333333333 330 156 306 c 1
 164 308 172 309 180 309 c 0
 204.666666667 309 225.833333333 301.5 243.5 286.5 c 128
 261.166666667 271.5 270 249.666666667 270 221 c 0
 270 212.333333333 269 203 267 193 c 0
 259 155 240.666666667 123.666666667 212 99 c 0
 180.666666667 71.6666666667 142.333333333 58 97 58 c 0
 75.6666666667 58 58.3333333333 65 45 79 c 128
 31.6666666667 93 25 114.333333333 25 143 c 0
 25 149.666666667 25.3333333333 156.666666667 26 164 c 128
 26.6666666667 171.333333333 28 179.333333333 30 188 c 0
 48 272.666666667 91.6666666667 338.666666667 161 386 c 0
 223 428.666666667 295.333333333 450 378 450 c 0
 452.666666667 450 513.333333333 436 560 408 c 0
 612 376.666666667 638 331.666666667 638 273 c 0
 638 266.333333333 637.666666667 258.833333333 637 250.5 c 128
 636.333333333 242.166666667 635 234 633 226 c 0
142 184 m 0
 144 194 145 202.666666667 145 210 c 0
 145 226.666666667 138.333333333 235 125 235 c 0
 113.666666667 235 104.333333333 226 97 208 c 0
 93.6666666667 199.333333333 90.3333333333 188 87 174 c 0
 86.3333333333 169.333333333 85.3333333333 163.666666667 84 157 c 128
 82.6666666667 150.333333333 82 145 82 141 c 0
 82 124.333333333 89 116 103 116 c 0
 115 116 124 123.333333333 130 138 c 0
 132.666666667 144.666666667 136.666666667 160 142 184 c 0
EndSplineSet
EndChar

StartChar: u0B93
Encoding: 51 2963 51
Width: 695
Flags: HW
AnchorPoint: "V" 331.5 455 basechar 0
AnchorPoint: "N" 331.5 -131.39 basechar 0
LayerCount: 2
Fore
SplineSet
633 226 m 0
 622.333333333 174.666666667 599 134.166666667 563 104.5 c 128
 527 74.8333333333 479.333333333 60 420 60 c 0
 390 60 368 67.5 354 82.5 c 128
 340 97.5 332 117.666666667 330 143 c 1
 326.666666667 112.333333333 338.666666667 88 366 70 c 0
 390.666666667 54 420.333333333 46 455 46 c 0
 461.666666667 46 466.666666667 44 470 40 c 128
 473.333333333 36 475 31 475 25 c 0
 475 17 472.333333333 10 467 4 c 128
 461.666666667 -2 454.333333333 -5 445 -5 c 2
 396 -5 l 2
 378 -5 352 -28.8333333333 318 -76.5 c 128
 284 -124.166666667 232.666666667 -148 164 -148 c 0
 124.666666667 -148 92.6666666667 -139.666666667 68 -123 c 128
 43.3333333333 -106.333333333 31 -82.6666666667 31 -52 c 0
 31 -44 32 -35.3333333333 34 -26 c 0
 39.3333333333 -1.33333333333 51.1666666667 18.8333333333 69.5 34.5 c 128
 87.8333333333 50.1666666667 113 58 145 58 c 0
 170.333333333 58 188.833333333 52.6666666667 200.5 42 c 128
 212.166666667 31.3333333333 218 17.3333333333 218 0 c 0
 218 -7.33333333333 217 -14.6666666667 215 -22 c 0
 211 -40 201 -61.3333333333 185 -86 c 0
 183.666666667 -89.3333333333 182.333333333 -93 181 -97 c 1
 173 -94 173 -94 165 -91 c 1
 166.333333333 -90.3333333333 167.666666667 -90 169 -90 c 0
 189.666666667 -90 208 -76 224 -48 c 0
 232.666666667 -32 241.666666667 -16.3333333333 251 -1 c 0
 257 9 264.5 16.8333333333 273.5 22.5 c 128
 282.5 28.1666666667 295.333333333 32.6666666667 312 36 c 1
 301.333333333 45.3333333333 292.5 56.5 285.5 69.5 c 128
 278.5 82.5 275 97.3333333333 275 114 c 0
 275 121.333333333 276 129.666666667 278 139 c 0
 285.333333333 175 299.333333333 207.666666667 320 237 c 0
 333.333333333 256.333333333 352.666666667 278.333333333 378 303 c 0
 391.333333333 315.666666667 404.666666667 322 418 322 c 0
 433.333333333 322 441 315.666666667 441 303 c 0
 441 298.333333333 439.333333333 294.333333333 436 291 c 0
 420 274.333333333 411 264.333333333 409 261 c 0
 400.333333333 248.333333333 392.666666667 226.333333333 386 195 c 0
 384 185 383 175.666666667 383 167 c 0
 383 151.666666667 386.666666667 139.666666667 394 131 c 128
 401.333333333 122.333333333 413.333333333 118 430 118 c 0
 448.666666667 118 464.666666667 130 478 154 c 0
 489.333333333 174 498.666666667 201 506 235 c 0
 507.333333333 240.333333333 508.333333333 247.833333333 509 257.5 c 128
 509.666666667 267.166666667 510 272.333333333 510 273 c 0
 510 308.333333333 499.333333333 336 478 356 c 0
 452.666666667 380 413.333333333 392 360 392 c 0
 316 392 275.833333333 383.666666667 239.5 367 c 128
 203.166666667 350.333333333 175.333333333 330 156 306 c 1
 164 308 172 309 180 309 c 0
 204.666666667 309 225.833333333 301.5 243.5 286.5 c 128
 261.166666667 271.5 270 249.666666667 270 221 c 0
 270 212.333333333 269 203 267 193 c 0
 259 155 240.666666667 123.666666667 212 99 c 0
 180.666666667 71.6666666667 142.333333333 58 97 58 c 0
 75.6666666667 58 58.3333333333 65 45 79 c 128
 31.6666666667 93 25 114.333333333 25 143 c 0
 25 149.666666667 25.3333333333 156.666666667 26 164 c 128
 26.6666666667 171.333333333 28 179.333333333 30 188 c 0
 48 272.666666667 91.6666666667 338.666666667 161 386 c 0
 223 428.666666667 295.333333333 450 378 450 c 0
 452.666666667 450 513.333333333 436 560 408 c 0
 612 376.666666667 638 331.666666667 638 273 c 0
 638 266.333333333 637.666666667 258.833333333 637 250.5 c 128
 636.333333333 242.166666667 635 234 633 226 c 0
142 184 m 0
 144 194 145 202.666666667 145 210 c 0
 145 226.666666667 138.333333333 235 125 235 c 0
 113.666666667 235 104.333333333 226 97 208 c 0
 93.6666666667 199.333333333 90.3333333333 188 87 174 c 0
 86.3333333333 169.333333333 85.3333333333 163.666666667 84 157 c 128
 82.6666666667 150.333333333 82 145 82 141 c 0
 82 124.333333333 89 116 103 116 c 0
 115 116 124 123.333333333 130 138 c 0
 132.666666667 144.666666667 136.666666667 160 142 184 c 0
141 -29 m 0
 142.333333333 -22.3333333333 143 -17.6666666667 143 -15 c 0
 143 -1.66666666667 137 5 125 5 c 0
 110.333333333 5 100 -1.33333333333 94 -14 c 0
 92 -18 89.6666666667 -25.3333333333 87 -36 c 0
 86.3333333333 -42 87.6666666667 -48 91 -54 c 128
 94.3333333333 -60 101 -63 111 -63 c 0
 119 -63 125.5 -59.5 130.5 -52.5 c 128
 135.5 -45.5 139 -37.6666666667 141 -29 c 0
EndSplineSet
EndChar

StartChar: u0B95
Encoding: 53 2965 53
Width: 668
Flags: HW
AnchorPoint: "V" 453 455 basechar 0
AnchorPoint: "N" 453 -4 basechar 0
LayerCount: 2
Fore
SplineSet
591 153 m 0
 581.666666667 108.333333333 561.333333333 71.6666666667 530 43 c 0
 496 11.6666666667 454.666666667 -4 406 -4 c 0
 388 -4 379 2.33333333333 379 15 c 0
 379 24.3333333333 383.666666667 32 393 38 c 0
 413 49.3333333333 429.333333333 68.3333333333 442 95 c 0
 448.666666667 109.666666667 455.333333333 130.666666667 462 158 c 0
 464 167.333333333 465 175.666666667 465 183 c 0
 465 209.666666667 445.333333333 225 406 229 c 1
 391 164 l 2
 380.333333333 112.666666667 357.5 72.5 322.5 43.5 c 128
 287.5 14.5 241.666666667 0 185 0 c 0
 130.333333333 0 88 8.5 58 25.5 c 128
 28 42.5 13 67.3333333333 13 100 c 0
 13 107.333333333 14 115 16 123 c 0
 24 161 39 192.166666667 61 216.5 c 128
 83 240.833333333 114.333333333 259 155 271 c 1
 161 301 l 2
 170.333333333 345.666666667 187.333333333 380.666666667 212 406 c 0
 240 434.666666667 277.333333333 449 324 449 c 0
 348 449 370.333333333 446.166666667 391 440.5 c 128
 411.666666667 434.833333333 428.333333333 432 441 432 c 0
 454.333333333 432 463.833333333 432.5 469.5 433.5 c 128
 475.166666667 434.5 483.5 437.833333333 494.5 443.5 c 128
 505.5 449.166666667 514.666666667 452 522 452 c 0
 534 452 540 446.333333333 540 435 c 0
 540 427.666666667 536.666666667 420 530 412 c 128
 523.333333333 404 513.833333333 397.666666667 501.5 393 c 128
 489.166666667 388.333333333 478.5 381.833333333 469.5 373.5 c 128
 460.5 365.166666667 452.333333333 355.333333333 445 344 c 0
 441 336 436.666666667 325.833333333 432 313.5 c 128
 427.333333333 301.166666667 424.333333333 292.333333333 423 287 c 1
 477.666666667 287 519.833333333 278.333333333 549.5 261 c 128
 579.166666667 243.666666667 594 217.333333333 594 182 c 0
 594 172.666666667 593 163 591 153 c 0
347 387 m 1
 341 389 336.666666667 390.333333333 334 391 c 128
 331.333333333 391.666666667 323.333333333 392 310 392 c 256
 296.666666667 392 285 390.166666667 275 386.5 c 128
 265 382.833333333 256.166666667 376.5 248.5 367.5 c 128
 240.833333333 358.5 233.666666667 343.333333333 227 322 c 0
 223 308.666666667 219.333333333 295.666666667 216 283 c 1
 294 288 l 1
 302 311.333333333 310 330.333333333 318 345 c 0
 322 352.333333333 326.333333333 359.333333333 331 366 c 128
 335.666666667 372.666666667 341 379.666666667 347 387 c 1
276 228 m 1
 248 228 225.666666667 223.666666667 209 215 c 128
 192.333333333 206.333333333 178 192.333333333 166 173 c 0
 156.666666667 157.666666667 149.666666667 138.666666667 145 116 c 0
 143 106.666666667 142 99 142 93 c 0
 142 69 155.666666667 57 183 57 c 0
 211 57 231.333333333 70.3333333333 244 97 c 0
 248.666666667 107 254.666666667 130.333333333 262 167 c 2
 276 228 l 1
EndSplineSet
EndChar

StartChar: u0B95_u0BBF
Encoding: 54 -1 54
Width: 679
Flags: HW
AnchorPoint: "V" 453 651.718 basechar 0
AnchorPoint: "N" 453 -4 basechar 0
LayerCount: 2
Fore
SplineSet
675 499 m 0
 670.333333333 475.666666667 663 452 653 428 c 0
 646.333333333 410.666666667 635.333333333 386.666666667 620 356 c 0
 618.666666667 348 620.166666667 339.833333333 624.5 331.5 c 128
 628.833333333 323.166666667 630.333333333 315.333333333 629 308 c 0
 627.666666667 298.666666667 623 290.666666667 615 284 c 128
 607 277.333333333 597.666666667 274 587 274 c 0
 577.666666667 274 569.833333333 277.833333333 563.5 285.5 c 128
 557.166666667 293.166666667 554 302.333333333 554 313 c 0
 554 317.666666667 555 322.666666667 557 328 c 0
 577 374.666666667 597.333333333 421.666666667 618 469 c 0
 618.666666667 474.333333333 619.5 479.5 620.5 484.5 c 128
 621.5 489.5 622 494.666666667 622 500 c 0
 622 546.666666667 594.333333333 570 539 570 c 0
 506.333333333 570 480.333333333 562.333333333 461 547 c 128
 441.666666667 531.666666667 429.666666667 511.666666667 425 487 c 0
 423.666666667 477.666666667 423 469.666666667 423 463 c 0
 423 453 424.333333333 445.666666667 427 441 c 1
 442 439 l 2
 455.333333333 439 465 439.5 471 440.5 c 128
 477 441.5 485.166666667 444.833333333 495.5 450.5 c 128
 505.833333333 456.166666667 515 459 523 459 c 0
 535.666666667 459 542 453.333333333 542 442 c 0
 542 424 529.666666667 410 505 400 c 128
 480.333333333 390 460.666666667 373.333333333 446 350 c 0
 442 342.666666667 437.666666667 332.333333333 433 319 c 128
 428.333333333 305.666666667 425.333333333 296.333333333 424 291 c 1
 478 291 519.833333333 282.333333333 549.5 265 c 128
 579.166666667 247.666666667 594 221.333333333 594 186 c 0
 594 176.666666667 593 166.333333333 591 155 c 0
 581.666666667 109.666666667 561.333333333 72.6666666667 530 44 c 0
 495.333333333 12 454 -4 406 -4 c 0
 388 -4 379 2.33333333333 379 15 c 0
 379 25 383.666666667 33 393 39 c 0
 413 50.3333333333 429.333333333 69.3333333333 442 96 c 0
 450 113.333333333 456.666666667 134.666666667 462 160 c 0
 464 170 465 179 465 187 c 0
 465 213.666666667 445.666666667 229 407 233 c 1
 391 167 l 2
 380.333333333 115 357.5 74.1666666667 322.5 44.5 c 128
 287.5 14.8333333333 241.666666667 0 185 0 c 0
 131 0 89 8.66666666667 59 26 c 128
 29 43.3333333333 14 68.3333333333 14 101 c 0
 14 109 15 117 17 125 c 0
 25 163.666666667 40 195.5 62 220.5 c 128
 84 245.5 115.333333333 264 156 276 c 1
 162 306 l 2
 172 351.333333333 189.333333333 387 214 413 c 0
 242 442.333333333 279.333333333 457 326 457 c 1
 366 454 l 1
 366 465.333333333 366.166666667 477.666666667 366.5 491 c 128
 366.833333333 504.333333333 368 516.333333333 370 527 c 0
 380 572.333333333 399.666666667 608 429 634 c 0
 463 664 506.666666667 679 560 679 c 0
 601.333333333 679 632 668.666666667 652 648 c 128
 672 627.333333333 682 598 682 560 c 0
 682 540 679.666666667 519.666666667 675 499 c 0
349 393 m 1
 342.333333333 395.666666667 337.666666667 397.166666667 335 397.5 c 128
 332.333333333 397.833333333 324.666666667 398 312 398 c 0
 298 398 286.166666667 396.333333333 276.5 393 c 128
 266.833333333 389.666666667 258.166666667 383.333333333 250.5 374 c 128
 242.833333333 364.666666667 236.666666667 353.666666667 232 341 c 128
 227.333333333 328.333333333 222.333333333 310.333333333 217 287 c 1
 295 292 l 1
 303.666666667 318.666666667 312 338.333333333 320 351 c 0
 324 358.333333333 328.333333333 365.333333333 333 372 c 128
 337.666666667 378.666666667 343 385.666666667 349 393 c 1
277 232 m 1
 265 232 253 230.666666667 241 228 c 128
 229 225.333333333 219.666666667 222.333333333 213 219 c 0
 193.666666667 209.666666667 178 195.333333333 166 176 c 0
 156.666666667 160.666666667 149.666666667 141.333333333 145 118 c 0
 143.666666667 112 143 104.333333333 143 95 c 0
 143 70.3333333333 156.333333333 58 183 58 c 0
 211 58 231.333333333 71.3333333333 244 98 c 0
 248 106.666666667 254.333333333 130.666666667 263 170 c 2
 277 232 l 1
EndSplineSet
EndChar

StartChar: u0B95_u0BC0
Encoding: 55 -1 55
Width: 669
Flags: HW
AnchorPoint: "V" 453 659.875 basechar 0
AnchorPoint: "N" 453 -4 basechar 0
LayerCount: 2
Fore
SplineSet
682 581 m 0
 678 559 665.666666667 538 645 518 c 0
 617 491.333333333 583.333333333 478 544 478 c 0
 509.333333333 478 484 484.5 468 497.5 c 128
 452 510.5 444 527 444 547 c 0
 444 551.666666667 444.666666667 557.333333333 446 564 c 128
 447.333333333 570.666666667 449 577.333333333 451 584 c 1
 437.666666667 576.666666667 427 567.5 419 556.5 c 128
 411 545.5 406.166666667 535.5 404.5 526.5 c 128
 402.833333333 517.5 402 511 402 507 c 0
 402 480.333333333 411 458 429 440 c 1
 442 439 l 2
 455.333333333 439 465 439.5 471 440.5 c 128
 477 441.5 485.166666667 444.833333333 495.5 450.5 c 128
 505.833333333 456.166666667 515 459 523 459 c 0
 535.666666667 459 542 453.333333333 542 442 c 0
 542 424 528.333333333 409.666666667 501 399 c 0
 489 394.333333333 478.833333333 388.166666667 470.5 380.5 c 128
 462.166666667 372.833333333 454 362.666666667 446 350 c 0
 442 342.666666667 437.666666667 332.333333333 433 319 c 128
 428.333333333 305.666666667 425.333333333 296.333333333 424 291 c 1
 478 291 519.833333333 282.333333333 549.5 265 c 128
 579.166666667 247.666666667 594 221.333333333 594 186 c 0
 594 176.666666667 593 166.333333333 591 155 c 0
 581.666666667 109.666666667 561.333333333 72.6666666667 530 44 c 0
 495.333333333 12 454 -4 406 -4 c 0
 388 -4 379 2.33333333333 379 15 c 0
 379 25 383.666666667 33 393 39 c 0
 413 50.3333333333 429.333333333 69.3333333333 442 96 c 0
 450 113.333333333 456.666666667 134.666666667 462 160 c 0
 464 170 465 179 465 187 c 0
 465 213.666666667 445.666666667 229 407 233 c 1
 391 167 l 2
 380.333333333 115 357.5 74.1666666667 322.5 44.5 c 128
 287.5 14.8333333333 241.666666667 0 185 0 c 0
 131 0 89 8.66666666667 59 26 c 128
 29 43.3333333333 14 68.3333333333 14 101 c 0
 14 109 15 117 17 125 c 0
 25 163.666666667 40 195.5 62 220.5 c 128
 84 245.5 115.333333333 264 156 276 c 1
 162 306 l 2
 172 352 189.333333333 387.666666667 214 413 c 0
 242.666666667 442.333333333 280 457 326 457 c 2
 345 457 l 1
 343.666666667 461.666666667 342.666666667 466.5 342 471.5 c 128
 341.333333333 476.5 341 482.666666667 341 490 c 0
 341 500 342.666666667 513.333333333 346 530 c 0
 354.666666667 572 377.333333333 607.333333333 414 636 c 0
 454.666666667 667.333333333 504.333333333 683 563 683 c 0
 595.666666667 683 624 675.166666667 648 659.5 c 128
 672 643.833333333 684 623.333333333 684 598 c 0
 684 594.666666667 683.333333333 589 682 581 c 0
554 571 m 0
 556.666666667 579 556.166666667 585.5 552.5 590.5 c 128
 548.833333333 595.5 542.666666667 598 534 598 c 0
 526 598 519 595.666666667 513 591 c 128
 507 586.333333333 503 580.333333333 501 573 c 256
 499 565.666666667 499.666666667 559.333333333 503 554 c 128
 506.333333333 548.666666667 512.333333333 546 521 546 c 256
 529.666666667 546 536.833333333 548.333333333 542.5 553 c 128
 548.166666667 557.666666667 552 563.666666667 554 571 c 0
349 393 m 1
 342.333333333 395.666666667 337.666666667 397.166666667 335 397.5 c 128
 332.333333333 397.833333333 324.666666667 398 312 398 c 0
 298 398 286.166666667 396.333333333 276.5 393 c 128
 266.833333333 389.666666667 258.333333333 383.5 251 374.5 c 128
 243.666666667 365.5 237.333333333 353.666666667 232 339 c 128
 226.666666667 324.333333333 221.666666667 307.333333333 217 288 c 1
 295 292 l 1
 303.666666667 318.666666667 312 338.333333333 320 351 c 0
 324 358.333333333 328.333333333 365.333333333 333 372 c 128
 337.666666667 378.666666667 343 385.666666667 349 393 c 1
277 232 m 1
 265 232 253 230.666666667 241 228 c 128
 229 225.333333333 219.666666667 222.333333333 213 219 c 0
 193.666666667 209.666666667 178 195.333333333 166 176 c 0
 156.666666667 160.666666667 149.666666667 141.333333333 145 118 c 0
 143.666666667 112 143 104.333333333 143 95 c 0
 143 70.3333333333 156.333333333 58 183 58 c 0
 211 58 231.333333333 71.3333333333 244 98 c 0
 248 106.666666667 254.333333333 130.666666667 263 170 c 2
 277 232 l 1
EndSplineSet
EndChar

StartChar: u0B95_u0BC1
Encoding: 56 -1 56
Width: 818
Flags: HW
AnchorPoint: "V" 453 455 basechar 0
AnchorPoint: "N" 453 -4 basechar 0
LayerCount: 2
Fore
SplineSet
731 110 m 0
 712.333333333 19.3333333333 670.333333333 -53 605 -107 c 0
 526.333333333 -172.333333333 419 -205 283 -205 c 0
 191 -205 121.666666667 -184.666666667 75 -144 c 128
 28.3333333333 -103.333333333 5 -45.6666666667 5 29 c 0
 5 42.3333333333 6 57 8 73 c 128
 10 89 12.6666666667 105.333333333 16 122 c 0
 32 197.333333333 56.6666666667 258.666666667 90 306 c 0
 106.666666667 330 131.666666667 356 165 384 c 0
 176.333333333 393.333333333 187.333333333 398 198 398 c 0
 211.333333333 398 218 392 218 380 c 0
 218 371.333333333 212.666666667 360.666666667 202 348 c 0
 182 326 162.333333333 304 143 282 c 1
 111 237.333333333 88.3333333333 183 75 119 c 0
 70.3333333333 96.3333333333 68 74.3333333333 68 53 c 0
 68 -9.66666666667 89.6666666667 -58.3333333333 133 -93 c 0
 174.333333333 -125.666666667 228.666666667 -142 296 -142 c 0
 378 -142 445.333333333 -119.333333333 498 -74 c 128
 550.666666667 -28.6666666667 585.333333333 34.3333333333 602 115 c 0
 606.666666667 135.666666667 609 153.333333333 609 168 c 0
 609 202 591 221.333333333 555 226 c 1
 540 160 l 2
 529.333333333 108.666666667 506.5 68.1666666667 471.5 38.5 c 128
 436.5 8.83333333333 390.666666667 -6 334 -6 c 0
 279.333333333 -6 237 2.5 207 19.5 c 128
 177 36.5 162 61.6666666667 162 95 c 0
 162 103 163 111 165 119 c 0
 173 157 188 188.5 210 213.5 c 128
 232 238.5 263.333333333 257 304 269 c 1
 311 299 l 2
 320.333333333 344.333333333 337.333333333 379.666666667 362 405 c 0
 390.666666667 434.333333333 428 449 474 449 c 0
 498 449 520.333333333 446.166666667 541 440.5 c 128
 561.666666667 434.833333333 578.333333333 432 591 432 c 0
 604.333333333 432 613.833333333 432.5 619.5 433.5 c 128
 625.166666667 434.5 633.166666667 437.666666667 643.5 443 c 128
 653.833333333 448.333333333 663 451 671 451 c 0
 683.666666667 451 690 445.333333333 690 434 c 0
 690 416 676.333333333 402 649 392 c 0
 627.666666667 382.666666667 609.666666667 366 595 342 c 0
 591.666666667 336 588.166666667 328.5 584.5 319.5 c 128
 580.833333333 310.5 576.666666667 298.666666667 572 284 c 1
 626.666666667 284 667 275.666666667 693 259 c 0
 723 239.666666667 738 208.333333333 738 165 c 0
 738 158.333333333 737.666666667 151.333333333 737 144 c 128
 736.333333333 136.666666667 734.333333333 125.333333333 731 110 c 0
497 386 m 1
 491 388 486.666666667 389.333333333 484 390 c 128
 481.333333333 390.666666667 473.333333333 391 460 391 c 256
 446.666666667 391 435 389.166666667 425 385.5 c 128
 415 381.833333333 406.333333333 375.5 399 366.5 c 128
 391.666666667 357.5 385.666666667 346.666666667 381 334 c 128
 376.333333333 321.333333333 371.333333333 303.333333333 366 280 c 1
 444 285 l 1
 448 297 452.166666667 308.5 456.5 319.5 c 128
 460.833333333 330.5 464.666666667 338.333333333 468 343 c 0
 476.666666667 359 486.333333333 373.333333333 497 386 c 1
426 225 m 1
 411.333333333 225 399.333333333 224.166666667 390 222.5 c 128
 380.666666667 220.833333333 371 217.666666667 361 213 c 0
 341.666666667 203 326.833333333 189.5 316.5 172.5 c 128
 306.166666667 155.5 298.666666667 135.333333333 294 112 c 0
 292 102.666666667 291 94.6666666667 291 88 c 0
 291 64 304.666666667 52 332 52 c 0
 360 52 380.333333333 65.3333333333 393 92 c 0
 397 100 403.333333333 123.666666667 412 163 c 2
 426 225 l 1
EndSplineSet
EndChar

StartChar: u0B95_u0BC2
Encoding: 57 -1 57
Width: 1098
Flags: HW
AnchorPoint: "V" 453 455 basechar 0
AnchorPoint: "N" 453 -4 basechar 0
LayerCount: 2
Fore
SplineSet
986 18 m 0
 968 10.6666666667 947.833333333 4.83333333333 925.5 0.5 c 128
 903.166666667 -3.83333333333 878.666666667 -6 852 -6 c 0
 827 -6 827 -6 800 -6 c 128
 782 -6 763 -6.33333333333 743 -7 c 2
 723 -7 l 2
 670.333333333 -7 629 -4.66666666667 599 0 c 0
 590.333333333 2 586 7 586 15 c 0
 586 24.3333333333 592 32.6666666667 604 40 c 0
 625.333333333 53.3333333333 643.666666667 68 659 84 c 0
 678.333333333 104.666666667 690.333333333 126 695 148 c 0
 697 156 698 164.333333333 698 173 c 0
 698 196.333333333 692 215.666666667 680 231 c 0
 665.333333333 249.666666667 643.666666667 259 615 259 c 1
 599 257 l 1
 614.333333333 247.666666667 625.166666667 236.5 631.5 223.5 c 128
 637.833333333 210.5 641 195 641 177 c 0
 641 169 641 169 641 161 c 0
 638.333333333 148.333333333 636.666666667 138.666666667 636 132 c 0
 630.666666667 106.666666667 612 79 580 49 c 0
 542.666666667 13.6666666667 506.333333333 -4 471 -4 c 0
 438.333333333 -4 414.666666667 3 400 17 c 128
 385.333333333 31 378 50 378 74 c 0
 378 83.3333333333 379 93 381 103 c 0
 386.333333333 128.333333333 394 150.333333333 404 169 c 128
 414 187.666666667 427.333333333 205.666666667 444 223 c 1
 438.666666667 225 433 226.666666667 427 228 c 128
 421 229.333333333 414 230 406 230 c 1
 391 164 l 2
 380.333333333 112.666666667 357.5 72.5 322.5 43.5 c 128
 287.5 14.5 241.666666667 0 185 0 c 0
 130.333333333 0 88 8.5 58 25.5 c 128
 28 42.5 13 67.3333333333 13 100 c 0
 13 107.333333333 14 115 16 123 c 0
 24 161 39 192.166666667 61 216.5 c 128
 83 240.833333333 114.333333333 259 155 271 c 1
 161 301 l 2
 170.333333333 345.666666667 187.333333333 380.666666667 212 406 c 0
 240 434.666666667 277.333333333 449 324 449 c 0
 348 449 370.333333333 446.166666667 391 440.5 c 128
 411.666666667 434.833333333 428.333333333 432 441 432 c 0
 454.333333333 432 463.833333333 432.5 469.5 433.5 c 128
 475.166666667 434.5 483.5 437.833333333 494.5 443.5 c 128
 505.5 449.166666667 514.666666667 452 522 452 c 0
 534 452 540 446.333333333 540 435 c 0
 540 427.666666667 536.666666667 420 530 412 c 128
 523.333333333 404 513.833333333 397.666666667 501.5 393 c 128
 489.166666667 388.333333333 478.5 381.833333333 469.5 373.5 c 128
 460.5 365.166666667 452.333333333 355.333333333 445 344 c 0
 443.666666667 340.666666667 440 331.666666667 434 317 c 128
 428 302.333333333 424.333333333 292.666666667 423 288 c 1
 463 288 497.666666667 286 527 282 c 1
 551.666666667 294 578.5 303.333333333 607.5 310 c 128
 636.5 316.666666667 661 320 681 320 c 0
 731.666666667 320 770 308.333333333 796 285 c 0
 820 263.666666667 832 235.333333333 832 200 c 0
 832 188 832 188 832 177 c 0
 830 169.666666667 828.666666667 164.666666667 828 162 c 0
 825.333333333 148 817 130.333333333 803 109 c 0
 787 85 770 66.6666666667 752 54 c 1
 759.333333333 54 774.5 53.6666666667 797.5 53 c 128
 820.5 52.3333333333 840 52 856 52 c 0
 877.333333333 52 896.166666667 53.5 912.5 56.5 c 128
 928.833333333 59.5 943.833333333 64.3333333333 957.5 71 c 128
 971.166666667 77.6666666667 984 81 996 81 c 0
 1014.66666667 81 1024 73.6666666667 1024 59 c 0
 1024 51 1020.83333333 43.3333333333 1014.5 36 c 128
 1008.16666667 28.6666666667 998.666666667 22.6666666667 986 18 c 0
488 129 m 0
 492 143.666666667 496 158.666666667 500 174 c 0
 500 182.666666667 497.333333333 190 492 196 c 1
 478.666666667 182.666666667 467.666666667 168.666666667 459 154 c 128
 450.333333333 139.333333333 444.166666667 123.666666667 440.5 107 c 128
 436.833333333 90.3333333333 435 79.3333333333 435 74 c 0
 435 66 439.333333333 62 448 62 c 0
 456 62 464 69.8333333333 472 85.5 c 128
 480 101.166666667 485.333333333 115.666666667 488 129 c 0
347 387 m 1
 341 389 336.666666667 390.333333333 334 391 c 128
 331.333333333 391.666666667 323.333333333 392 310 392 c 256
 296.666666667 392 285 390.166666667 275 386.5 c 128
 265 382.833333333 256.166666667 376.5 248.5 367.5 c 128
 240.833333333 358.5 233.666666667 343.333333333 227 322 c 0
 223 308.666666667 219.333333333 295.666666667 216 283 c 1
 294 288 l 1
 303.333333333 313.333333333 311.333333333 332.333333333 318 345 c 0
 322 352.333333333 326.333333333 359.333333333 331 366 c 128
 335.666666667 372.666666667 341 379.666666667 347 387 c 1
276 228 m 1
 248 228 225.666666667 223.666666667 209 215 c 128
 192.333333333 206.333333333 178 192.333333333 166 173 c 0
 156.666666667 157.666666667 149.666666667 138.666666667 145 116 c 0
 143 106.666666667 142 99 142 93 c 0
 142 69 155.666666667 57 183 57 c 0
 211 57 231.333333333 70.3333333333 244 97 c 0
 248.666666667 107 254.666666667 130.333333333 262 167 c 2
 276 228 l 1
EndSplineSet
EndChar

StartChar: u0B95_u0BC2.old
Encoding: 58 -1 58
Width: 926
Flags: HW
AnchorPoint: "V" 453 455 basechar 0
AnchorPoint: "N" 453 -4 basechar 0
LayerCount: 2
Fore
SplineSet
829 -3 m 1
 555 -3 l 1
 567 45 l 1
 595.666666667 60.3333333333 617 73.3333333333 631 84 c 0
 657.666666667 104.666666667 673.333333333 126.333333333 678 149 c 0
 678.666666667 151.666666667 679 154.333333333 679 157 c 128
 679 161 679 161 679 163 c 0
 679 179 673.5 191.833333333 662.5 201.5 c 128
 651.5 211.166666667 637 216 619 216 c 0
 596.333333333 216 577 213 561 207 c 128
 545 201 534.333333333 192.333333333 529 181 c 1
 490 -3 l 1
 398 -3 l 1
 445 215 l 1
 367 215 l 1
 344 109 l 2
 338 80.3333333333 315.166666667 54.5 275.5 31.5 c 128
 235.833333333 8.5 195.666666667 -3 155 -3 c 0
 113.666666667 -3 81.3333333333 5.83333333333 58 23.5 c 128
 34.6666666667 41.1666666667 23 68.3333333333 23 105 c 0
 23 117.666666667 24.3333333333 130.333333333 27 143 c 0
 34.3333333333 178.333333333 51.6666666667 208 79 232 c 0
 100.333333333 250.666666667 121 261.666666667 141 265 c 1
 181 452 l 1
 514 452 l 1
 503 399 l 1
 406 399 l 1
 378 267 l 1
 489 267 l 2
 495 267 501.666666667 265.166666667 509 261.5 c 128
 516.333333333 257.833333333 521.666666667 252.333333333 525 245 c 1
 539 254.333333333 556.666666667 261.833333333 578 267.5 c 128
 599.333333333 273.166666667 625.666666667 276 657 276 c 0
 692.333333333 276 722.166666667 267.833333333 746.5 251.5 c 128
 770.833333333 235.166666667 783 210.666666667 783 178 c 0
 783 171.333333333 782 163.333333333 780 154 c 0
 775.333333333 133.333333333 765.833333333 114 751.5 96 c 128
 737.166666667 78 720.666666667 62.3333333333 702 49 c 1
 840 49 l 1
 829 -3 l 1
288 267 m 1
 316 399 l 1
 222 399 l 1
 194 267 l 1
 288 267 l 1
253 105 m 2
 277 215 l 1
 159 215 l 2
 139 215 120.666666667 206.333333333 104 189 c 0
 91.3333333333 175.666666667 82.3333333333 157.333333333 77 134 c 0
 75 126 74 118.333333333 74 111 c 0
 74 69.6666666667 101 49 155 49 c 0
 172.333333333 49 192.333333333 55 215 67 c 128
 237.666666667 79 250.333333333 91.6666666667 253 105 c 2
EndSplineSet
EndChar

StartChar: u0B95_u0BCD
Encoding: 59 -1 59
Width: 668
Flags: HW
AnchorPoint: "N" 453 -4 basechar 0
LayerCount: 2
Fore
SplineSet
525 579 m 0
 521 559 510.666666667 542.333333333 494 529 c 128
 477.333333333 515.666666667 458.666666667 509 438 509 c 0
 420 509 405.666666667 514 395 524 c 128
 384.333333333 534 379 547.666666667 379 565 c 0
 379 567.666666667 379.666666667 572.333333333 381 579 c 0
 385.666666667 599 396.166666667 615.833333333 412.5 629.5 c 128
 428.833333333 643.166666667 447.333333333 650 468 650 c 0
 486 650 500.333333333 645 511 635 c 128
 521.666666667 625 527 611.666666667 527 595 c 0
 527 591 526.333333333 585.666666667 525 579 c 0
591 155 m 0
 581.666666667 109.666666667 561.333333333 72.6666666667 530 44 c 0
 495.333333333 12 454 -4 406 -4 c 0
 388 -4 379 2.33333333333 379 15 c 0
 379 25 383.666666667 33 393 39 c 0
 413 50.3333333333 429.333333333 69.3333333333 442 96 c 0
 450 113.333333333 456.666666667 134.666666667 462 160 c 0
 464 170 465 179 465 187 c 0
 465 213.666666667 445.666666667 229 407 233 c 1
 391 167 l 2
 380.333333333 115 357.5 74.1666666667 322.5 44.5 c 128
 287.5 14.8333333333 241.666666667 0 185 0 c 0
 131 0 89 8.66666666667 59 26 c 128
 29 43.3333333333 14 68.3333333333 14 101 c 0
 14 109 15 117 17 125 c 0
 25.6666666667 165 40.5 196.833333333 61.5 220.5 c 128
 82.5 244.166666667 113.666666667 262.333333333 155 275 c 1
 162 306 l 2
 172 351.333333333 189.333333333 386.666666667 214 412 c 0
 242.666666667 441.333333333 280 456 326 456 c 0
 349.333333333 456 371 453 391 447 c 128
 411 441 428 438 442 438 c 0
 455.333333333 438 464.833333333 438.5 470.5 439.5 c 128
 476.166666667 440.5 484.333333333 443.833333333 495 449.5 c 128
 505.666666667 455.166666667 515 458 523 458 c 0
 535.666666667 458 542 452.333333333 542 441 c 0
 542 423 528.333333333 409 501 399 c 0
 479 389 460.666666667 372.333333333 446 349 c 0
 438.666666667 335.666666667 431.333333333 316.333333333 424 291 c 1
 478 291 519.833333333 282.333333333 549.5 265 c 128
 579.166666667 247.666666667 594 221 594 185 c 0
 594 176.333333333 593 166.333333333 591 155 c 0
349 393 m 1
 342.333333333 395.666666667 337.666666667 397.166666667 335 397.5 c 128
 332.333333333 397.833333333 324.666666667 398 312 398 c 0
 297.333333333 398 285.333333333 396.166666667 276 392.5 c 128
 266.666666667 388.833333333 258.166666667 382.5 250.5 373.5 c 128
 242.833333333 364.5 236.666666667 353.833333333 232 341.5 c 128
 227.333333333 329.166666667 222.333333333 311 217 287 c 1
 295 292 l 1
 301 308.666666667 305.5 320.833333333 308.5 328.5 c 128
 311.5 336.166666667 315 343.333333333 319 350 c 2
 349 393 l 1
277 232 m 1
 265 232 253 230.666666667 241 228 c 128
 229 225.333333333 219.666666667 222.333333333 213 219 c 0
 193.666666667 209.666666667 178 195.333333333 166 176 c 0
 156.666666667 160.666666667 149.666666667 141.333333333 145 118 c 0
 143.666666667 112 143 104.333333333 143 95 c 0
 143 70.3333333333 156.333333333 58 183 58 c 0
 211 58 231.333333333 71.3333333333 244 98 c 0
 248 106.666666667 254.333333333 130.666666667 263 170 c 2
 277 232 l 1
EndSplineSet
EndChar

StartChar: u0B99
Encoding: 60 2969 60
Width: 838
Flags: HW
AnchorPoint: "V" 453 455 basechar 0
AnchorPoint: "N" 453 -7.52762 basechar 0
LayerCount: 2
Fore
SplineSet
817 426 m 0
 794.333333333 398 778.333333333 362.666666667 769 320 c 2
 732 146 l 2
 722 98 699.166666667 60.3333333333 663.5 33 c 128
 627.833333333 5.66666666667 587 -8 541 -8 c 0
 529.666666667 -7.33333333333 520.333333333 -6.66666666667 513 -6 c 0
 458.333333333 -1.33333333333 419.666666667 1 397 1 c 0
 385 1 385 1 374.5 1 c 128
 367.5 1 360.333333333 0.333333333333 353 -1 c 0
 342.333333333 -2.33333333333 332.5 -1.16666666667 323.5 2.5 c 128
 314.5 6.16666666667 310 11.6666666667 310 19 c 0
 310 25.6666666667 312.833333333 32.8333333333 318.5 40.5 c 128
 324.166666667 48.1666666667 334 57 348 67 c 0
 358.666666667 74.3333333333 368.166666667 85 376.5 99 c 128
 384.833333333 113 391.333333333 130 396 150 c 0
 398.666666667 162.666666667 400 175 400 187 c 0
 400 220.333333333 389 237 367 237 c 0
 357 237 346.333333333 233.666666667 335 227 c 1
 314 136 l 2
 304 88.6666666667 282.333333333 52.6666666667 249 28 c 0
 220.333333333 6.66666666667 188.666666667 -4 154 -4 c 0
 134.666666667 -4 125 1.33333333333 125 12 c 0
 125 18 129 25.6666666667 137 35 c 0
 147.666666667 48.3333333333 157.333333333 63.8333333333 166 81.5 c 128
 174.666666667 99.1666666667 181 117.333333333 185 136 c 128
 189 154.666666667 195 180.333333333 203 213 c 0
 207 229 213 252 221 282 c 0
 226.333333333 300 233.833333333 318 243.5 336 c 128
 253.166666667 354 264.333333333 371.333333333 277 388 c 1
 267 390.666666667 260.333333333 392.333333333 257 393 c 0
 244 393 244 393 235 393 c 0
 212.333333333 393 194 384.833333333 180 368.5 c 128
 166 352.166666667 154.666666667 323.666666667 146 283 c 0
 132.666666667 217.666666667 119.666666667 166.666666667 107 130 c 0
 91.6666666667 85.3333333333 72.6666666667 48 50 18 c 0
 44 10 37.3333333333 4 30 0 c 128
 22.6666666667 -4 16 -6 10 -6 c 0
 -2.66666666667 -6 -9 -0.333333333333 -9 11 c 0
 -9 20.3333333333 -4.33333333333 30.6666666667 5 42 c 0
 25 68 42 105 56 153 c 0
 61.3333333333 172.333333333 72.6666666667 222 90 302 c 0
 99.3333333333 348 117.5 384.333333333 144.5 411 c 128
 171.5 437.666666667 206.333333333 451 249 451 c 0
 271.666666667 451 294 448 316 442 c 128
 338 436 356 433 370 433 c 0
 383.333333333 433 392.833333333 433.5 398.5 434.5 c 128
 404.166666667 435.5 412.333333333 438.833333333 423 444.5 c 128
 433.666666667 450.166666667 443 453 451 453 c 0
 463.666666667 453 470 447.333333333 470 436 c 0
 470 418 456.333333333 404 429 394 c 0
 410.333333333 386.666666667 395.166666667 374.166666667 383.5 356.5 c 128
 371.833333333 338.833333333 361.333333333 316 352 288 c 1
 377.333333333 298.666666667 402.666666667 304 428 304 c 0
 458.666666667 304 483.5 295 502.5 277 c 128
 521.5 259 531 232.666666667 531 198 c 0
 531 187.333333333 529.166666667 172.833333333 525.5 154.5 c 128
 521.833333333 136.166666667 511.666666667 117 495 97 c 0
 481.666666667 81 465.666666667 66.6666666667 447 54 c 1
 459 52 470.666666667 51 482 51 c 0
 505.333333333 51 530.333333333 56 557 66 c 0
 571.666666667 71.3333333333 583.666666667 87 593 113 c 0
 597 125 602.666666667 146.666666667 610 178 c 2
 641 323 l 2
 650.333333333 369 672 405 706 431 c 0
 735.333333333 453.666666667 767 465 801 465 c 0
 819.666666667 465 829 459.666666667 829 449 c 0
 829 443 825 435.333333333 817 426 c 0
EndSplineSet
EndChar

StartChar: u0B99_u0BBF
Encoding: 61 -1 61
Width: 959
Flags: HW
AnchorPoint: "V" 453 458.989 basechar 0
AnchorPoint: "N" 453 -7.52762 basechar 0
LayerCount: 2
Fore
SplineSet
955 499 m 0
 950.333333333 475.666666667 943 452 933 428 c 0
 926.333333333 410.666666667 915.333333333 386.666666667 900 356 c 0
 898.666666667 348 900.166666667 339.833333333 904.5 331.5 c 128
 908.833333333 323.166666667 910.333333333 315.333333333 909 308 c 0
 907.666666667 298.666666667 903 290.666666667 895 284 c 128
 887 277.333333333 877.666666667 274 867 274 c 0
 857.666666667 274 849.833333333 277.833333333 843.5 285.5 c 128
 837.166666667 293.166666667 834 302.333333333 834 313 c 0
 834 317.666666667 835 322.666666667 837 328 c 0
 857 374.666666667 877.333333333 421.666666667 898 469 c 0
 898.666666667 474.333333333 899.5 479.5 900.5 484.5 c 128
 901.5 489.5 902 494.666666667 902 500 c 0
 902 546.666666667 874.333333333 570 819 570 c 0
 786.333333333 570 760.333333333 562.333333333 741 547 c 128
 721.666666667 531.666666667 709.666666667 511.666666667 705 487 c 0
 703 479 702 471 702 463 c 0
 702 454.333333333 703.666666667 445.666666667 707 437 c 1
 736.333333333 459.666666667 768 471 802 471 c 0
 820.666666667 471 830 465.666666667 830 455 c 0
 830 449 826 441 818 431 c 0
 795.333333333 403 779.333333333 367.333333333 770 324 c 2
 732 148 l 2
 722 98.6666666667 699.166666667 60.3333333333 663.5 33 c 128
 627.833333333 5.66666666667 587 -8 541 -8 c 1
 521.666666667 -5.33333333333 506 -3.66666666667 494 -3 c 0
 457.333333333 0.333333333333 425.666666667 2 399 2 c 0
 381.666666667 2 366.333333333 1 353 -1 c 0
 342.333333333 -2.33333333333 332.5 -1.16666666667 323.5 2.5 c 128
 314.5 6.16666666667 310 12 310 20 c 0
 310 32.6666666667 322.666666667 48.6666666667 348 68 c 0
 358 75.3333333333 367.5 86.5 376.5 101.5 c 128
 385.5 116.5 391.833333333 132.833333333 395.5 150.5 c 128
 399.166666667 168.166666667 401 182 401 192 c 0
 401 224 390 240 368 240 c 0
 359.333333333 240 348.666666667 236.666666667 336 230 c 1
 314 138 l 2
 304 90.6666666667 282.333333333 54.3333333333 249 29 c 0
 220.333333333 7 188.666666667 -4 154 -4 c 0
 134.666666667 -4 125 1.33333333333 125 12 c 0
 125 17.3333333333 129.833333333 26 139.5 38 c 128
 149.166666667 50 158.333333333 65.1666666667 167 83.5 c 128
 175.666666667 101.833333333 182.166666667 121.833333333 186.5 143.5 c 128
 190.833333333 165.166666667 194.666666667 182.333333333 198 195 c 0
 206.666666667 230.333333333 214.666666667 260.333333333 222 285 c 0
 232.666666667 321.666666667 251.666666667 357.666666667 279 393 c 1
 270.333333333 395 264.5 396.333333333 261.5 397 c 128
 258.5 397.666666667 250 398 236 398 c 0
 212.666666667 398 194.166666667 389.833333333 180.5 373.5 c 128
 166.833333333 357.166666667 155.666666667 328 147 286 c 0
 131.666666667 214.666666667 118.666666667 163 108 131 c 0
 93.3333333333 86.3333333333 74 48.6666666667 50 18 c 0
 44 10 37.3333333333 4 30 0 c 128
 22.6666666667 -4 16 -6 10 -6 c 0
 -2.66666666667 -6 -9 0 -9 12 c 0
 -9 20.6666666667 -4.33333333333 31 5 43 c 0
 30.3333333333 75.6666666667 50.6666666667 124 66 188 c 0
 66.6666666667 191.333333333 75 230.666666667 91 306 c 0
 101 352 119.5 388.5 146.5 415.5 c 128
 173.5 442.5 208 456 250 456 c 0
 273.333333333 456 299.666666667 452.333333333 329 445 c 0
 345 441 359 439 371 439 c 0
 384.333333333 439 394 439.5 400 440.5 c 128
 406 441.5 414.166666667 444.833333333 424.5 450.5 c 128
 434.833333333 456.166666667 444 459 452 459 c 0
 464.666666667 459 471 453 471 441 c 0
 471 423 457.333333333 409 430 399 c 0
 411.333333333 391.666666667 396.166666667 379.166666667 384.5 361.5 c 128
 372.833333333 343.833333333 362.333333333 320.666666667 353 292 c 1
 378.333333333 302.666666667 403.333333333 308 428 308 c 0
 459.333333333 308 484.333333333 299.166666667 503 281.5 c 128
 521.666666667 263.833333333 531 237.333333333 531 202 c 0
 531 195.333333333 530.666666667 188.333333333 530 181 c 128
 529.333333333 173.666666667 528 165.666666667 526 157 c 0
 522 138.333333333 511.666666667 119 495 99 c 0
 481 82.3333333333 465.333333333 67.6666666667 448 55 c 1
 460 53 472 52 484 52 c 0
 496.666666667 52 508.333333333 53 519 55 c 128
 529.666666667 57 542.166666667 60.8333333333 556.5 66.5 c 128
 570.833333333 72.1666666667 583 88.3333333333 593 115 c 0
 599 131.666666667 604.666666667 153.666666667 610 181 c 2
 642 327 l 2
 646.666666667 352.333333333 655.333333333 374.333333333 668 393 c 1
 661.333333333 403 655.666666667 415 651 429 c 128
 646.333333333 443 644 458.666666667 644 476 c 0
 644 490 646 507 650 527 c 0
 660 572.333333333 679.666666667 608 709 634 c 0
 743 664 786.666666667 679 840 679 c 0
 881.333333333 679 912 668.666666667 932 648 c 128
 952 627.333333333 962 598 962 560 c 0
 962 540 959.666666667 519.666666667 955 499 c 0
EndSplineSet
EndChar

StartChar: u0B99_u0BC0
Encoding: 62 -1 62
Width: 838
Flags: HW
AnchorPoint: "V" 453 680.359 basechar 0
AnchorPoint: "N" 453 -7.52762 basechar 0
LayerCount: 2
Fore
SplineSet
504 571 m 0
 500.666666667 557.666666667 494.333333333 547 485 539 c 128
 475.666666667 531 463 527 447 527 c 0
 438.333333333 527 431 529 425 533 c 0
 415 539.666666667 410 549.333333333 410 562 c 0
 410 566.666666667 410.333333333 570.333333333 411 573 c 0
 414.333333333 585.666666667 421.166666667 596.333333333 431.5 605 c 128
 441.833333333 613.666666667 454 618 468 618 c 0
 479.333333333 618 488.5 614.833333333 495.5 608.5 c 128
 502.5 602.166666667 506 593.666666667 506 583 c 0
 506 580.333333333 505.333333333 576.333333333 504 571 c 0
236 398 m 1
 212.666666667 398 194.166666667 389.833333333 180.5 373.5 c 128
 166.833333333 357.166666667 155.666666667 328 147 286 c 0
 131.666666667 214.666666667 118.666666667 163 108 131 c 0
 93.3333333333 86.3333333333 74 48.6666666667 50 18 c 0
 44 10 37.3333333333 4 30 0 c 128
 22.6666666667 -4 16 -6 10 -6 c 0
 -2.66666666667 -6 -9 0 -9 12 c 0
 -9 20.6666666667 -4.33333333333 31 5 43 c 0
 30.3333333333 75.6666666667 50.6666666667 124 66 188 c 0
 66.6666666667 191.333333333 75 230.666666667 91 306 c 0
 101 351.333333333 119.5 387.833333333 146.5 415.5 c 128
 173.5 443.166666667 208 457 250 457 c 2
 277 456 l 1
 273.666666667 468 272 481 272 495 c 0
 272 503 272 503 272 509 c 128
 272 513 273.333333333 520 276 530 c 0
 284.666666667 572 307.333333333 607.333333333 344 636 c 0
 384.666666667 667.333333333 434.333333333 683 493 683 c 0
 525.666666667 683 554 675.166666667 578 659.5 c 128
 602 643.833333333 614 623.333333333 614 598 c 0
 614 594.666666667 613.333333333 589 612 581 c 0
 608 559 595.666666667 538 575 518 c 0
 547 491.333333333 513.333333333 478 474 478 c 0
 438 478 412.333333333 484.333333333 397 497 c 128
 381.666666667 509.666666667 374 526.333333333 374 547 c 0
 374 560.333333333 376.333333333 572.666666667 381 584 c 1
 367.666666667 576.666666667 357 567.5 349 556.5 c 128
 341 545.5 336.166666667 535.5 334.5 526.5 c 128
 332.833333333 517.5 332 511 332 507 c 0
 332 481.666666667 341 459.333333333 359 440 c 1
 371 439 l 2
 384.333333333 439 394 439.5 400 440.5 c 128
 406 441.5 414.166666667 444.833333333 424.5 450.5 c 128
 434.833333333 456.166666667 444 459 452 459 c 0
 464.666666667 459 471 453.333333333 471 442 c 0
 471 424 457.333333333 409.666666667 430 399 c 0
 411.333333333 391.666666667 396.166666667 379.166666667 384.5 361.5 c 128
 372.833333333 343.833333333 362.333333333 320.666666667 353 292 c 1
 378.333333333 302.666666667 403.333333333 308 428 308 c 0
 459.333333333 308 484.333333333 299.166666667 503 281.5 c 128
 521.666666667 263.833333333 531 237.333333333 531 202 c 0
 531 195.333333333 530.666666667 188.333333333 530 181 c 128
 529.333333333 173.666666667 528 165.666666667 526 157 c 0
 522 138.333333333 511.666666667 119 495 99 c 0
 481 82.3333333333 465.333333333 67.6666666667 448 55 c 1
 460 53 472 52 484 52 c 0
 496.666666667 52 508.333333333 53 519 55 c 128
 529.666666667 57 542.166666667 60.8333333333 556.5 66.5 c 128
 570.833333333 72.1666666667 583 88.3333333333 593 115 c 0
 599 131.666666667 604.666666667 153.666666667 610 181 c 2
 642 327 l 2
 652 373.666666667 673.666666667 410.333333333 707 437 c 0
 735.666666667 459.666666667 767.333333333 471 802 471 c 0
 820.666666667 471 830 465.666666667 830 455 c 0
 830 449 826 441 818 431 c 0
 795.333333333 403 779.333333333 367.333333333 770 324 c 2
 732 148 l 2
 722 98.6666666667 699.166666667 60.3333333333 663.5 33 c 128
 627.833333333 5.66666666667 587 -8 541 -8 c 1
 521.666666667 -5.33333333333 506 -3.66666666667 494 -3 c 0
 457.333333333 0.333333333333 425.666666667 2 399 2 c 0
 381.666666667 2 366.333333333 1 353 -1 c 0
 342.333333333 -2.33333333333 332.5 -1.16666666667 323.5 2.5 c 128
 314.5 6.16666666667 310 12 310 20 c 0
 310 32.6666666667 322.666666667 48.6666666667 348 68 c 0
 358 75.3333333333 367.5 86.5 376.5 101.5 c 128
 385.5 116.5 391.833333333 132.833333333 395.5 150.5 c 128
 399.166666667 168.166666667 401 182 401 192 c 0
 401 224 390 240 368 240 c 0
 359.333333333 240 348.666666667 236.666666667 336 230 c 1
 314 138 l 2
 304 90.6666666667 282.333333333 54.3333333333 249 29 c 0
 220.333333333 7 188.666666667 -4 154 -4 c 0
 134.666666667 -4 125 1.33333333333 125 12 c 0
 125 17.3333333333 129.833333333 26 139.5 38 c 128
 149.166666667 50 158.333333333 65.1666666667 167 83.5 c 128
 175.666666667 101.833333333 182.166666667 121.833333333 186.5 143.5 c 128
 190.833333333 165.166666667 194.666666667 182.333333333 198 195 c 0
 206.666666667 229.666666667 214.666666667 260 222 286 c 1
 236 398 l 1
EndSplineSet
EndChar

StartChar: u0B99_u0BC1
Encoding: 63 -1 63
Width: 838
Flags: HW
AnchorPoint: "V" 453 455 basechar 0
AnchorPoint: "N" 453 -7.52762 basechar 0
LayerCount: 2
Fore
SplineSet
816 425 m 0
 794.666666667 397 779.333333333 361.333333333 770 318 c 2
 691 -48 l 2
 681 -95.3333333333 659 -132 625 -158 c 0
 596.333333333 -180 564.666666667 -191 530 -191 c 0
 511.333333333 -191 502 -185.666666667 502 -175 c 0
 502 -168.333333333 506.166666667 -159.833333333 514.5 -149.5 c 128
 522.833333333 -139.166666667 531 -126.666666667 539 -112 c 0
 549.666666667 -92 557 -71.6666666667 561 -51 c 2
 570 -11 l 1
 565.333333333 -12.3333333333 560 -13 554 -13 c 128
 545 -13 545 -13 540 -13 c 0
 529.333333333 -12.3333333333 520.333333333 -11.6666666667 513 -11 c 0
 460.333333333 -6.33333333333 422.666666667 -4 400 -4 c 0
 381.333333333 -4 365.333333333 -5 352 -7 c 0
 340 -8.33333333333 329.833333333 -7.16666666667 321.5 -3.5 c 128
 313.166666667 0.166666666667 309 6 309 14 c 0
 309 20.6666666667 311.833333333 27.8333333333 317.5 35.5 c 128
 323.166666667 43.1666666667 332.166666667 51.5 344.5 60.5 c 128
 356.833333333 69.5 367.333333333 81.3333333333 376 96 c 128
 384.666666667 110.666666667 390.833333333 127 394.5 145 c 128
 398.166666667 163 400 176.666666667 400 186 c 0
 400 218 389.333333333 234 368 234 c 0
 358.666666667 234 347.666666667 230.666666667 335 224 c 1
 313 132 l 2
 303 84.6666666667 281.333333333 48.3333333333 248 23 c 0
 219.333333333 1 187.666666667 -10 153 -10 c 0
 133.666666667 -10 124 -4.33333333333 124 7 c 0
 124 13 128 20.6666666667 136 30 c 0
 146.666666667 43.3333333333 156.333333333 59 165 77 c 128
 173.666666667 95 180.333333333 114.333333333 185 135 c 0
 192.333333333 169.666666667 199.666666667 201.666666667 207 231 c 0
 211 245 211 245 221 280 c 0
 225.666666667 296 233.166666667 313.666666667 243.5 333 c 128
 253.833333333 352.333333333 265 370.333333333 277 387 c 1
 267 389.666666667 260.333333333 391.333333333 257 392 c 0
 243 392 243 392 234 392 c 0
 210.666666667 392 192.333333333 384.166666667 179 368.5 c 128
 165.666666667 352.833333333 154.666666667 323.666666667 146 281 c 0
 130.666666667 210.333333333 117.666666667 158.666666667 107 126 c 0
 92.3333333333 81.3333333333 73 43.6666666667 49 13 c 0
 43 5.66666666667 36.1666666667 -0.166666666667 28.5 -4.5 c 128
 20.8333333333 -8.83333333333 14 -11 8 -11 c 0
 -4 -11 -10 -5.33333333333 -10 6 c 0
 -10 14.6666666667 -5.33333333333 25 4 37 c 0
 29.3333333333 69.6666666667 49.6666666667 118 65 182 c 0
 65.6666666667 185.333333333 74 224.666666667 90 300 c 0
 99.3333333333 346 117.5 382.5 144.5 409.5 c 128
 171.5 436.5 206.333333333 450 249 450 c 0
 272.333333333 450 298.666666667 446.333333333 328 439 c 0
 344 435 358 433 370 433 c 0
 383.333333333 433 392.833333333 433.5 398.5 434.5 c 128
 404.166666667 435.5 412.333333333 438.833333333 423 444.5 c 128
 433.666666667 450.166666667 443 453 451 453 c 0
 463 453 469 447.333333333 469 436 c 0
 469 428 465.666666667 420 459 412 c 128
 452.333333333 404 442.333333333 397.666666667 429 393 c 0
 410.333333333 385.666666667 395.166666667 373.166666667 383.5 355.5 c 128
 371.833333333 337.833333333 361.333333333 314.666666667 352 286 c 1
 377.333333333 296.666666667 402.333333333 302 427 302 c 0
 458.333333333 302 483.333333333 293.333333333 502 276 c 128
 520.666666667 258.666666667 530 232.333333333 530 197 c 0
 530 185.666666667 529.666666667 177.666666667 529 173 c 128
 528.333333333 168.333333333 527 161.333333333 525 152 c 0
 521 132.666666667 510.666666667 113 494 93 c 0
 480.666666667 77 465 62.6666666667 447 50 c 1
 453.666666667 48.6666666667 460 47.6666666667 466 47 c 128
 472 46.3333333333 479.333333333 46 488 46 c 0
 501.333333333 46 512.166666667 46.8333333333 520.5 48.5 c 128
 528.833333333 50.1666666667 540.333333333 53.6666666667 555 59 c 128
 569.666666667 64.3333333333 580.666666667 75.3333333333 588 92 c 0
 592 100 599 127.666666667 609 175 c 2
 640 321 l 2
 650 367.666666667 672 404.333333333 706 431 c 0
 734.666666667 453.666666667 766.333333333 465 801 465 c 0
 819 465 828 459.666666667 828 449 c 0
 828 442.333333333 824 434.333333333 816 425 c 0
EndSplineSet
EndChar

StartChar: u0B99_u0BC2
Encoding: 64 -1 64
Width: 996
Flags: HW
AnchorPoint: "V" 453 455 basechar 0
AnchorPoint: "N" 453 -7.52762 basechar 0
LayerCount: 2
Fore
SplineSet
887 4 m 0
 867 -89.3333333333 815 -155.333333333 731 -194 c 0
 655 -229.333333333 542.666666667 -247 394 -247 c 0
 309.333333333 -247 241.333333333 -240.666666667 190 -228 c 0
 120 -210.666666667 85 -182.666666667 85 -144 c 0
 85 -138 85.3333333333 -133.333333333 86 -130 c 0
 90 -110.666666667 102.166666667 -94.5 122.5 -81.5 c 128
 142.833333333 -68.5 167.333333333 -62 196 -62 c 0
 210 -62 223.5 -63.5 236.5 -66.5 c 128
 249.5 -69.5 263 -74.3333333333 277 -81 c 0
 286.333333333 -85.6666666667 291 -91 291 -97 c 0
 291 -101.666666667 288.166666667 -105.833333333 282.5 -109.5 c 128
 276.833333333 -113.166666667 269.333333333 -115 260 -115 c 0
 254.666666667 -115 249 -114 243 -112 c 0
 223.666666667 -106 204.666666667 -103 186 -103 c 0
 172 -103 160.833333333 -104.833333333 152.5 -108.5 c 128
 144.166666667 -112.166666667 139 -119 137 -129 c 0
 131.666666667 -153.666666667 151.666666667 -170.666666667 197 -180 c 0
 227 -186 274.666666667 -189 340 -189 c 2
 408 -189 l 2
 498.666666667 -189 574.333333333 -174.333333333 635 -145 c 0
 703 -112.333333333 743.666666667 -64 757 0 c 0
 758.333333333 3.33333333333 759 7 759 11 c 128
 759 17 759 17 759 20 c 0
 759 44.6666666667 749 57 729 57 c 0
 723 57 717 56 711 54 c 1
 706 29 l 2
 696 -19 674.333333333 -55.6666666667 641 -81 c 0
 612.333333333 -103 580.666666667 -114 546 -114 c 0
 526.666666667 -114 517 -108.333333333 517 -97 c 0
 517 -91 520.666666667 -83.5 528 -74.5 c 128
 535.333333333 -65.5 543 -54.6666666667 551 -42 c 0
 556.333333333 -33.3333333333 561.333333333 -23.6666666667 566 -13 c 1
 560 -14.3333333333 551.333333333 -15 540 -15 c 0
 520 -12.3333333333 504 -10.6666666667 492 -10 c 0
 454.666666667 -6.66666666667 423 -5 397 -5 c 0
 379.666666667 -5 364.333333333 -6 351 -8 c 0
 340.333333333 -9.33333333333 330.5 -8.16666666667 321.5 -4.5 c 128
 312.5 -0.833333333333 308 5 308 13 c 0
 308 19 311.166666667 26 317.5 34 c 128
 323.833333333 42 333 50.5 345 59.5 c 128
 357 68.5 367.166666667 80 375.5 94 c 128
 383.833333333 108 390 124.333333333 394 143 c 128
 398 161.666666667 400 176 400 186 c 0
 400 218 389 234 367 234 c 0
 358.333333333 234 347.666666667 230.666666667 335 224 c 1
 333 215.333333333 329.166666667 199.833333333 323.5 177.5 c 128
 317.833333333 155.166666667 314.333333333 139.666666667 313 131 c 0
 303 83.6666666667 281.333333333 47.3333333333 248 22 c 0
 219.333333333 0 187.666666667 -11 153 -11 c 0
 133.666666667 -11 124 -5.33333333333 124 6 c 0
 124 12 128 19.6666666667 136 29 c 0
 159.333333333 57.6666666667 175.333333333 92.6666666667 184 134 c 2
 220 279 l 2
 225.333333333 297 233.333333333 316 244 336 c 0
 252.666666667 352 263.666666667 369 277 387 c 1
 267 389.666666667 260.333333333 391.333333333 257 392 c 0
 243 392 243 392 234 392 c 0
 210.666666667 392 192.333333333 384 179 368 c 128
 165.666666667 352 154.666666667 322.666666667 146 280 c 0
 130.666666667 207.333333333 117.666666667 155.666666667 107 125 c 0
 92.3333333333 81.6666666667 73 44 49 12 c 0
 35 -4.66666666667 21.3333333333 -13 8 -13 c 0
 -4 -13 -10 -7.33333333333 -10 4 c 0
 -10 13.3333333333 -5.33333333333 24 4 36 c 0
 25.3333333333 63.3333333333 42.6666666667 100.666666667 56 148 c 0
 61.3333333333 166 72.6666666667 216.666666667 90 300 c 0
 99.3333333333 346 117.5 382.5 144.5 409.5 c 128
 171.5 436.5 206.333333333 450 249 450 c 0
 272.333333333 450 298.666666667 446.333333333 328 439 c 0
 344 435 358 433 370 433 c 0
 383.333333333 433 392.833333333 433.5 398.5 434.5 c 128
 404.166666667 435.5 412.333333333 438.833333333 423 444.5 c 128
 433.666666667 450.166666667 443 453 451 453 c 0
 463 453 469 447.333333333 469 436 c 0
 469 428 465.666666667 420 459 412 c 128
 452.333333333 404 442.333333333 397.666666667 429 393 c 0
 410.333333333 385 394.666666667 371.666666667 382 353 c 0
 372 337.666666667 362 315.333333333 352 286 c 1
 377.333333333 296.666666667 402.333333333 302 427 302 c 0
 458.333333333 302 483.333333333 293.166666667 502 275.5 c 128
 520.666666667 257.833333333 530 231.333333333 530 196 c 0
 530 189.333333333 529.666666667 182.333333333 529 175 c 128
 528.333333333 167.666666667 527 159.666666667 525 151 c 0
 521 131.666666667 510.666666667 112 494 92 c 0
 480.666666667 76 464.666666667 61.6666666667 446 49 c 1
 452.666666667 47.6666666667 459.166666667 46.6666666667 465.5 46 c 128
 471.833333333 45.3333333333 479.333333333 45 488 45 c 0
 501.333333333 45 512.166666667 45.8333333333 520.5 47.5 c 128
 528.833333333 49.1666666667 541 53 557 59 c 128
 573 65 585.333333333 81.3333333333 594 108 c 0
 595.333333333 112.666666667 600.333333333 134.666666667 609 174 c 2
 640 321 l 2
 650 367.666666667 672 404.333333333 706 431 c 0
 734.666666667 453.666666667 766.333333333 465 801 465 c 0
 819 465 828 459.666666667 828 449 c 0
 828 442.333333333 824 434.333333333 816 425 c 0
 794.666666667 397 779.333333333 361.333333333 770 318 c 2
 726 121 l 1
 743.333333333 127.666666667 763 131 785 131 c 0
 814.333333333 131 839.333333333 123.166666667 860 107.5 c 128
 880.666666667 91.8333333333 891 68 891 36 c 0
 891 30.6666666667 889.666666667 20 887 4 c 0
EndSplineSet
EndChar

StartChar: u0B99_u0BCD
Encoding: 65 -1 65
Width: 838
Flags: HW
AnchorPoint: "N" 453 -7.52762 basechar 0
LayerCount: 2
Fore
SplineSet
525 579 m 0
 521 559 510.666666667 542.333333333 494 529 c 128
 477.333333333 515.666666667 458.666666667 509 438 509 c 0
 420 509 405.666666667 514 395 524 c 128
 384.333333333 534 379 547.666666667 379 565 c 0
 379 567.666666667 379.666666667 572.333333333 381 579 c 0
 385.666666667 599 396.166666667 615.833333333 412.5 629.5 c 128
 428.833333333 643.166666667 447.333333333 650 468 650 c 0
 486 650 500.333333333 645 511 635 c 128
 521.666666667 625 527 611.666666667 527 595 c 0
 527 591 526.333333333 585.666666667 525 579 c 0
818 431 m 0
 794.666666667 401.666666667 778.666666667 366 770 324 c 2
 732 148 l 2
 722 98.6666666667 699.166666667 60.3333333333 663.5 33 c 128
 627.833333333 5.66666666667 587 -8 541 -8 c 1
 521.666666667 -5.33333333333 506 -3.66666666667 494 -3 c 0
 457.333333333 0.333333333333 425.666666667 2 399 2 c 0
 381.666666667 2 366.333333333 1 353 -1 c 0
 342.333333333 -2.33333333333 332.5 -1.16666666667 323.5 2.5 c 128
 314.5 6.16666666667 310 12 310 20 c 0
 310 32.6666666667 322.666666667 48.6666666667 348 68 c 0
 358 75.3333333333 367.666666667 86.5 377 101.5 c 128
 386.333333333 116.5 392.666666667 132.833333333 396 150.5 c 128
 399.333333333 168.166666667 401 182 401 192 c 0
 401 224 390 240 368 240 c 0
 359.333333333 240 348.666666667 236.666666667 336 230 c 1
 314 138 l 2
 304 90.6666666667 282.333333333 54.3333333333 249 29 c 0
 220.333333333 7 188.666666667 -4 154 -4 c 0
 134.666666667 -4 125 1.33333333333 125 12 c 0
 125 17.3333333333 129.666666667 26 139 38 c 128
 148.333333333 50 157.5 65 166.5 83 c 128
 175.5 101 182 120 186 140 c 0
 193.333333333 174.666666667 200.666666667 206.666666667 208 236 c 0
 212 250 212 250 222 285 c 0
 232.666666667 321.666666667 251.666666667 357.666666667 279 393 c 1
 270.333333333 395 264.5 396.333333333 261.5 397 c 128
 258.5 397.666666667 250 398 236 398 c 0
 213.333333333 398 195 389.666666667 181 373 c 128
 167 356.333333333 155.666666667 327.333333333 147 286 c 0
 131.666666667 214.666666667 118.666666667 163 108 131 c 0
 93.3333333333 86.3333333333 74 48.6666666667 50 18 c 0
 44 10 37.3333333333 4 30 0 c 128
 22.6666666667 -4 16 -6 10 -6 c 0
 -2.66666666667 -6 -9 -0.333333333333 -9 11 c 0
 -9 20.3333333333 -4.33333333333 30.6666666667 5 42 c 0
 29.6666666667 74.6666666667 50 123.333333333 66 188 c 0
 66.6666666667 191.333333333 75 230.333333333 91 305 c 0
 101 350.333333333 119.5 386.833333333 146.5 414.5 c 128
 173.5 442.166666667 208 456 250 456 c 0
 272.666666667 456 295 453 317 447 c 128
 339 441 357 438 371 438 c 0
 384.333333333 438 393.833333333 438.5 399.5 439.5 c 128
 405.166666667 440.5 413.333333333 443.833333333 424 449.5 c 128
 434.666666667 455.166666667 444 458 452 458 c 0
 464.666666667 458 471 452.333333333 471 441 c 0
 471 423 457.333333333 409 430 399 c 0
 411.333333333 391.666666667 396.166666667 379 384.5 361 c 128
 372.833333333 343 362.333333333 320 353 292 c 1
 378.333333333 302.666666667 403.333333333 308 428 308 c 0
 459.333333333 308 484.333333333 299.166666667 503 281.5 c 128
 521.666666667 263.833333333 531 237.333333333 531 202 c 0
 531 195.333333333 530.666666667 188.333333333 530 181 c 128
 529.333333333 173.666666667 528 165.666666667 526 157 c 0
 522 137.666666667 511.666666667 118 495 98 c 0
 481.666666667 82 466 67.6666666667 448 55 c 1
 460 53 472 52 484 52 c 0
 496.666666667 52 508.333333333 53 519 55 c 128
 529.666666667 57 542.333333333 60.8333333333 557 66.5 c 128
 571.666666667 72.1666666667 583.666666667 88 593 114 c 0
 597.666666667 126.666666667 603.333333333 148.666666667 610 180 c 2
 642 327 l 2
 651.333333333 373.666666667 673 410 707 436 c 0
 736.333333333 458.666666667 768 470 802 470 c 0
 820.666666667 470 830 464.666666667 830 454 c 0
 830 448 826 440.333333333 818 431 c 0
EndSplineSet
EndChar

StartChar: u0B99_u0BCD.alt
Encoding: 66 -1 66
Width: 693
Flags: HW
AnchorPoint: "N" 453 -7.52762 basechar 0
LayerCount: 2
Fore
SplineSet
532 583 m 0
 526 554.333333333 510.666666667 529.666666667 486 509 c 128
 461.333333333 488.333333333 434.666666667 478 406 478 c 0
 381.333333333 478 361 486 345 502 c 128
 329 518 321 538 321 562 c 0
 321 566.666666667 321.666666667 573.666666667 323 583 c 0
 329 611.666666667 344.5 636.166666667 369.5 656.5 c 128
 394.5 676.833333333 421.333333333 687 450 687 c 0
 474.666666667 687 494.833333333 679.166666667 510.5 663.5 c 128
 526.166666667 647.833333333 534 628 534 604 c 0
 534 594.666666667 533.333333333 587.666666667 532 583 c 0
596 -3 m 1
 141 -3 l 1
 151 44 l 1
 270 44 l 1
 296 53.3333333333 317 69.1666666667 333 91.5 c 128
 349 113.833333333 360.333333333 139.333333333 367 168 c 0
 368.333333333 177.333333333 369 184 369 188 c 0
 369 204.666666667 364.666666667 217.666666667 356 227 c 128
 347.333333333 236.333333333 336.333333333 241 323 241 c 0
 302.333333333 241 287 230.333333333 277 209 c 1
 259 123 l 1
 168 123 l 1
 227 399 l 1
 134 399 l 1
 48 -3 l 1
 -4 -3 l 1
 93 452 l 1
 426 452 l 1
 415 399 l 1
 318 399 l 1
 294 286 l 1
 312.666666667 297.333333333 332.666666667 303 354 303 c 0
 382 303 405.333333333 294.333333333 424 277 c 0
 445.333333333 257 456 230.666666667 456 198 c 0
 456 192.666666667 455.5 186.666666667 454.5 180 c 128
 453.5 173.333333333 452.666666667 168 452 164 c 0
 446 135.333333333 436.666666667 111.166666667 424 91.5 c 128
 411.333333333 71.8333333333 396.333333333 56 379 44 c 1
 519 44 l 1
 606 452 l 1
 693 452 l 1
 596 -3 l 1
489 586 m 0
 489.666666667 588.666666667 490 592.333333333 490 597 c 0
 490 610.333333333 485.333333333 621.666666667 476 631 c 128
 466.666666667 640.333333333 455 645 441 645 c 0
 424.333333333 645 409 639.333333333 395 628 c 128
 381 616.666666667 372.333333333 602.666666667 369 586 c 0
 368.333333333 583.333333333 368 579.333333333 368 574 c 0
 368 560.666666667 372.333333333 549.333333333 381 540 c 128
 389.666666667 530.666666667 401.333333333 526 416 526 c 0
 432 526 447.333333333 532 462 544 c 128
 476.666666667 556 485.666666667 570 489 586 c 0
EndSplineSet
EndChar

StartChar: u0B95_u0BB7
Encoding: 67 -1 67
Width: 1315
Flags: HW
AnchorPoint: "V" 453 455 basechar 0
AnchorPoint: "N" 453 -4 basechar 0
LayerCount: 2
Fore
SplineSet
1212 35 m 0
 1209.33333333 23 1201.83333333 12.8333333333 1189.5 4.5 c 128
 1177.16666667 -3.83333333333 1161.66666667 -8 1143 -8 c 0
 1138.33333333 -7.33333333333 1134.66666667 -7 1132 -7 c 2
 987 -8 l 1
 975 -24.6666666667 964 -41.3333333333 954 -58 c 128
 944 -74.6666666667 935 -91.6666666667 927 -109 c 0
 919.666666667 -121.666666667 914.833333333 -133 912.5 -143 c 128
 910.166666667 -153 909 -163.666666667 909 -175 c 2
 909 -195 l 2
 909 -206.333333333 907.333333333 -214 904 -218 c 128
 900.666666667 -222 892 -224 878 -224 c 0
 856.666666667 -224 840.666666667 -220.666666667 830 -214 c 0
 810.666666667 -202 801 -180.333333333 801 -149 c 0
 801 -135.666666667 802.833333333 -121 806.5 -105 c 128
 810.166666667 -89 819 -69.3333333333 833 -46 c 0
 841.666666667 -32 850.333333333 -18.3333333333 859 -5 c 1
 831.666666667 -5 806.166666667 -4.83333333333 782.5 -4.5 c 128
 758.833333333 -4.16666666667 737 -4 717 -4 c 0
 695 -4 676.666666667 -4.33333333333 662 -5 c 128
 647.333333333 -5.66666666667 633.666666667 -6.33333333333 621 -7 c 0
 603 -7 594 1.66666666667 594 19 c 0
 594 26.3333333333 596.666666667 32.8333333333 602 38.5 c 128
 607.333333333 44.1666666667 616 48.3333333333 628 51 c 0
 651.333333333 56.3333333333 669.333333333 65.3333333333 682 78 c 0
 699.333333333 94.6666666667 711.666666667 120.666666667 719 156 c 0
 720.333333333 160 721 164.333333333 721 169 c 128
 721 176 721 176 721 179 c 0
 721 203.666666667 713.166666667 224.166666667 697.5 240.5 c 128
 681.833333333 256.833333333 665.333333333 265 648 265 c 0
 625.333333333 265 603.666666667 261.333333333 583 254 c 1
 622.333333333 236 642 207.333333333 642 168 c 0
 642 162 640.666666667 151.666666667 638 137 c 0
 632 106.333333333 615.666666667 76.3333333333 589 47 c 0
 554.333333333 8.33333333333 512.666666667 -11 464 -11 c 0
 446 -11 428.666666667 -5 412 7 c 0
 390 23 379 45.3333333333 379 74 c 0
 379 83.3333333333 380 93 382 103 c 0
 387.333333333 127.666666667 395.166666667 150.166666667 405.5 170.5 c 128
 415.833333333 190.833333333 428.666666667 209 444 225 c 1
 405 226 l 1
 390 160 l 2
 379.333333333 108 356.5 67.1666666667 321.5 37.5 c 128
 286.5 7.83333333333 240.666666667 -7 184 -7 c 0
 130 -7 87.8333333333 1.83333333333 57.5 19.5 c 128
 27.1666666667 37.1666666667 12 62 12 94 c 0
 12 102 13 110 15 118 c 0
 23 156.666666667 37.8333333333 188.333333333 59.5 213 c 128
 81.1666666667 237.666666667 112.666666667 256.333333333 154 269 c 1
 161 299 l 2
 170.333333333 344.333333333 187.333333333 379.666666667 212 405 c 0
 240.666666667 434.333333333 278 449 324 449 c 0
 348 449 370.333333333 446.166666667 391 440.5 c 128
 411.666666667 434.833333333 428.333333333 432 441 432 c 0
 454.333333333 432 463.833333333 432.5 469.5 433.5 c 128
 475.166666667 434.5 483.166666667 437.666666667 493.5 443 c 128
 503.833333333 448.333333333 513 451 521 451 c 0
 533.666666667 451 540 445.333333333 540 434 c 0
 540 416 526.333333333 402 499 392 c 0
 477 382.666666667 459 366 445 342 c 1
 420 284 l 1
 438.666666667 284 453.5 283.333333333 464.5 282 c 128
 475.5 280.666666667 489.666666667 278.666666667 507 276 c 1
 530.333333333 290.666666667 556.5 302.166666667 585.5 310.5 c 128
 614.5 318.833333333 640.666666667 323 664 323 c 0
 722 323 767.833333333 310.166666667 801.5 284.5 c 128
 835.166666667 258.833333333 852 225.333333333 852 184 c 0
 852 174.666666667 851 164.333333333 849 153 c 0
 845 135.666666667 838.166666667 118.666666667 828.5 102 c 128
 818.833333333 85.3333333333 806.666666667 69.3333333333 792 54 c 1
 812 54 831.333333333 53.8333333333 850 53.5 c 128
 868.666666667 53.1666666667 884.666666667 52.3333333333 898 51 c 1
 903.333333333 57 911 67 921 81 c 0
 924.333333333 85.6666666667 936.666666667 104.333333333 958 137 c 1
 940.666666667 152.333333333 927 168 917 184 c 0
 904.333333333 204.666666667 898 226.333333333 898 249 c 0
 898 258.333333333 899 268 901 278 c 0
 911 325.333333333 932.166666667 365.666666667 964.5 399 c 128
 996.833333333 432.333333333 1034 449 1076 449 c 0
 1122 449 1156 440.666666667 1178 424 c 128
 1200 407.333333333 1211 384.333333333 1211 355 c 0
 1211 343.666666667 1209.66666667 333 1207 323 c 0
 1200.33333333 297.666666667 1186 268 1164 234 c 0
 1150 212.666666667 1125.66666667 178.666666667 1091 132 c 1
 1138.33333333 109.333333333 1167.66666667 94 1179 86 c 0
 1204.33333333 68.6666666667 1215.33333333 51.6666666667 1212 35 c 0
1076 319 m 0
 1079.33333333 325.666666667 1082.16666667 333 1084.5 341 c 128
 1086.83333333 349 1088 356.333333333 1088 363 c 0
 1088 381.666666667 1078 391 1058 391 c 256
 1038 391 1018.33333333 379.333333333 999 356 c 128
 979.666666667 332.666666667 966.666666667 305.333333333 960 274 c 0
 959.333333333 272 959 268.666666667 959 264 c 0
 959 252.666666667 962.5 240.666666667 969.5 228 c 128
 976.5 215.333333333 985.333333333 203.666666667 996 193 c 1
 1008.66666667 210.333333333 1022.5 230.666666667 1037.5 254 c 128
 1052.5 277.333333333 1065.33333333 299 1076 319 c 0
1100 48 m 0
 1102.66666667 48.6666666667 1105.33333333 49.6666666667 1108 51 c 1
 1106 53.6666666667 1104 55.3333333333 1102 56 c 0
 1098.66666667 58 1090.5 62 1077.5 68 c 128
 1064.5 74 1055.33333333 77.6666666667 1050 79 c 1
 1027 49 l 1
 1039 47.6666666667 1049.33333333 47 1058 47 c 0
 1068 47 1068 47 1078.5 47 c 128
 1085.5 47 1092.66666667 47.3333333333 1100 48 c 0
504 117 m 0
 506 124.333333333 507.333333333 131.5 508 138.5 c 128
 508.666666667 145.5 509 152.666666667 509 160 c 0
 509 177.333333333 505.333333333 191.333333333 498 202 c 1
 468.666666667 171.333333333 449.666666667 137.666666667 441 101 c 0
 439 93.6666666667 437.833333333 88.1666666667 437.5 84.5 c 128
 437.166666667 80.8333333333 437 76.3333333333 437 71 c 0
 437 57.6666666667 442.666666667 51 454 51 c 0
 462 51 471.5 58.1666666667 482.5 72.5 c 128
 493.5 86.8333333333 500.666666667 101.666666667 504 117 c 0
347 386 m 1
 341 388 336.666666667 389.333333333 334 390 c 128
 331.333333333 390.666666667 323.333333333 391 310 391 c 256
 296.666666667 391 285 389.166666667 275 385.5 c 128
 265 381.833333333 256.333333333 375.5 249 366.5 c 128
 241.666666667 357.5 235.666666667 346.666666667 231 334 c 128
 226.333333333 321.333333333 221.333333333 303.333333333 216 280 c 1
 292 284 l 1
 295.333333333 294 298.333333333 302.333333333 301 309 c 0
 307 324.333333333 311.833333333 335.166666667 315.5 341.5 c 128
 319.166666667 347.833333333 324.333333333 355.666666667 331 365 c 128
 337.666666667 374.333333333 343 381.333333333 347 386 c 1
278 227 m 1
 265.333333333 227 254.166666667 226.5 244.5 225.5 c 128
 234.833333333 224.5 223.666666667 220.333333333 211 213 c 0
 191.666666667 202.333333333 177 189.5 167 174.5 c 128
 157 159.5 150.333333333 144 147 128 c 128
 143.666666667 112 142 99 142 89 c 0
 142 75 145.166666667 65.1666666667 151.5 59.5 c 128
 157.833333333 53.8333333333 168 51 182 51 c 0
 210 51 230.333333333 64.3333333333 243 91 c 0
 247 99.6666666667 253.333333333 123.666666667 262 163 c 2
 278 227 l 1
EndSplineSet
EndChar

StartChar: u0B95_u0BB7_u0BBF
Encoding: 68 -1 68
Width: 1379
Flags: HW
AnchorPoint: "V" 453 455 basechar 0
AnchorPoint: "N" 453 -4 basechar 0
LayerCount: 2
Fore
SplineSet
1375 498 m 0
 1370.33333333 476.666666667 1362.66666667 452.666666667 1352 426 c 0
 1344.66666667 408 1333.66666667 384 1319 354 c 0
 1317.66666667 345.333333333 1319.33333333 336.833333333 1324 328.5 c 128
 1328.66666667 320.166666667 1330.33333333 312.333333333 1329 305 c 0
 1327 295.666666667 1322.16666667 287.166666667 1314.5 279.5 c 128
 1306.83333333 271.833333333 1298.33333333 268 1289 268 c 256
 1279.66666667 268 1271.5 272.5 1264.5 281.5 c 128
 1257.5 290.5 1254 300.666666667 1254 312 c 0
 1254 318.666666667 1254.66666667 323.333333333 1256 326 c 0
 1276 373.333333333 1296.33333333 420.666666667 1317 468 c 0
 1317.66666667 473.333333333 1318.5 478.5 1319.5 483.5 c 128
 1320.5 488.5 1321 494 1321 500 c 0
 1321 522 1314.33333333 539 1301 551 c 128
 1287.66666667 563 1267 569 1239 569 c 0
 1206.33333333 569 1180.33333333 561.333333333 1161 546 c 128
 1141.66666667 530.666666667 1129.33333333 510.333333333 1124 485 c 0
 1122.66666667 475.666666667 1122 468.333333333 1122 463 c 256
 1122 457.666666667 1122.33333333 454 1123 452 c 0
 1153 446 1175.33333333 435 1190 419 c 128
 1204.66666667 403 1212 383 1212 359 c 0
 1212 347.666666667 1210.66666667 337 1208 327 c 0
 1200 298.333333333 1180 260.666666667 1148 214 c 0
 1126 181.333333333 1107.33333333 155 1092 135 c 1
 1147.33333333 108.333333333 1182 88.6666666667 1196 76 c 128
 1210 63.3333333333 1215.66666667 50.3333333333 1213 37 c 0
 1210.33333333 25 1202.83333333 14.8333333333 1190.5 6.5 c 128
 1178.16666667 -1.83333333333 1162.66666667 -6 1144 -6 c 0
 1138.66666667 -5.33333333333 1134.66666667 -5 1132 -5 c 2
 988 -6 l 1
 976.666666667 -22 965.833333333 -38.5 955.5 -55.5 c 128
 945.166666667 -72.5 936 -88.8333333333 928 -104.5 c 128
 920 -120.166666667 914.833333333 -133 912.5 -143 c 128
 910.166666667 -153 909 -163.666666667 909 -175 c 2
 909 -195 l 2
 909 -206.333333333 907.333333333 -214 904 -218 c 128
 900.666666667 -222 892 -224 878 -224 c 0
 851.333333333 -224 832 -217.666666667 820 -205 c 128
 808 -192.333333333 802 -174 802 -150 c 0
 802 -136.666666667 803.666666667 -121.5 807 -104.5 c 128
 810.333333333 -87.5 819 -67.3333333333 833 -44 c 0
 845 -26 853.666666667 -12.3333333333 859 -3 c 1
 831.666666667 -3 806.166666667 -2.83333333333 782.5 -2.5 c 128
 758.833333333 -2.16666666667 737 -2 717 -2 c 0
 695 -2 676.666666667 -2.33333333333 662 -3 c 128
 647.333333333 -3.66666666667 633.666666667 -4.33333333333 621 -5 c 0
 603 -5 594 3.66666666667 594 21 c 0
 594 28.3333333333 596.5 35 601.5 41 c 128
 606.5 47 615.333333333 51.3333333333 628 54 c 0
 652 59.3333333333 670.333333333 68.3333333333 683 81 c 0
 700.333333333 97.6666666667 712.666666667 124 720 160 c 0
 721.333333333 164 722 168.333333333 722 173 c 128
 722 180 722 180 722 183 c 0
 722 207.666666667 714.166666667 228.166666667 698.5 244.5 c 128
 682.833333333 260.833333333 666.333333333 269 649 269 c 0
 626.333333333 269 604.666666667 265.333333333 584 258 c 1
 623.333333333 240 643 211 643 171 c 0
 643 165 641.666666667 154.666666667 639 140 c 0
 631.666666667 108 615 77.6666666667 589 49 c 0
 553.666666667 10.3333333333 512 -9 464 -9 c 0
 444.666666667 -9 427.333333333 -3.33333333333 412 8 c 0
 390 24 379 46.6666666667 379 76 c 0
 379 81.3333333333 380.833333333 93.8333333333 384.5 113.5 c 128
 388.166666667 133.166666667 395.5 153.333333333 406.5 174 c 128
 417.5 194.666666667 430.333333333 213 445 229 c 1
 406 230 l 1
 391 163 l 2
 379.666666667 111 356.5 70 321.5 40 c 128
 286.5 10 240.666666667 -5 184 -5 c 0
 130 -5 88 3.66666666667 58 21 c 128
 28 38.3333333333 13 63.6666666667 13 97 c 0
 13 105 14 113 16 121 c 0
 24 160.333333333 39 192.5 61 217.5 c 128
 83 242.5 114.333333333 261 155 273 c 1
 161 303 l 2
 171 349 188.333333333 384.666666667 213 410 c 0
 242.333333333 440 280 455 326 455 c 0
 349.333333333 455 371 452 391 446 c 128
 411 440 428 437 442 437 c 0
 455.333333333 437 464.666666667 437.5 470 438.5 c 128
 475.333333333 439.5 483.333333333 442.833333333 494 448.5 c 128
 504.666666667 454.166666667 514 457 522 457 c 0
 534.666666667 457 541 451.333333333 541 440 c 0
 541 422 528.666666667 408 504 398 c 128
 479.333333333 388 460 371 446 347 c 1
 421 289 l 1
 439.666666667 289 454.5 288.333333333 465.5 287 c 128
 476.5 285.666666667 490.666666667 283.666666667 508 281 c 1
 532 295.666666667 558.166666667 307.166666667 586.5 315.5 c 128
 614.833333333 323.833333333 641 328 665 328 c 0
 722.333333333 328 768 315 802 289 c 128
 836 263 853 229.333333333 853 188 c 0
 853 182 851.5 170.833333333 848.5 154.5 c 128
 845.5 138.166666667 839.5 122 830.5 106 c 128
 821.5 90 809 73.6666666667 793 57 c 1
 813 57 832.333333333 56.8333333333 851 56.5 c 128
 869.666666667 56.1666666667 885.333333333 55.3333333333 898 54 c 1
 909.333333333 66 922.333333333 83 937 105 c 0
 947 121.666666667 954.333333333 133.333333333 959 140 c 1
 940.333333333 155.333333333 926.333333333 171 917 187 c 0
 905 207 899 229 899 253 c 0
 899 263 900 273 902 283 c 0
 911.333333333 326.333333333 931.333333333 364.666666667 962 398 c 128
 992.666666667 431.333333333 1027.33333333 450 1066 454 c 1
 1065.33333333 458 1065 462.5 1065 467.5 c 128
 1065 475 1065 475 1065 479 c 0
 1065 485.666666667 1065.33333333 493.166666667 1066 501.5 c 128
 1066.66666667 509.833333333 1068 518 1070 526 c 0
 1080 571.333333333 1099.66666667 607.333333333 1129 634 c 0
 1162.33333333 664 1206 679 1260 679 c 0
 1302 679 1332.83333333 668.666666667 1352.5 648 c 128
 1372.16666667 627.333333333 1382 597.666666667 1382 559 c 0
 1382 539 1379.66666667 518.666666667 1375 498 c 0
1077 324 m 0
 1080.33333333 330.666666667 1083.16666667 338 1085.5 346 c 128
 1087.83333333 354 1089 361.333333333 1089 368 c 0
 1089 386.666666667 1079 396 1059 396 c 256
 1039 396 1019.33333333 384.333333333 1000 361 c 128
 980.666666667 337.666666667 967.666666667 310 961 278 c 0
 960.333333333 276 960 272.666666667 960 268 c 0
 960 256.666666667 963.5 244.666666667 970.5 232 c 128
 977.5 219.333333333 986.333333333 207.666666667 997 197 c 1
 1009.66666667 214.333333333 1023.83333333 235.166666667 1039.5 259.5 c 128
 1055.16666667 283.833333333 1067.66666667 305.333333333 1077 324 c 0
1101 50 m 0
 1103.66666667 50.6666666667 1106.33333333 51.6666666667 1109 53 c 0
 1108.33333333 55 1106.33333333 57 1103 59 c 0
 1085 68.3333333333 1067.33333333 75.6666666667 1050 81 c 1
 1028 51 l 1
 1040 49.6666666667 1050.33333333 49 1059 49 c 0
 1069 49 1069 49 1079.5 49 c 128
 1086.5 49 1093.66666667 49.3333333333 1101 50 c 0
505 120 m 0
 508.333333333 138.666666667 510 153.333333333 510 164 c 0
 510 180.666666667 506.333333333 194.333333333 499 205 c 1
 469.666666667 174.333333333 450.666666667 140.666666667 442 104 c 0
 439.333333333 92.6666666667 438 82.3333333333 438 73 c 0
 438 60.3333333333 443.333333333 54 454 54 c 0
 462.666666667 54 472.5 61.1666666667 483.5 75.5 c 128
 494.5 89.8333333333 501.666666667 104.666666667 505 120 c 0
348 391 m 1
 342 393 337.666666667 394.333333333 335 395 c 128
 332.333333333 395.666666667 324.333333333 396 311 396 c 256
 297.666666667 396 286 394.166666667 276 390.5 c 128
 266 386.833333333 257.333333333 380.5 250 371.5 c 128
 242.666666667 362.5 236.666666667 351.666666667 232 339 c 128
 227.333333333 326.333333333 222.333333333 308.333333333 217 285 c 1
 293 289 l 1
 297 299.666666667 301 310.5 305 321.5 c 128
 309 332.5 313.333333333 341.333333333 318 348 c 0
 321.333333333 355.333333333 326 363 332 371 c 0
 336 376 336 376 348 391 c 1
279 231 m 1
 250.333333333 231 227.166666667 226 209.5 216 c 128
 191.833333333 206 178 193.5 168 178.5 c 128
 158 163.5 151.166666667 147.833333333 147.5 131.5 c 128
 143.833333333 115.166666667 142 102 142 92 c 0
 142 78 145.166666667 68.1666666667 151.5 62.5 c 128
 157.833333333 56.8333333333 168 54 182 54 c 0
 210 54 230.333333333 67.3333333333 243 94 c 0
 248.333333333 106 254.666666667 130 262 166 c 2
 279 231 l 1
EndSplineSet
EndChar

StartChar: u0B95_u0BB7_u0BC0
Encoding: 69 -1 69
Width: 1389
Flags: HW
AnchorPoint: "V" 453 455 basechar 0
AnchorPoint: "N" 453 -4 basechar 0
LayerCount: 2
Fore
SplineSet
1402 580 m 0
 1395.33333333 548.666666667 1376.66666667 522.666666667 1346 502 c 0
 1321.33333333 485.333333333 1293.66666667 477 1263 477 c 0
 1227.66666667 477 1202.33333333 483.166666667 1187 495.5 c 128
 1171.66666667 507.833333333 1164 524.333333333 1164 545 c 0
 1164 549.666666667 1164.5 555 1165.5 561 c 128
 1166.5 567 1168.33333333 574.333333333 1171 583 c 1
 1158.33333333 576.333333333 1147.83333333 567.333333333 1139.5 556 c 128
 1131.16666667 544.666666667 1126.16666667 533.833333333 1124.5 523.5 c 128
 1122.83333333 513.166666667 1122 506.333333333 1122 503 c 0
 1122 493 1123.66666667 483.166666667 1127 473.5 c 128
 1130.33333333 463.833333333 1134.66666667 455 1140 447 c 1
 1164.66666667 440.333333333 1182.83333333 429.5 1194.5 414.5 c 128
 1206.16666667 399.5 1212 381.333333333 1212 360 c 0
 1212 348.666666667 1210.66666667 338 1208 328 c 0
 1201.33333333 302.666666667 1187 272.666666667 1165 238 c 0
 1149 213.333333333 1124.66666667 179 1092 135 c 1
 1147.33333333 108.333333333 1182 88.6666666667 1196 76 c 128
 1210 63.3333333333 1215.66666667 50.3333333333 1213 37 c 0
 1210.33333333 25 1202.83333333 14.8333333333 1190.5 6.5 c 128
 1178.16666667 -1.83333333333 1162.66666667 -6 1144 -6 c 0
 1138.66666667 -5.33333333333 1134.66666667 -5 1132 -5 c 2
 988 -6 l 1
 976.666666667 -22 965.833333333 -38.5 955.5 -55.5 c 128
 945.166666667 -72.5 936 -88.8333333333 928 -104.5 c 128
 920 -120.166666667 914.833333333 -133 912.5 -143 c 128
 910.166666667 -153 909 -163.666666667 909 -175 c 2
 909 -195 l 2
 909 -206.333333333 907.333333333 -214 904 -218 c 128
 900.666666667 -222 892 -224 878 -224 c 0
 851.333333333 -224 832 -217.666666667 820 -205 c 128
 808 -192.333333333 802 -174 802 -150 c 0
 802 -136.666666667 803.666666667 -121.5 807 -104.5 c 128
 810.333333333 -87.5 819 -67.3333333333 833 -44 c 0
 845 -26 853.666666667 -12.3333333333 859 -3 c 1
 831.666666667 -3 806.166666667 -2.83333333333 782.5 -2.5 c 128
 758.833333333 -2.16666666667 737 -2 717 -2 c 0
 695 -2 676.666666667 -2.33333333333 662 -3 c 128
 647.333333333 -3.66666666667 633.666666667 -4.33333333333 621 -5 c 0
 603 -5 594 3.66666666667 594 21 c 0
 594 28.3333333333 596.5 35 601.5 41 c 128
 606.5 47 615.333333333 51.3333333333 628 54 c 0
 652 59.3333333333 670.333333333 68.3333333333 683 81 c 0
 700.333333333 97.6666666667 712.666666667 124 720 160 c 0
 721.333333333 164 722 168.333333333 722 173 c 128
 722 180 722 180 722 183 c 0
 722 207.666666667 714.166666667 228.166666667 698.5 244.5 c 128
 682.833333333 260.833333333 666.333333333 269 649 269 c 0
 626.333333333 269 604.666666667 265.333333333 584 258 c 1
 623.333333333 240 643 211 643 171 c 0
 643 165 641.666666667 154.666666667 639 140 c 0
 631.666666667 108 615 77.6666666667 589 49 c 0
 553.666666667 10.3333333333 512 -9 464 -9 c 0
 444.666666667 -9 427.333333333 -3.33333333333 412 8 c 0
 390 24 379 46.6666666667 379 76 c 0
 379 81.3333333333 380.833333333 93.8333333333 384.5 113.5 c 128
 388.166666667 133.166666667 395.5 153.333333333 406.5 174 c 128
 417.5 194.666666667 430.333333333 213 445 229 c 1
 406 230 l 1
 391 163 l 2
 379.666666667 111 356.5 70 321.5 40 c 128
 286.5 10 240.666666667 -5 184 -5 c 0
 130 -5 88 3.66666666667 58 21 c 128
 28 38.3333333333 13 63.6666666667 13 97 c 0
 13 105 14 113 16 121 c 0
 24 160.333333333 39 192.5 61 217.5 c 128
 83 242.5 114.333333333 261 155 273 c 1
 161 303 l 2
 171 349.666666667 188.333333333 385.666666667 213 411 c 0
 241.666666667 440.333333333 279.333333333 455 326 455 c 0
 349.333333333 455 371 452 391 446 c 128
 411 440 428 437 442 437 c 0
 455.333333333 437 464.666666667 437.5 470 438.5 c 128
 475.333333333 439.5 483.333333333 442.833333333 494 448.5 c 128
 504.666666667 454.166666667 514 457 522 457 c 0
 534.666666667 457 541 451.333333333 541 440 c 0
 541 422 527.333333333 407.666666667 500 397 c 0
 478.666666667 388.333333333 460.666666667 371.666666667 446 347 c 1
 421 289 l 1
 439.666666667 289 454.5 288.333333333 465.5 287 c 128
 476.5 285.666666667 490.666666667 283.666666667 508 281 c 1
 532 295.666666667 558.166666667 307.166666667 586.5 315.5 c 128
 614.833333333 323.833333333 641 328 665 328 c 0
 722.333333333 328 768 315 802 289 c 128
 836 263 853 229.333333333 853 188 c 0
 853 182 851.5 170.833333333 848.5 154.5 c 128
 845.5 138.166666667 839.5 122 830.5 106 c 128
 821.5 90 809 73.6666666667 793 57 c 1
 813 57 832.333333333 56.8333333333 851 56.5 c 128
 869.666666667 56.1666666667 885.333333333 55.3333333333 898 54 c 1
 909.333333333 66 922.333333333 83 937 105 c 0
 947 121.666666667 954.333333333 133.333333333 959 140 c 1
 940.333333333 155.333333333 926.333333333 171 917 187 c 0
 905 207 899 229 899 253 c 0
 899 263 900 273 902 283 c 0
 912 329 933.5 369.166666667 966.5 403.5 c 128
 999.5 437.833333333 1036.66666667 455 1078 455 c 2
 1065 455 l 1
 1062.33333333 461.666666667 1061 473 1061 489 c 0
 1061 498 1061 498 1061 504 c 128
 1061 508 1062.33333333 516.333333333 1065 529 c 0
 1074.33333333 571.666666667 1097.33333333 607.333333333 1134 636 c 0
 1174.66666667 667.333333333 1224.33333333 683 1283 683 c 0
 1315.66666667 683 1344 675 1368 659 c 128
 1392 643 1404 622.333333333 1404 597 c 0
 1404 593.666666667 1403.33333333 588 1402 580 c 0
1274 570 m 0
 1278.66666667 588.666666667 1272 598 1254 598 c 0
 1236.66666667 598 1225.66666667 589.333333333 1221 572 c 0
 1219 564.666666667 1219.66666667 558.333333333 1223 553 c 128
 1226.33333333 547.666666667 1232.33333333 545 1241 545 c 0
 1250.33333333 545 1257.5 547.166666667 1262.5 551.5 c 128
 1267.5 555.833333333 1271.33333333 562 1274 570 c 0
1077 324 m 0
 1080.33333333 330.666666667 1083.16666667 338 1085.5 346 c 128
 1087.83333333 354 1089 361.333333333 1089 368 c 0
 1089 386.666666667 1079 396 1059 396 c 256
 1039 396 1019.33333333 384.333333333 1000 361 c 128
 980.666666667 337.666666667 967.666666667 310 961 278 c 0
 958.333333333 266 960.833333333 252.333333333 968.5 237 c 128
 976.166666667 221.666666667 985.666666667 208.333333333 997 197 c 1
 1009.66666667 214.333333333 1023.83333333 235.166666667 1039.5 259.5 c 128
 1055.16666667 283.833333333 1067.66666667 305.333333333 1077 324 c 0
1101 50 m 0
 1103.66666667 50.6666666667 1106.33333333 51.6666666667 1109 53 c 0
 1108.33333333 55 1106.33333333 57 1103 59 c 0
 1085 68.3333333333 1067.33333333 75.6666666667 1050 81 c 1
 1028 51 l 1
 1040 49.6666666667 1050.33333333 49 1059 49 c 0
 1069 49 1069 49 1079.5 49 c 128
 1086.5 49 1093.66666667 49.3333333333 1101 50 c 0
505 120 m 0
 508.333333333 138.666666667 510 153.333333333 510 164 c 0
 510 181.333333333 506.333333333 195.333333333 499 206 c 1
 469 174 450 140 442 104 c 0
 439.333333333 92.6666666667 438 82.3333333333 438 73 c 0
 438 60.3333333333 443.333333333 54 454 54 c 0
 462.666666667 54 472.5 61.1666666667 483.5 75.5 c 128
 494.5 89.8333333333 501.666666667 104.666666667 505 120 c 0
348 391 m 1
 342 393 337.666666667 394.333333333 335 395 c 128
 332.333333333 395.666666667 324.333333333 396 311 396 c 256
 297.666666667 396 286 394.166666667 276 390.5 c 128
 266 386.833333333 257.333333333 380.5 250 371.5 c 128
 242.666666667 362.5 236.666666667 351.666666667 232 339 c 128
 227.333333333 326.333333333 222.333333333 308.333333333 217 285 c 1
 293 289 l 1
 297 299.666666667 301 310.5 305 321.5 c 128
 309 332.5 313.333333333 341.333333333 318 348 c 0
 321.333333333 355.333333333 326 363 332 371 c 0
 336 376 336 376 348 391 c 1
279 231 m 1
 250.333333333 231 227.166666667 226 209.5 216 c 128
 191.833333333 206 178 193.5 168 178.5 c 128
 158 163.5 151.166666667 147.833333333 147.5 131.5 c 128
 143.833333333 115.166666667 142 102 142 92 c 0
 142 78 145.166666667 68.1666666667 151.5 62.5 c 128
 157.833333333 56.8333333333 168 54 182 54 c 0
 210 54 230.333333333 67.3333333333 243 94 c 0
 248.333333333 106 254.666666667 130 262 166 c 2
 279 231 l 1
EndSplineSet
EndChar

StartChar: u0B95_u0BB7_u0BCD
Encoding: 70 -1 70
Width: 1315
Flags: HW
AnchorPoint: "N" 453 -4 basechar 0
LayerCount: 2
Fore
SplineSet
845 579 m 0
 841 559.666666667 830.5 543 813.5 529 c 128
 796.5 515 778 508 758 508 c 0
 740.666666667 508 726.5 513.166666667 715.5 523.5 c 128
 704.5 533.833333333 699 547.333333333 699 564 c 0
 699 567.333333333 699.666666667 572.333333333 701 579 c 0
 705.666666667 599 716.166666667 615.833333333 732.5 629.5 c 128
 748.833333333 643.166666667 767.333333333 650 788 650 c 0
 806 650 820.333333333 645 831 635 c 128
 841.666666667 625 847 611.666666667 847 595 c 0
 847 591 846.333333333 585.666666667 845 579 c 0
1213 37 m 0
 1210.33333333 25 1202.83333333 14.8333333333 1190.5 6.5 c 128
 1178.16666667 -1.83333333333 1162.66666667 -6 1144 -6 c 0
 1138.66666667 -5.33333333333 1134.66666667 -5 1132 -5 c 2
 988 -6 l 1
 976.666666667 -22 965.833333333 -38.5 955.5 -55.5 c 128
 945.166666667 -72.5 936 -88.8333333333 928 -104.5 c 128
 920 -120.166666667 914.833333333 -133 912.5 -143 c 128
 910.166666667 -153 909 -163.666666667 909 -175 c 2
 909 -195 l 2
 909 -206.333333333 907.333333333 -214 904 -218 c 128
 900.666666667 -222 892 -224 878 -224 c 0
 851.333333333 -224 832 -217.666666667 820 -205 c 128
 808 -192.333333333 802 -174 802 -150 c 0
 802 -136.666666667 803.666666667 -121.5 807 -104.5 c 128
 810.333333333 -87.5 819 -67.3333333333 833 -44 c 0
 845 -26 853.666666667 -12.3333333333 859 -3 c 1
 831.666666667 -3 806.166666667 -2.83333333333 782.5 -2.5 c 128
 758.833333333 -2.16666666667 737 -2 717 -2 c 0
 695 -2 676.666666667 -2.33333333333 662 -3 c 128
 647.333333333 -3.66666666667 633.666666667 -4.33333333333 621 -5 c 0
 603 -5 594 3.66666666667 594 21 c 0
 594 28.3333333333 596.5 35 601.5 41 c 128
 606.5 47 615.333333333 51.3333333333 628 54 c 0
 650.666666667 58.6666666667 669 67.6666666667 683 81 c 0
 700.333333333 97.6666666667 712.666666667 123.666666667 720 159 c 0
 721.333333333 163 722 167.333333333 722 172 c 128
 722 179 722 179 722 182 c 0
 722 206.666666667 714.333333333 227.333333333 699 244 c 128
 683.666666667 260.666666667 667 269 649 269 c 0
 626.333333333 269 604.666666667 265.333333333 584 258 c 1
 622.666666667 239.333333333 642 209.666666667 642 169 c 0
 642 159.666666667 641 150 639 140 c 0
 631.666666667 108 615 77.6666666667 589 49 c 0
 553.666666667 10.3333333333 512 -9 464 -9 c 0
 446 -9 428.666666667 -3 412 9 c 0
 390 25 379 47.3333333333 379 76 c 0
 379 85.3333333333 380 95 382 105 c 0
 387.333333333 131 395 153.666666667 405 173 c 128
 415 192.333333333 428.333333333 211 445 229 c 1
 406 230 l 1
 391 163 l 2
 379.666666667 110.333333333 356.5 69.1666666667 321.5 39.5 c 128
 286.5 9.83333333333 240.666666667 -5 184 -5 c 0
 130 -5 88 3.66666666667 58 21 c 128
 28 38.3333333333 13 63.6666666667 13 97 c 0
 13 105 14 113 16 121 c 0
 24 159.666666667 39 191.5 61 216.5 c 128
 83 241.5 114.333333333 260.333333333 155 273 c 1
 161 303 l 2
 171 349 188.333333333 384.666666667 213 410 c 0
 241.666666667 439.333333333 279 454 325 454 c 0
 349 454 371.333333333 451.166666667 392 445.5 c 128
 412.666666667 439.833333333 429.333333333 437 442 437 c 0
 455.333333333 437 464.666666667 437.5 470 438.5 c 128
 475.333333333 439.5 483.333333333 442.833333333 494 448.5 c 128
 504.666666667 454.166666667 514 457 522 457 c 0
 534.666666667 457 541 451 541 439 c 0
 541 421 527.333333333 407 500 397 c 0
 478.666666667 387.666666667 460.666666667 371 446 347 c 1
 421 288 l 1
 439.666666667 288 454.5 287.333333333 465.5 286 c 128
 476.5 284.666666667 490.666666667 282.666666667 508 280 c 1
 533.333333333 296 559.5 307.833333333 586.5 315.5 c 128
 613.5 323.166666667 639.666666667 327 665 327 c 0
 722.333333333 327 768 314 802 288 c 128
 836 262 853 228.666666667 853 188 c 0
 853 178.666666667 852.333333333 171.666666667 851 167 c 128
 849.666666667 162.333333333 849 158.666666667 849 156 c 0
 845.666666667 138.666666667 839.333333333 122 830 106 c 128
 820.666666667 90 808.333333333 73.6666666667 793 57 c 1
 813 57 832.333333333 56.8333333333 851 56.5 c 128
 869.666666667 56.1666666667 885.333333333 55.3333333333 898 54 c 1
 907.333333333 63.3333333333 918.166666667 77.5 930.5 96.5 c 128
 942.833333333 115.5 952.333333333 130 959 140 c 1
 940.333333333 155.333333333 926.333333333 171 917 187 c 0
 905 207 899 229 899 253 c 0
 899 262.333333333 900 272 902 282 c 0
 912 328.666666667 932.666666667 368.333333333 964 401 c 0
 998 436.333333333 1035.66666667 454 1077 454 c 0
 1123 454 1157 445.666666667 1179 429 c 128
 1201 412.333333333 1212 389.333333333 1212 360 c 0
 1212 348 1210.66666667 337 1208 327 c 0
 1201.33333333 301 1187 271 1165 237 c 0
 1152.33333333 216.333333333 1128 182.333333333 1092 135 c 1
 1147.33333333 108.333333333 1182 88.6666666667 1196 76 c 128
 1210 63.3333333333 1215.66666667 50.3333333333 1213 37 c 0
1077 323 m 0
 1079.66666667 329 1082.33333333 336.333333333 1085 345 c 128
 1087.66666667 353.666666667 1089 361.333333333 1089 368 c 0
 1089 386.666666667 1079 396 1059 396 c 256
 1039 396 1019.33333333 384.333333333 1000 361 c 128
 980.666666667 337.666666667 967.666666667 310 961 278 c 0
 960.333333333 276 960 272.666666667 960 268 c 0
 960 256 963.5 243.666666667 970.5 231 c 128
 977.5 218.333333333 986.333333333 206.666666667 997 196 c 1
 1009 212 1022.83333333 232.5 1038.5 257.5 c 128
 1054.16666667 282.5 1067 304.333333333 1077 323 c 0
1101 50 m 0
 1103.66666667 50.6666666667 1106.33333333 51.6666666667 1109 53 c 0
 1108.33333333 55 1106.33333333 57 1103 59 c 0
 1090.33333333 65 1078.83333333 70 1068.5 74 c 128
 1058.16666667 78 1052 80.3333333333 1050 81 c 2
 1028 51 l 1
 1040 49.6666666667 1050.33333333 49 1059 49 c 0
 1069 49 1069 49 1079.5 49 c 128
 1086.5 49 1093.66666667 49.3333333333 1101 50 c 0
505 120 m 0
 508.333333333 138.666666667 510 153.333333333 510 164 c 0
 510 180.666666667 506.333333333 194.333333333 499 205 c 1
 469.666666667 174.333333333 450.666666667 140.666666667 442 104 c 0
 439.333333333 92.6666666667 438 82.3333333333 438 73 c 0
 438 60.3333333333 443.333333333 54 454 54 c 0
 462.666666667 54 472.5 61.1666666667 483.5 75.5 c 128
 494.5 89.8333333333 501.666666667 104.666666667 505 120 c 0
348 391 m 1
 342 393 337.666666667 394.333333333 335 395 c 128
 332.333333333 395.666666667 324.333333333 396 311 396 c 0
 297 396 285.166666667 394.166666667 275.5 390.5 c 128
 265.833333333 386.833333333 257.333333333 380.333333333 250 371 c 128
 242.666666667 361.666666667 236.666666667 351 232 339 c 128
 227.333333333 327 222 308.666666667 216 284 c 1
 293 288 l 1
 300.333333333 308 304.333333333 319.333333333 305 322 c 0
 308.333333333 331.333333333 312.666666667 340 318 348 c 0
 320.666666667 353.333333333 325.333333333 360.666666667 332 370 c 128
 338.666666667 379.333333333 344 386.333333333 348 391 c 1
279 231 m 1
 250.333333333 231 227 225.833333333 209 215.5 c 128
 191 205.166666667 177.333333333 192.833333333 168 178.5 c 128
 158.666666667 164.166666667 151.333333333 146 146 124 c 0
 143.333333333 112.666666667 142 101.666666667 142 91 c 0
 142 77 145.333333333 67.3333333333 152 62 c 128
 158.666666667 56.6666666667 168.666666667 54 182 54 c 0
 210 54 230.333333333 67.3333333333 243 94 c 0
 248.333333333 106 254.666666667 130 262 166 c 2
 279 231 l 1
EndSplineSet
EndChar

StartChar: u0B9A
Encoding: 71 2970 71
Width: 603
Flags: HW
AnchorPoint: "V" 453 455 basechar 0
AnchorPoint: "N" 453 108.893 basechar 0
LayerCount: 2
Fore
SplineSet
554 294 m 0
 541.333333333 268.666666667 521.666666667 251 495 241 c 0
 473.666666667 233 444 229 406 229 c 1
 391 164 l 2
 380.333333333 112.666666667 357.5 72.5 322.5 43.5 c 128
 287.5 14.5 241.666666667 0 185 0 c 0
 130.333333333 0 88 8.5 58 25.5 c 128
 28 42.5 13 67.3333333333 13 100 c 0
 13 107.333333333 14 115 16 123 c 0
 24.6666666667 161.666666667 39.6666666667 193 61 217 c 128
 82.3333333333 241 113.666666667 259 155 271 c 1
 161 301 l 2
 170.333333333 345.666666667 187.333333333 380.666666667 212 406 c 0
 240 434.666666667 277.333333333 449 324 449 c 0
 348 449 370.333333333 446.166666667 391 440.5 c 128
 411.666666667 434.833333333 428.333333333 432 441 432 c 0
 454.333333333 432 463.833333333 432.5 469.5 433.5 c 128
 475.166666667 434.5 483.5 437.833333333 494.5 443.5 c 128
 505.5 449.166666667 514.666666667 452 522 452 c 0
 534 452 540 446.333333333 540 435 c 0
 540 427.666666667 536.666666667 420 530 412 c 128
 523.333333333 404 513.333333333 397.666666667 500 393 c 0
 477.333333333 383.666666667 459 367.333333333 445 344 c 1
 421 287 l 1
 458.333333333 287 483.333333333 289.833333333 496 295.5 c 128
 508.666666667 301.166666667 518 310.333333333 524 323 c 0
 529.333333333 328.333333333 536.333333333 331 545 331 c 0
 557 331 563 326 563 316 c 0
 563 310.666666667 560 303.333333333 554 294 c 0
347 387 m 1
 341 389 336.666666667 390.333333333 334 391 c 128
 331.333333333 391.666666667 323.333333333 392 310 392 c 256
 296.666666667 392 285 390.166666667 275 386.5 c 128
 265 382.833333333 256.166666667 376.5 248.5 367.5 c 128
 240.833333333 358.5 233.666666667 343.333333333 227 322 c 0
 223 308.666666667 219.333333333 295.666666667 216 283 c 1
 293 287 l 1
 297 297.666666667 301 308.166666667 305 318.5 c 128
 309 328.833333333 313 337.666666667 317 345 c 0
 325.666666667 359 335.666666667 373 347 387 c 1
279 230 m 1
 266.333333333 230 255 229.5 245 228.5 c 128
 235 227.5 224 223.666666667 212 217 c 0
 192.666666667 206.333333333 177.833333333 192.5 167.5 175.5 c 128
 157.166666667 158.5 149.666666667 139 145 117 c 0
 143 107.666666667 142 100 142 94 c 0
 142 69.3333333333 155.666666667 57 183 57 c 0
 211 57 231.333333333 70.3333333333 244 97 c 0
 248.666666667 107 254.666666667 130.333333333 262 167 c 2
 279 230 l 1
EndSplineSet
EndChar

StartChar: u0B9A_u0BBF
Encoding: 72 -1 72
Width: 689
Flags: HW
AnchorPoint: "V" 453 645.015 basechar 0
AnchorPoint: "N" 453 108.893 basechar 0
LayerCount: 2
Fore
SplineSet
685 499 m 0
 680.333333333 475.666666667 673 452 663 428 c 0
 656.333333333 410.666666667 645.333333333 386.666666667 630 356 c 0
 628.666666667 348 630.166666667 339.833333333 634.5 331.5 c 128
 638.833333333 323.166666667 640.333333333 315.333333333 639 308 c 0
 637.666666667 298.666666667 633 290.666666667 625 284 c 128
 617 277.333333333 607.666666667 274 597 274 c 0
 587.666666667 274 579.833333333 277.833333333 573.5 285.5 c 128
 567.166666667 293.166666667 564 302.333333333 564 313 c 0
 564 317.666666667 565 322.666666667 567 328 c 0
 587 374.666666667 607.333333333 421.666666667 628 469 c 0
 628.666666667 474.333333333 629.5 479.5 630.5 484.5 c 128
 631.5 489.5 632 494.666666667 632 500 c 0
 632 546.666666667 604.333333333 570 549 570 c 0
 516.333333333 570 490.333333333 562.333333333 471 547 c 128
 451.666666667 531.666666667 439.666666667 511.666666667 435 487 c 0
 433.666666667 482.333333333 433 475.333333333 433 466 c 0
 433 455.333333333 434.333333333 446.333333333 437 439 c 1
 451.666666667 439 462.333333333 439.5 469 440.5 c 128
 475.666666667 441.5 484.333333333 444.833333333 495 450.5 c 128
 505.666666667 456.166666667 515 459 523 459 c 0
 535.666666667 459 542 453.333333333 542 442 c 0
 542 424 528.333333333 409.666666667 501 399 c 0
 479 390.333333333 460.666666667 374 446 350 c 1
 422 291 l 1
 451.333333333 291 472.166666667 292.333333333 484.5 295 c 128
 496.833333333 297.666666667 507.333333333 304.666666667 516 316 c 0
 520 320.666666667 526 323 534 323 c 0
 548 323 555 317.333333333 555 306 c 0
 555 300.666666667 552 293.333333333 546 284 c 0
 535.333333333 265.333333333 518.333333333 252.166666667 495 244.5 c 128
 471.666666667 236.833333333 442.333333333 233 407 233 c 1
 391 167 l 2
 380.333333333 115 357.5 74.1666666667 322.5 44.5 c 128
 287.5 14.8333333333 241.666666667 0 185 0 c 0
 131 0 89 8.66666666667 59 26 c 128
 29 43.3333333333 14 68.3333333333 14 101 c 0
 14 109 15 117 17 125 c 0
 25 163.666666667 40 195.5 62 220.5 c 128
 84 245.5 115.333333333 264 156 276 c 1
 162 306 l 2
 172 352 189.333333333 387.666666667 214 413 c 0
 242.666666667 442.333333333 280 457 326 457 c 0
 346 457 362.666666667 455.333333333 376 452 c 1
 375.333333333 456 375 460.5 375 465.5 c 128
 375 473 375 473 375 477 c 0
 375 495 376.666666667 511.666666667 380 527 c 0
 390 572.333333333 409.666666667 608 439 634 c 0
 473 664 516.666666667 679 570 679 c 0
 611.333333333 679 642 668.666666667 662 648 c 128
 682 627.333333333 692 598 692 560 c 0
 692 540 689.666666667 519.666666667 685 499 c 0
349 393 m 1
 342.333333333 395.666666667 337.666666667 397.166666667 335 397.5 c 128
 332.333333333 397.833333333 324.666666667 398 312 398 c 0
 298 398 286.166666667 396.333333333 276.5 393 c 128
 266.833333333 389.666666667 258.333333333 383.5 251 374.5 c 128
 243.666666667 365.5 237.333333333 353.666666667 232 339 c 128
 226.666666667 324.333333333 221.666666667 307.333333333 217 288 c 1
 294 291 l 1
 301.333333333 311 305.333333333 322.333333333 306 325 c 0
 309.333333333 334.333333333 313.666666667 343 319 351 c 0
 322.333333333 357.666666667 327 365 333 373 c 128
 339 381 344.333333333 387.666666667 349 393 c 1
280 234 m 1
 267.333333333 234 256 233.5 246 232.5 c 128
 236 231.5 225 227.666666667 213 221 c 0
 193.666666667 210.333333333 178.833333333 196.166666667 168.5 178.5 c 128
 158.166666667 160.833333333 150.333333333 141 145 119 c 0
 143.666666667 113 143 105.333333333 143 96 c 0
 143 70.6666666667 156.333333333 58 183 58 c 0
 211 58 231.333333333 71.3333333333 244 98 c 0
 248 106.666666667 254.333333333 130.666666667 263 170 c 2
 280 234 l 1
EndSplineSet
EndChar

StartChar: u0B9A_u0BC0
Encoding: 73 -1 73
Width: 669
Flags: HW
AnchorPoint: "V" 453 659.875 basechar 0
AnchorPoint: "N" 453 108.893 basechar 0
LayerCount: 2
Fore
SplineSet
682 581 m 0
 678 559 665.666666667 538 645 518 c 0
 617 491.333333333 583.333333333 478 544 478 c 0
 509.333333333 478 484 484.5 468 497.5 c 128
 452 510.5 444 527 444 547 c 0
 444 551.666666667 444.666666667 557.333333333 446 564 c 128
 447.333333333 570.666666667 449 577.333333333 451 584 c 1
 437.666666667 576.666666667 427 567.5 419 556.5 c 128
 411 545.5 406.166666667 535.166666667 404.5 525.5 c 128
 402.833333333 515.833333333 402 509.333333333 402 506 c 0
 402 493.333333333 404.333333333 481.5 409 470.5 c 128
 413.666666667 459.5 420 449.333333333 428 440 c 1
 442 439 l 2
 455.333333333 439 465 439.5 471 440.5 c 128
 477 441.5 485.166666667 444.833333333 495.5 450.5 c 128
 505.833333333 456.166666667 515 459 523 459 c 0
 535.666666667 459 542 453.333333333 542 442 c 0
 542 424 528.333333333 409.666666667 501 399 c 0
 479 390.333333333 460.666666667 374 446 350 c 1
 422 291 l 1
 452 291 473 292.666666667 485 296 c 0
 504.333333333 301.333333333 517.666666667 312 525 328 c 0
 529.666666667 333.333333333 536.666666667 336 546 336 c 0
 558 336 564 331 564 321 c 0
 564 314.333333333 561.333333333 307 556 299 c 0
 543.333333333 273 523.333333333 255 496 245 c 0
 474.666666667 237 445 233 407 233 c 1
 391 167 l 2
 380.333333333 115 357.5 74.1666666667 322.5 44.5 c 128
 287.5 14.8333333333 241.666666667 0 185 0 c 0
 131 0 89 8.66666666667 59 26 c 128
 29 43.3333333333 14 68.3333333333 14 101 c 0
 14 109 15 117 17 125 c 0
 25 163.666666667 40 195.5 62 220.5 c 128
 84 245.5 115.333333333 264 156 276 c 1
 162 306 l 2
 172 352 189.333333333 387.666666667 214 413 c 0
 242.666666667 442.333333333 280 457 326 457 c 2
 346 456 l 1
 342.666666667 468 341 480 341 492 c 0
 341 502 342.666666667 514.666666667 346 530 c 0
 354.666666667 572 377.333333333 607.333333333 414 636 c 0
 454.666666667 667.333333333 504.333333333 683 563 683 c 0
 595.666666667 683 624 675.166666667 648 659.5 c 128
 672 643.833333333 684 623.333333333 684 598 c 0
 684 594.666666667 683.333333333 589 682 581 c 0
554 571 m 0
 556.666666667 579 556.166666667 585.5 552.5 590.5 c 128
 548.833333333 595.5 542.666666667 598 534 598 c 0
 526 598 519 595.666666667 513 591 c 128
 507 586.333333333 503 580.333333333 501 573 c 256
 499 565.666666667 499.666666667 559.333333333 503 554 c 128
 506.333333333 548.666666667 512.333333333 546 521 546 c 256
 529.666666667 546 536.833333333 548.333333333 542.5 553 c 128
 548.166666667 557.666666667 552 563.666666667 554 571 c 0
349 393 m 1
 342.333333333 395.666666667 337.666666667 397.166666667 335 397.5 c 128
 332.333333333 397.833333333 324.666666667 398 312 398 c 0
 298 398 286.166666667 396.333333333 276.5 393 c 128
 266.833333333 389.666666667 258.333333333 383.5 251 374.5 c 128
 243.666666667 365.5 237.333333333 353.666666667 232 339 c 128
 226.666666667 324.333333333 221.666666667 307.333333333 217 288 c 1
 236.333333333 290 262 291 294 291 c 1
 301.333333333 311 305.333333333 322.333333333 306 325 c 0
 309.333333333 334.333333333 313.666666667 343 319 351 c 0
 322.333333333 357.666666667 327 365 333 373 c 128
 339 381 344.333333333 387.666666667 349 393 c 1
280 234 m 1
 267.333333333 234 256 233.5 246 232.5 c 128
 236 231.5 225 227.666666667 213 221 c 0
 193.666666667 210.333333333 178.833333333 196.166666667 168.5 178.5 c 128
 158.166666667 160.833333333 150.333333333 141 145 119 c 0
 143.666666667 113 143 105.333333333 143 96 c 0
 143 70.6666666667 156.333333333 58 183 58 c 0
 211 58 231.333333333 71.3333333333 244 98 c 0
 248 106.666666667 254.333333333 130.666666667 263 170 c 2
 280 234 l 1
EndSplineSet
EndChar

StartChar: u0B9A_u0BC1
Encoding: 74 -1 74
Width: 643
Flags: HW
AnchorPoint: "V" 453 455 basechar 0
AnchorPoint: "N" 453 108.893 basechar 0
LayerCount: 2
Fore
SplineSet
588 265 m 0
 578 253 565.666666667 243.666666667 551 237 c 0
 539.666666667 232.333333333 533.666666667 228 533 224 c 2
 514 140 l 2
 507.333333333 109.333333333 496.333333333 86.8333333333 481 72.5 c 128
 465.666666667 58.1666666667 447.333333333 51 426 51 c 0
 411.333333333 51 404 56.3333333333 404 67 c 0
 404 72.3333333333 406 78.6666666667 410 86 c 0
 416 92 421.833333333 100.166666667 427.5 110.5 c 128
 433.166666667 120.833333333 437 131.333333333 439 142 c 2
 450 192 l 2
 451.333333333 201.333333333 452 206.666666667 452 208 c 0
 452 216 447.333333333 220 438 220 c 0
 423.333333333 220 412 221.666666667 404 225 c 1
 391 164 l 2
 380.333333333 112.666666667 357.5 72.5 322.5 43.5 c 128
 287.5 14.5 241.666666667 0 185 0 c 0
 130.333333333 0 88 8.5 58 25.5 c 128
 28 42.5 13 67.3333333333 13 100 c 0
 13 107.333333333 14 115 16 123 c 0
 24.6666666667 161.666666667 39.6666666667 193 61 217 c 128
 82.3333333333 241 113.666666667 259 155 271 c 1
 161 301 l 2
 170.333333333 345.666666667 187.333333333 380.666666667 212 406 c 0
 240 434.666666667 277.333333333 449 324 449 c 0
 348 449 370.333333333 446.166666667 391 440.5 c 128
 411.666666667 434.833333333 428.333333333 432 441 432 c 0
 454.333333333 432 463.833333333 432.5 469.5 433.5 c 128
 475.166666667 434.5 483.5 437.833333333 494.5 443.5 c 128
 505.5 449.166666667 514.666666667 452 522 452 c 0
 534 452 540 446.333333333 540 435 c 0
 540 427.666666667 536.666666667 420 530 412 c 128
 523.333333333 404 513.333333333 397.666666667 500 393 c 0
 477.333333333 383.666666667 459 367.333333333 445 344 c 0
 443 339.333333333 439.333333333 330.666666667 434 318 c 128
 428.666666667 305.333333333 424 293.333333333 420 282 c 1
 442 274.666666667 465.666666667 271 491 271 c 0
 507.666666667 271 521.666666667 272.833333333 533 276.5 c 128
 544.333333333 280.166666667 552.666666667 286.333333333 558 295 c 0
 563.333333333 300.333333333 570 303 578 303 c 0
 590.666666667 303 597 297.666666667 597 287 c 0
 597 281.666666667 594 274.333333333 588 265 c 0
347 387 m 1
 341 389 336.666666667 390.333333333 334 391 c 128
 331.333333333 391.666666667 323.333333333 392 310 392 c 256
 296.666666667 392 285 390.166666667 275 386.5 c 128
 265 382.833333333 256.166666667 376.5 248.5 367.5 c 128
 240.833333333 358.5 233.666666667 343.333333333 227 322 c 0
 223 308.666666667 219.333333333 295.666666667 216 283 c 1
 293 287 l 1
 297 297.666666667 301 308.166666667 305 318.5 c 128
 309 328.833333333 313 337.666666667 317 345 c 0
 325.666666667 359 335.666666667 373 347 387 c 1
279 230 m 1
 266.333333333 230 255 229.5 245 228.5 c 128
 235 227.5 224 223.666666667 212 217 c 0
 192.666666667 206.333333333 177.833333333 192.5 167.5 175.5 c 128
 157.166666667 158.5 149.666666667 139 145 117 c 0
 143 107.666666667 142 100 142 94 c 0
 142 69.3333333333 155.666666667 57 183 57 c 0
 211 57 231.333333333 70.3333333333 244 97 c 0
 248.666666667 107 254.666666667 130.333333333 262 167 c 2
 279 230 l 1
EndSplineSet
EndChar

StartChar: u0B9A_u0BC2
Encoding: 75 -1 75
Width: 775
Flags: HW
AnchorPoint: "V" 453 455 basechar 0
AnchorPoint: "N" 453 108.893 basechar 0
LayerCount: 2
Fore
SplineSet
674 42 m 0
 662 -12 639 -58.3333333333 605 -97 c 0
 551 -157.666666667 472 -198 368 -218 c 0
 345.333333333 -222.666666667 321 -225 295 -225 c 0
 246.333333333 -225 206.666666667 -216.666666667 176 -200 c 0
 142 -181.333333333 125 -156 125 -124 c 0
 125 -120 125.666666667 -113.333333333 127 -104 c 0
 131 -84 143.166666667 -67.5 163.5 -54.5 c 128
 183.833333333 -41.5 208.666666667 -35 238 -35 c 0
 264 -35 290.666666667 -41.3333333333 318 -54 c 0
 327.333333333 -58.6666666667 332 -64.3333333333 332 -71 c 0
 332 -75.6666666667 329.333333333 -79.6666666667 324 -83 c 128
 318.666666667 -86.3333333333 311.666666667 -88 303 -88 c 0
 297.666666667 -88 291.333333333 -87 284 -85 c 0
 264.666666667 -79.6666666667 246 -77 228 -77 c 0
 212.666666667 -77 200.833333333 -78.8333333333 192.5 -82.5 c 128
 184.166666667 -86.1666666667 179.333333333 -91.1666666667 178 -97.5 c 128
 176.666666667 -103.833333333 176 -110 176 -116 c 0
 176 -135.333333333 186 -150.166666667 206 -160.5 c 128
 226 -170.833333333 252 -176 284 -176 c 0
 311.333333333 -176 338 -172.666666667 364 -166 c 0
 436 -148 487.666666667 -113 519 -61 c 0
 531.666666667 -39.6666666667 543 -5.33333333333 553 42 c 0
 555 51.3333333333 556 60.6666666667 556 70 c 0
 556 87.3333333333 553.166666667 101.666666667 547.5 113 c 128
 541.833333333 124.333333333 533.333333333 130 522 130 c 0
 520.666666667 130 517.333333333 129.333333333 512 128 c 1
 504.666666667 99.3333333333 493.333333333 78.3333333333 478 65 c 128
 462.666666667 51.6666666667 445 45 425 45 c 0
 410.333333333 45 403 50.3333333333 403 61 c 0
 403 66.3333333333 405 73 409 81 c 1
 423.666666667 95.6666666667 433.333333333 114.666666667 438 138 c 2
 449 188 l 2
 449.666666667 191.333333333 450.166666667 194.666666667 450.5 198 c 128
 450.833333333 201.333333333 451 203.666666667 451 205 c 0
 451 213 446.666666667 217 438 217 c 2
 427 217 l 2
 417 217 409 218.333333333 403 221 c 1
 390 160 l 2
 379.333333333 108 356.5 67.1666666667 321.5 37.5 c 128
 286.5 7.83333333333 240.666666667 -7 184 -7 c 0
 130 -7 87.8333333333 1.83333333333 57.5 19.5 c 128
 27.1666666667 37.1666666667 12 62 12 94 c 0
 12 102 13 110 15 118 c 0
 23 156.666666667 37.8333333333 188.333333333 59.5 213 c 128
 81.1666666667 237.666666667 112.666666667 256.333333333 154 269 c 1
 161 299 l 2
 170.333333333 344.333333333 187.333333333 379.666666667 212 405 c 0
 240.666666667 434.333333333 278 449 324 449 c 0
 348 449 370.333333333 446.166666667 391 440.5 c 128
 411.666666667 434.833333333 428.333333333 432 441 432 c 0
 454.333333333 432 463.833333333 432.5 469.5 433.5 c 128
 475.166666667 434.5 483.166666667 437.666666667 493.5 443 c 128
 503.833333333 448.333333333 513 451 521 451 c 0
 533.666666667 451 540 445.333333333 540 434 c 0
 540 416 526.333333333 402 499 392 c 0
 477 382.666666667 459 366 445 342 c 1
 419 279 l 1
 441 271.666666667 464.666666667 268 490 268 c 0
 506.666666667 268 520.666666667 269.833333333 532 273.5 c 128
 543.333333333 277.166666667 551.666666667 283.666666667 557 293 c 0
 562.333333333 298.333333333 569 301 577 301 c 0
 589.666666667 301 596 295.333333333 596 284 c 0
 596 277.333333333 593.333333333 270 588 262 c 0
 578 250 566.333333333 241 553 235 c 128
 539.666666667 229 532.666666667 224 532 220 c 2
 525 189 l 1
 537 192.333333333 548.666666667 194 560 194 c 0
 592 194 619 184.333333333 641 165 c 0
 665.666666667 143 678 113.666666667 678 77 c 0
 678 68 678 68 678 60 c 0
 676 52 674.666666667 46 674 42 c 0
347 386 m 1
 341 388 336.666666667 389.333333333 334 390 c 128
 331.333333333 390.666666667 323.333333333 391 310 391 c 256
 296.666666667 391 285 389.166666667 275 385.5 c 128
 265 381.833333333 256.333333333 375.5 249 366.5 c 128
 241.666666667 357.5 235.666666667 346.666666667 231 334 c 128
 226.333333333 321.333333333 221.333333333 303.333333333 216 280 c 1
 292 284 l 1
 295.333333333 294 298.333333333 302.333333333 301 309 c 0
 307 324.333333333 311.833333333 335.166666667 315.5 341.5 c 128
 319.166666667 347.833333333 324.333333333 355.666666667 331 365 c 128
 337.666666667 374.333333333 343 381.333333333 347 386 c 1
278 227 m 1
 265.333333333 227 254.166666667 226.5 244.5 225.5 c 128
 234.833333333 224.5 223.666666667 220.333333333 211 213 c 0
 191.666666667 202.333333333 176.833333333 188.333333333 166.5 171 c 128
 156.166666667 153.666666667 148.666666667 134 144 112 c 0
 142 102.666666667 141 94.6666666667 141 88 c 0
 141 63.3333333333 154.666666667 51 182 51 c 0
 210 51 230.333333333 64.3333333333 243 91 c 0
 247 99.6666666667 253.333333333 123.666666667 262 163 c 2
 278 227 l 1
EndSplineSet
EndChar

StartChar: u0B9A_u0BCD
Encoding: 76 -1 76
Width: 603
Flags: HW
AnchorPoint: "N" 453 108.893 basechar 0
LayerCount: 2
Fore
SplineSet
525 579 m 0
 521 559 510.666666667 542.333333333 494 529 c 128
 477.333333333 515.666666667 458.666666667 509 438 509 c 0
 420 509 405.666666667 514 395 524 c 128
 384.333333333 534 379 547.666666667 379 565 c 0
 379 567.666666667 379.666666667 572.333333333 381 579 c 0
 385.666666667 599 396.166666667 615.833333333 412.5 629.5 c 128
 428.833333333 643.166666667 447.333333333 650 468 650 c 0
 486 650 500.333333333 645 511 635 c 128
 521.666666667 625 527 611.666666667 527 595 c 0
 527 591 526.333333333 585.666666667 525 579 c 0
556 299 m 0
 543.333333333 273 523.333333333 255 496 245 c 0
 474.666666667 237 445 233 407 233 c 1
 391 167 l 2
 380.333333333 115 357.5 74.1666666667 322.5 44.5 c 128
 287.5 14.8333333333 241.666666667 0 185 0 c 0
 131 0 89 8.66666666667 59 26 c 128
 29 43.3333333333 14 68.3333333333 14 101 c 0
 14 109 15 117 17 125 c 0
 25 163.666666667 39.8333333333 195.333333333 61.5 220 c 128
 83.1666666667 244.666666667 114.666666667 263.333333333 156 276 c 1
 162 306 l 2
 172 351.333333333 189.333333333 386.666666667 214 412 c 0
 242.666666667 441.333333333 280 456 326 456 c 0
 347.333333333 456 365 454.333333333 379 451 c 0
 413.666666667 443 434.666666667 439 442 439 c 0
 455.333333333 439 465.166666667 439.5 471.5 440.5 c 128
 477.833333333 441.5 486 444.666666667 496 450 c 128
 506 455.333333333 515 458 523 458 c 0
 535.666666667 458 542 452.333333333 542 441 c 0
 542 423 528.333333333 409 501 399 c 0
 477.666666667 389 459.333333333 372.333333333 446 349 c 1
 422 291 l 1
 452 291 473 292.666666667 485 296 c 0
 504.333333333 301.333333333 517.666666667 312 525 328 c 0
 530.333333333 333.333333333 537.333333333 336 546 336 c 0
 558 336 564 331 564 321 c 0
 564 314.333333333 561.333333333 307 556 299 c 0
349 393 m 1
 342.333333333 395.666666667 337.666666667 397.166666667 335 397.5 c 128
 332.333333333 397.833333333 324.666666667 398 312 398 c 0
 298 398 286.166666667 396.333333333 276.5 393 c 128
 266.833333333 389.666666667 258.166666667 383.333333333 250.5 374 c 128
 242.833333333 364.666666667 236.666666667 353.666666667 232 341 c 128
 227.333333333 328.333333333 222.333333333 310.333333333 217 287 c 1
 294 291 l 1
 298 301.666666667 302.166666667 312.666666667 306.5 324 c 128
 310.833333333 335.333333333 315 344.5 319 351.5 c 128
 323 358.5 327.333333333 365.333333333 332 372 c 0
 334.666666667 376 340.333333333 383 349 393 c 1
280 234 m 1
 251.333333333 234 228.166666667 229 210.5 219 c 128
 192.833333333 209 178.833333333 195.333333333 168.5 178 c 128
 158.166666667 160.666666667 150.333333333 140.666666667 145 118 c 0
 143.666666667 112 143 104.333333333 143 95 c 0
 143 70.3333333333 156.333333333 58 183 58 c 0
 211 58 231.333333333 71.3333333333 244 98 c 0
 248 106.666666667 254.333333333 130.666666667 263 170 c 2
 280 234 l 1
EndSplineSet
EndChar

StartChar: u0B9C
Encoding: 77 2972 77
Width: 725
Flags: HW
AnchorPoint: "V" 453 455 basechar 0
AnchorPoint: "N" 453 -154 basechar 0
LayerCount: 2
Fore
SplineSet
614 -3 m 0
 606 -41.6666666667 585.666666667 -74.6666666667 553 -102 c 0
 511.666666667 -136.666666667 457 -154 389 -154 c 0
 358.333333333 -154 336.166666667 -148.666666667 322.5 -138 c 128
 308.833333333 -127.333333333 302 -113.666666667 302 -97 c 256
 302 -80.3333333333 308 -64 320 -48 c 128
 332 -32 344.333333333 -22.6666666667 357 -20 c 1
 359.666666667 -42.6666666667 375.333333333 -54 404 -54 c 0
 426.666666667 -54 445 -49 459 -39 c 128
 473 -29 481.166666667 -18.6666666667 483.5 -8 c 128
 485.833333333 2.66666666667 487 10.6666666667 487 16 c 0
 487 25.3333333333 484.5 32.8333333333 479.5 38.5 c 128
 474.5 44.1666666667 466.333333333 47 455 47 c 0
 417.666666667 47 376.333333333 31 331 -1 c 0
 291 -31 251.333333333 -61 212 -91 c 1
 162.666666667 -123.666666667 115.333333333 -140 70 -140 c 0
 48 -140 29 -132 13 -116 c 0
 -5 -97.3333333333 -14 -71.3333333333 -14 -38 c 0
 -14 -27.3333333333 -12.3333333333 -13 -9 5 c 0
 -1 43 24.6666666667 72.6666666667 68 94 c 0
 98.6666666667 109.333333333 147 123 213 135 c 0
 317.666666667 154.333333333 371.666666667 164.333333333 375 165 c 0
 420.333333333 176.333333333 456.666666667 193 484 215 c 0
 516 241 536.333333333 274 545 314 c 0
 548.333333333 332.666666667 550 347.333333333 550 358 c 0
 550 380.666666667 541 392 523 392 c 0
 507 392 492.666666667 386 480 374 c 0
 470.666666667 364.666666667 462.666666667 353.333333333 456 340 c 0
 456.666666667 336.666666667 457 332.333333333 457 327 c 0
 457 322 457 322 457 317 c 0
 455.666666667 312.333333333 455 309.333333333 455 308 c 2
 448 274 l 2
 442.666666667 250 429.833333333 229.166666667 409.5 211.5 c 128
 389.166666667 193.833333333 364.333333333 185 335 185 c 0
 323 185 314.666666667 185.5 310 186.5 c 128
 305.333333333 187.5 298 189.666666667 288 193 c 1
 301.333333333 207 311 221 317 235 c 0
 321 243.666666667 325 258 329 278 c 2
 337 317 l 2
 339 327 340 336 340 344 c 0
 340 376 322.666666667 392 288 392 c 0
 266 392 245 389 225 383 c 1
 265.666666667 377 286 353.333333333 286 312 c 0
 286 304 285 295 283 285 c 0
 275 250.333333333 256 224 226 206 c 0
 201.333333333 191.333333333 173.333333333 184 142 184 c 0
 114.666666667 184 94.5 189 81.5 199 c 128
 68.5 209 62 226 62 250 c 0
 62 261.333333333 63.3333333333 273.333333333 66 286 c 0
 76.6666666667 336.666666667 103.833333333 376.666666667 147.5 406 c 128
 191.166666667 435.333333333 243 450 303 450 c 0
 334.333333333 450 360.5 445.333333333 381.5 436 c 128
 402.5 426.666666667 419.333333333 414 432 398 c 1
 444.666666667 412.666666667 461.166666667 425 481.5 435 c 128
 501.833333333 445 525 450 551 450 c 0
 636.333333333 450 679 417 679 351 c 0
 679 340.333333333 677.333333333 326.666666667 674 310 c 0
 663.333333333 261.333333333 628.333333333 220 569 186 c 0
 523.666666667 160.666666667 467.5 140.333333333 400.5 125 c 128
 333.5 109.666666667 268.333333333 95 205 81 c 1
 155 64.3333333333 125.666666667 35.6666666667 117 -5 c 0
 115 -14.3333333333 116.333333333 -22.3333333333 121 -29 c 128
 125.666666667 -35.6666666667 133.666666667 -39 145 -39 c 0
 164.333333333 -39 194 -26.6666666667 234 -2 c 0
 302 40 339.666666667 63 347 67 c 0
 394.333333333 92.3333333333 435.666666667 105 471 105 c 0
 513 105 546.333333333 99.3333333333 571 88 c 0
 601.666666667 74 617 51.6666666667 617 21 c 0
 617 14.3333333333 616 6.33333333333 614 -3 c 0
170 297 m 0
 171.333333333 302.333333333 172 306.666666667 172 310 c 0
 172 323.333333333 166.666666667 330 156 330 c 0
 149.333333333 330 143.333333333 326 138 318 c 128
 132.666666667 310 129.166666667 301 127.5 291 c 128
 125.833333333 281 124.5 273.166666667 123.5 267.5 c 128
 122.5 261.833333333 122 258.666666667 122 258 c 0
 122 247.333333333 126.333333333 242 135 242 c 0
 145.666666667 242 153.666666667 247.333333333 159 258 c 0
 162.333333333 264.666666667 166 277.666666667 170 297 c 0
EndSplineSet
EndChar

